<?xml version="1.0" encoding="UTF-8" standalone="no"?>
<!DOCTYPE svg PUBLIC "-//W3C//DTD SVG 1.1//EN" "http://www.w3.org/Graphics/SVG/1.1/DTD/svg11.dtd">
<svg width="100%" height="100%" viewBox="0 0 250 370" version="1.1" xmlns="http://www.w3.org/2000/svg" xmlns:xlink="http://www.w3.org/1999/xlink" xml:space="preserve" style="fill-rule:evenodd;clip-rule:evenodd;">
    <g transform="matrix(1,0,0,1,-2396,-716)">
        <g transform="matrix(1,0,0,1,1261,748.638)">
            <g id="g6635.-7" transform="matrix(4,0,0,4,-1260,-1357.09)">
                <path id="rect2987.-8.-5.-81.-5.-9" d="M660,334.862C660,333.482 658.88,332.362 657.5,332.362L602.5,332.362C601.12,332.362 600,333.482 600,334.862L600,419.862C600,421.242 601.12,422.362 602.5,422.362L657.5,422.362C658.88,422.362 660,421.242 660,419.862L660,334.862Z" style="fill:white;stroke:black;stroke-width:0.5px;"/>
                <path id="rect3757.-26.-33.-5.-3.-0" d="M655,338.612C655,337.922 654.44,337.362 653.75,337.362L606.25,337.362C605.56,337.362 605,337.922 605,338.612L605,416.112C605,416.802 605.56,417.362 606.25,417.362L653.75,417.362C654.44,417.362 655,416.802 655,416.112L655,338.612Z" style="fill:rgb(85,170,85);"/>
                <path id="path3773.-0.-4.-8.-4.-60.-3.-86.-2.-5" d="M645,352.362C622.909,352.362 605,370.271 605,392.362C605,397.885 609.477,402.362 615,402.362C637.091,402.362 655,384.454 655,362.362C655,356.839 650.523,352.362 645,352.362Z" style="fill:white;"/>
                <path id="path5897.-6.-5.-3" d="M630.031,362.362C626.192,362.357 622.339,363.812 619.406,366.737C613.541,372.587 613.525,382.09 619.375,387.956C625.225,393.821 634.728,393.837 640.594,387.987C646.459,382.137 646.475,372.634 640.625,366.768C637.7,363.836 633.87,362.367 630.031,362.362L630.031,362.362ZM630,367.362C631.75,367.364 633.508,367.822 635.063,368.737L621.375,382.425C619.115,378.587 619.638,373.559 622.938,370.268C624.893,368.318 627.441,367.359 630,367.362ZM638.625,372.268C640.901,376.109 640.368,381.159 637.063,384.456C633.76,387.75 628.74,388.234 624.906,385.956L638.625,372.268Z" style="fill:rgb(85,170,85);"/>
                <path id="path5897.-6.-8.-2.-4" d="M615.016,339.862C613.097,339.859 611.17,340.587 609.704,342.049C606.772,344.974 606.764,349.725 609.688,352.658C612.613,355.59 617.364,355.598 620.296,352.673C623.228,349.749 623.236,344.998 620.311,342.065C618.849,340.599 616.935,339.865 615.016,339.862L615.016,339.862ZM615,342.362C615.875,342.363 616.754,342.592 617.531,343.049L610.688,349.892C609.558,347.974 609.82,345.46 611.469,343.815C612.447,342.84 613.721,342.36 615,342.362L615,342.362ZM619.312,344.815C620.449,346.735 620.183,349.26 618.531,350.908C616.88,352.555 614.37,352.797 612.454,351.658L619.312,344.815Z" style="fill:white;"/>
                <path id="path5897.-6.-8.-5.-1" d="M645.016,399.862C643.097,399.859 641.17,400.587 639.704,402.049C636.772,404.974 636.764,409.725 639.688,412.658C642.613,415.59 647.364,415.598 650.296,412.673C653.228,409.749 653.236,404.998 650.311,402.065C648.849,400.599 646.935,399.865 645.016,399.862L645.016,399.862ZM645,402.362C645.875,402.363 646.754,402.592 647.531,403.049L640.688,409.892C639.558,407.974 639.82,405.46 641.469,403.815C642.447,402.84 643.721,402.36 645,402.362L645,402.362ZM649.312,404.815C650.449,406.735 650.183,409.26 648.531,410.908C646.88,412.555 644.37,412.797 642.454,411.658L649.312,404.815Z" style="fill:white;"/>
            </g>
        </g>
    </g>
</svg>
