<?xml version="1.0" encoding="UTF-8" standalone="no"?>
<!DOCTYPE svg PUBLIC "-//W3C//DTD SVG 1.1//EN" "http://www.w3.org/Graphics/SVG/1.1/DTD/svg11.dtd">
<svg width="100%" height="100%" viewBox="0 0 250 370" version="1.1" xmlns="http://www.w3.org/2000/svg" xmlns:xlink="http://www.w3.org/1999/xlink" xml:space="preserve" style="fill-rule:evenodd;clip-rule:evenodd;">
    <g transform="matrix(1,0,0,1,-2876,-1076)">
        <g transform="matrix(1,0,0,1,1261,748.638)">
            <g id="g9459.-4" transform="matrix(4,0,0,4,-2040,-3517.09)">
                <path id="rect2987.-8.-5.-81.-7.-3.-7.-1" d="M975,964.862C975,963.482 973.88,962.362 972.5,962.362L917.5,962.362C916.12,962.362 915,963.482 915,964.862L915,1049.86C915,1051.24 916.12,1052.36 917.5,1052.36L972.5,1052.36C973.88,1052.36 975,1051.24 975,1049.86L975,964.862Z" style="fill:white;stroke:black;stroke-width:0.5px;"/>
                <path id="rect3757.-26.-33.-5.-2.-2.-2.-8" d="M970,968.612C970,967.922 969.44,967.362 968.75,967.362L921.25,967.362C920.56,967.362 920,967.922 920,968.612L920,1046.11C920,1046.8 920.56,1047.36 921.25,1047.36L968.75,1047.36C969.44,1047.36 970,1046.8 970,1046.11L970,968.612Z" style="fill:rgb(85,85,253);"/>
                <path id="path3773.-0.-4.-8.-4.-60.-3.-86.-29.-6.-7.-3" d="M960,982.362C937.909,982.362 920,1000.27 920,1022.36C920,1027.88 924.477,1032.36 930,1032.36C952.091,1032.36 970,1014.45 970,992.362C970,986.839 965.523,982.362 960,982.362Z" style="fill:white;"/>
                <g id="rect6095.-5.-8.-2.-7" transform="matrix(1,0,-0.274722,0.961524,0,0)">
                    <path d="M1236.39,1040.52C1236.39,1040.16 1236.11,1039.87 1235.77,1039.87L1222.02,1039.87C1221.67,1039.87 1221.39,1040.16 1221.39,1040.52L1221.39,1062.62C1221.39,1062.98 1221.67,1063.27 1222.02,1063.27L1235.77,1063.27C1236.11,1063.27 1236.39,1062.98 1236.39,1062.62L1236.39,1040.52Z" style="fill:white;stroke:black;stroke-width:0.51px;"/>
                </g>
                <g id="rect6097.-3.-2.-6.-5" transform="matrix(1,0,-0.274722,0.961524,0,0)">
                    <path d="M1233.89,1043.12C1233.89,1042.76 1233.61,1042.47 1233.27,1042.47L1224.52,1042.47C1224.17,1042.47 1223.89,1042.76 1223.89,1043.12L1223.89,1060.02C1223.89,1060.38 1224.17,1060.67 1224.52,1060.67L1233.27,1060.67C1233.61,1060.67 1233.89,1060.38 1233.89,1060.02L1233.89,1043.12Z" style="fill:rgb(85,85,253);"/>
                </g>
                <g id="rect6095.-1.-66.-4.-8" transform="matrix(1,0,-0.274722,0.961524,0,0)">
                    <path d="M1244.25,1032.72C1244.25,1032.36 1243.97,1032.07 1243.62,1032.07L1229.87,1032.07C1229.53,1032.07 1229.25,1032.36 1229.25,1032.72L1229.25,1054.82C1229.25,1055.18 1229.53,1055.47 1229.87,1055.47L1243.62,1055.47C1243.97,1055.47 1244.25,1055.18 1244.25,1054.82L1244.25,1032.72Z" style="fill:white;stroke:black;stroke-width:0.51px;"/>
                </g>
                <g id="rect6097.-8.-3.-7.-1" transform="matrix(1,0,-0.274722,0.961524,0,0)">
                    <path d="M1241.75,1035.32C1241.75,1034.96 1241.47,1034.67 1241.12,1034.67L1232.37,1034.67C1232.03,1034.67 1231.75,1034.96 1231.75,1035.32L1231.75,1052.22C1231.75,1052.58 1232.03,1052.87 1232.37,1052.87L1241.12,1052.87C1241.47,1052.87 1241.75,1052.58 1241.75,1052.22L1241.75,1035.32Z" style="fill:rgb(85,85,253);"/>
                </g>
                <path id="rect5649.-4.-2.-7.-7" d="M923.5,974.862L923.5,977.362L921,977.362L921,979.862L923.5,979.862L923.5,982.362L926,982.362L926,979.862L928.5,979.862L928.5,977.362L926,977.362L926,974.862L923.5,974.862Z" style="fill:white;"/>
                <path id="rect3163.-52.-9.-8.-1.-1.-2.-7.-3.-6.-0.-9.-5.-9.-2.-0" d="M935,969.862C932.23,969.862 930,972.092 930,974.862L930,975.362L932.5,975.362L932.5,974.862C932.5,973.477 933.615,972.362 935,972.362C936.385,972.362 937.5,973.477 937.5,974.862C937.5,975.426 937.032,976.532 936.544,976.917C933.891,979.004 933.919,978.659 930,981.362L930,984.862L940,984.862L940,982.362L940,981.362L937.5,981.362L937.5,982.362L935,982.362L933,982.362C936.095,980.183 936.321,980.236 938.747,978.065C939.524,977.37 940,975.99 940,974.862C940,972.092 937.77,969.862 935,969.862Z" style="fill:white;fill-rule:nonzero;"/>
                <path id="rect5649.-4.-2.-7.-0.-4" d="M966.5,1039.86L966.5,1037.36L969,1037.36L969,1034.86L966.5,1034.86L966.5,1032.36L964,1032.36L964,1034.86L961.5,1034.86L961.5,1037.36L964,1037.36L964,1039.86L966.5,1039.86Z" style="fill:white;"/>
                <path id="rect3163.-52.-9.-8.-1.-1.-2.-7.-3.-6.-0.-9.-5.-9.-2.-2.-88" d="M955,1044.86C957.77,1044.86 960,1042.63 960,1039.86L960,1039.36L957.5,1039.36L957.5,1039.86C957.5,1041.25 956.385,1042.36 955,1042.36C953.615,1042.36 952.5,1041.25 952.5,1039.86C952.5,1039.3 952.968,1038.19 953.456,1037.81C956.109,1035.72 956.081,1036.07 960,1033.36L960,1029.86L955,1029.86L950,1029.86L950,1033.36L952.5,1033.36L952.5,1032.36L957,1032.36C953.905,1034.54 953.679,1034.49 951.253,1036.66C950.476,1037.36 950,1038.74 950,1039.86C950,1042.63 952.23,1044.86 955,1044.86Z" style="fill:white;fill-rule:nonzero;"/>
            </g>
        </g>
    </g>
</svg>
