<?xml version="1.0" encoding="UTF-8" standalone="no"?>
<!DOCTYPE svg PUBLIC "-//W3C//DTD SVG 1.1//EN" "http://www.w3.org/Graphics/SVG/1.1/DTD/svg11.dtd">
<svg width="100%" height="100%" viewBox="0 0 250 370" version="1.1" xmlns="http://www.w3.org/2000/svg" xmlns:xlink="http://www.w3.org/1999/xlink" xml:space="preserve" style="fill-rule:evenodd;clip-rule:evenodd;">
    <g transform="matrix(1,0,0,1,-2876,4)">
        <g transform="matrix(1,0,0,1,1261,748.638)">
            <g id="g9420.-2" transform="matrix(4,0,0,4,-2040,-3517.09)">
                <path id="rect2987.-8.-5.-81.-7.-0.-2" d="M975,694.862C975,693.482 973.88,692.362 972.5,692.362L917.5,692.362C916.12,692.362 915,693.482 915,694.862L915,779.862C915,781.242 916.12,782.362 917.5,782.362L972.5,782.362C973.88,782.362 975,781.242 975,779.862L975,694.862Z" style="fill:white;stroke:black;stroke-width:0.5px;"/>
                <path id="rect3757.-26.-33.-5.-2.-5.-8" d="M970,698.612C970,697.922 969.44,697.362 968.75,697.362L921.25,697.362C920.56,697.362 920,697.922 920,698.612L920,776.112C920,776.802 920.56,777.362 921.25,777.362L968.75,777.362C969.44,777.362 970,776.802 970,776.112L970,698.612Z" style="fill:rgb(255,85,85);"/>
                <path id="path3773.-0.-4.-8.-4.-60.-3.-86.-29.-1.-2" d="M960,712.362C937.909,712.362 920,730.271 920,752.362C920,757.885 924.477,762.362 930,762.362C952.091,762.362 970,744.454 970,722.362C970,716.839 965.523,712.362 960,712.362Z" style="fill:white;"/>
                <g id="rect6095.-5.-1.-9" transform="matrix(1,0,-0.274722,0.961524,0,0)">
                    <path d="M1159.25,759.718C1159.25,759.359 1158.97,759.068 1158.62,759.068L1144.87,759.068C1144.53,759.068 1144.25,759.359 1144.25,759.718L1144.25,781.819C1144.25,782.177 1144.53,782.469 1144.87,782.469L1158.62,782.469C1158.97,782.469 1159.25,782.177 1159.25,781.819L1159.25,759.718Z" style="fill:white;stroke:black;stroke-width:0.51px;"/>
                </g>
                <g id="rect6097.-3.-5.-4" transform="matrix(1,0,-0.274722,0.961524,0,0)">
                    <path d="M1156.75,762.318C1156.75,761.96 1156.47,761.668 1156.12,761.668L1147.37,761.668C1147.03,761.668 1146.75,761.96 1146.75,762.318L1146.75,779.219C1146.75,779.577 1147.03,779.869 1147.37,779.869L1156.12,779.869C1156.47,779.869 1156.75,779.577 1156.75,779.219L1156.75,762.318Z" style="fill:rgb(255,85,85);"/>
                </g>
                <g id="rect6095.-1.-9.-4" transform="matrix(1,0,-0.274722,0.961524,0,0)">
                    <path d="M1167.1,751.918C1167.1,751.559 1166.82,751.268 1166.48,751.268L1152.73,751.268C1152.38,751.268 1152.1,751.559 1152.1,751.918L1152.1,774.018C1152.1,774.377 1152.38,774.669 1152.73,774.669L1166.48,774.669C1166.82,774.669 1167.1,774.377 1167.1,774.018L1167.1,751.918Z" style="fill:white;stroke:black;stroke-width:0.51px;"/>
                </g>
                <g id="rect6097.-8.-08.-8" transform="matrix(1,0,-0.274722,0.961524,0,0)">
                    <path d="M1164.6,754.518C1164.6,754.159 1164.32,753.868 1163.98,753.868L1155.23,753.868C1154.88,753.868 1154.6,754.159 1154.6,754.518L1154.6,771.419C1154.6,771.777 1154.88,772.069 1155.23,772.069L1163.98,772.069C1164.32,772.069 1164.6,771.777 1164.6,771.419L1164.6,754.518Z" style="fill:rgb(255,85,85);"/>
                </g>
                <path id="rect5649.-4.-2.-7.-6.-2" d="M923.5,704.862L923.5,707.362L921,707.362L921,709.862L923.5,709.862L923.5,712.362L926,712.362L926,709.862L928.5,709.862L928.5,707.362L926,707.362L926,704.862L923.5,704.862Z" style="fill:white;"/>
                <path id="rect3163.-52.-9.-8.-1.-1.-2.-7.-3.-6.-0.-9.-5.-9.-2.-20.-7" d="M935,699.862C932.23,699.862 930,702.092 930,704.862L930,705.362L932.5,705.362L932.5,704.862C932.5,703.477 933.615,702.362 935,702.362C936.385,702.362 937.5,703.477 937.5,704.862C937.5,705.426 937.032,706.532 936.544,706.917C933.891,709.004 933.919,708.659 930,711.362L930,714.862L940,714.862L940,712.362L940,711.362L937.5,711.362L937.5,712.362L935,712.362L933,712.362C936.095,710.183 936.321,710.236 938.747,708.065C939.524,707.37 940,705.99 940,704.862C940,702.092 937.77,699.862 935,699.862Z" style="fill:white;fill-rule:nonzero;"/>
                <path id="rect5649.-4.-2.-7.-0.-2.-2" d="M966.5,769.862L966.5,767.362L969,767.362L969,764.862L966.5,764.862L966.5,762.362L964,762.362L964,764.862L961.5,764.862L961.5,767.362L964,767.362L964,769.862L966.5,769.862Z" style="fill:white;"/>
                <path id="rect3163.-52.-9.-8.-1.-1.-2.-7.-3.-6.-0.-9.-5.-9.-2.-2.-8.-5" d="M955,774.862C957.77,774.862 960,772.632 960,769.862L960,769.362L957.5,769.362L957.5,769.862C957.5,771.247 956.385,772.362 955,772.362C953.615,772.362 952.5,771.247 952.5,769.862C952.5,769.299 952.968,768.192 953.456,767.808C956.109,765.72 956.081,766.065 960,763.362L960,759.862L955,759.862L950,759.862L950,763.362L952.5,763.362L952.5,762.362L957,762.362C953.905,764.542 953.679,764.489 951.253,766.659C950.476,767.355 950,768.735 950,769.862C950,772.632 952.23,774.862 955,774.862Z" style="fill:white;fill-rule:nonzero;"/>
            </g>
        </g>
    </g>
</svg>
