<?xml version="1.0" encoding="UTF-8" standalone="no"?><!DOCTYPE svg PUBLIC "-//W3C//DTD SVG 1.1//EN" "http://www.w3.org/Graphics/SVG/1.1/DTD/svg11.dtd"><svg width="100%" height="100%" viewBox="0 0 250 370" version="1.1" xmlns="http://www.w3.org/2000/svg" xmlns:xlink="http://www.w3.org/1999/xlink" xml:space="preserve" style="fill-rule:evenodd;clip-rule:evenodd;"><g id="g9888"><path id="rect2987.2e..-8.2e..-5.2e..-81.2e..-2" d="M245,45c0,-22.076 -17.92,-40 -40,-40l-160,0c-22.08,0 -40,17.924 -40,40l0,280c0,22.077 17.92,40 40,40l160,0c22.08,0 40,-17.923 40,-40l0,-280Z" style="fill:#fff;stroke:#000;stroke-width:2px;"/><path id="rect3757.2e..-26.2e..-33.2e..-5.2e..-9" d="M225,45c0,-11.038 -8.96,-20 -20,-20l-160,0c-11.04,0 -20,8.962 -20,20l0,280c0,11.039 8.96,20 20,20l160,0c11.04,0 20,-8.961 20,-20l0,-280Z" style="fill:#55f;"/><path id="path3773.2e..-0.2e..-4.2e..-8.2e..-4.2e..-60.2e..-3.2e..-86.2e..-5" d="M185,85c-88.37,0 -160,71.635 -160,160c0,22.092 17.91,40 40,40c88.37,0 160,-71.634 160,-160c0,-22.091 -17.91,-40 -40,-40Z" style="fill:#fff;"/><path id="path3773.2e..-0.2e..-4.2e..-8.2e..-8.2e..-7.2e..-9.2e..-0" d="M36.75,185c-7.51,18.542 -11.75,38.764 -11.75,60c0,22.092 17.91,40 40,40l60,-100l-88.25,0Z" style="fill:#fa0;"/><path id="path3773.2e..-0.2e..-4.2e..-8.2e..-8.2e..-5.2e..-6.2e..-5.2e..-0" d="M125,185l-60,100c67.13,0 124.5,-41.389 148.25,-100l-88.25,0Z" style="fill:#0a0;"/><path id="path3773.2e..-0.2e..-4.2e..-8.2e..-8.2e..-1.2e..-4.2e..-3" d="M185,85c-67.13,0 -124.5,41.389 -148.25,100l88.25,0l60,-100Z" style="fill:#f55;"/><path id="path3773.2e..-0.2e..-4.2e..-8.2e..-8.2e..-5.2e..-8.2e..-3.2e..-9" d="M185,85l-60,100l88.25,0c7.51,-18.542 11.75,-38.763 11.75,-60c0,-22.091 -17.91,-40 -40,-40Z" style="fill:#55f;"/><path id="path3773.2e..-0.2e..-4.2e..-8.2e..-8.2e..-7.2e..-9.2e..-5.2e..-7" d="M37.94,60c-1.88,4.636 -2.94,9.691 -2.94,15c0,5.523 4.48,10 10,10l15,-25l-22.06,0Z" style="fill:#fa0;"/><path id="path3773.2e..-0.2e..-4.2e..-8.2e..-8.2e..-5.2e..-6.2e..-5.2e..-08.2e..-9" d="M60,60l-15,25c16.78,0 31.13,-10.347 37.06,-25l-22.06,0Z" style="fill:#0a0;"/><path id="path3773.2e..-0.2e..-4.2e..-8.2e..-8.2e..-1.2e..-4.2e..-39.2e..-9" d="M75,35c-16.78,0 -31.13,10.347 -37.06,25l22.06,0l15,-25Z" style="fill:#f55;"/><path id="path3773.2e..-0.2e..-4.2e..-8.2e..-8.2e..-5.2e..-8.2e..-3.2e..-3.2e..-7" d="M75,35l-15,25l22.06,0c1.88,-4.635 2.94,-9.691 2.94,-15c0,-5.523 -4.48,-10 -10,-10Z" style="fill:#55f;"/><path id="path3773.2e..-0.2e..-4.2e..-8.2e..-8.2e..-7.2e..-9.2e..-5.2e..-3" d="M167.94,310c-1.88,4.635 -2.94,9.691 -2.94,15c0,5.523 4.48,10 10,10l15,-25l-22.06,0Z" style="fill:#fa0;"/><path id="path3773.2e..-0.2e..-4.2e..-8.2e..-8.2e..-5.2e..-6.2e..-5.2e..-08.2e..-5" d="M190,310l-15,25c16.78,0 31.13,-10.347 37.06,-25l-22.06,0Z" style="fill:#0a0;"/><path id="path3773.2e..-0.2e..-4.2e..-8.2e..-8.2e..-1.2e..-4.2e..-39.2e..-7" d="M205,285c-16.78,0 -31.13,10.347 -37.06,25l22.06,0l15,-25Z" style="fill:#f55;"/><path id="path3773.2e..-0.2e..-4.2e..-8.2e..-8.2e..-5.2e..-8.2e..-3.2e..-3.2e..-6" d="M205,285l-15,25l22.06,0c1.88,-4.635 2.94,-9.691 2.94,-15c0,-5.523 -4.48,-10 -10,-10Z" style="fill:#55f;"/><path id="path3773.2e..-0.2e..-4.2e..-8.2e..-8.2e..-7.2e..-9.2e..-0.2e..-03.2e..-8" d="M185.27,83.001l0.27,0.003l0.27,0.004l0.27,0.006l0.27,0.008l0.27,0.009l0.27,0.011l0.27,0.013l0.27,0.014l0.26,0.016l0.27,0.018l0.27,0.02l0.27,0.021l0.26,0.022l0.27,0.025l0.26,0.026l0.27,0.028l0.26,0.029l0.26,0.031l0.27,0.032l0.52,0.07l0.26,0.038l0.26,0.039l0.26,0.041l0.26,0.042l0.26,0.044l0.26,0.045l0.26,0.047l0.26,0.049l0.26,0.05l0.25,0.051l0.26,0.054l0.25,0.054l0.26,0.057l0.25,0.058l0.26,0.059l0.25,0.061l0.5,0.126l0.26,0.066l0.25,0.067l0.25,0.069l0.25,0.07l0.25,0.071l0.24,0.073l0.25,0.075l0.25,0.076l0.25,0.077l0.24,0.079l0.25,0.08l0.24,0.082l0.24,0.084l0.25,0.084l0.48,0.174l0.24,0.089l0.24,0.091l0.24,0.092l0.24,0.093l0.24,0.095l0.24,0.096l0.23,0.098l0.24,0.098l0.23,0.101l0.24,0.102l0.23,0.103l0.24,0.104l0.23,0.106l0.23,0.107l0.23,0.109l0.23,0.11l0.23,0.111l0.23,0.113l0.22,0.114l0.23,0.115l0.23,0.117l0.22,0.118l0.23,0.119l0.44,0.242l0.23,0.123l0.22,0.125l0.22,0.126l0.22,0.127l0.22,0.128l0.21,0.13l0.22,0.131l0.22,0.132l0.21,0.133l0.22,0.135l0.21,0.136l0.21,0.137l0.42,0.278l0.21,0.141l0.21,0.142l0.42,0.288l0.21,0.146l0.2,0.147l0.2,0.148l0.21,0.15l0.2,0.15l0.2,0.151l0.2,0.153l0.4,0.31l0.2,0.156l0.2,0.158l0.19,0.159l0.2,0.16l0.19,0.161l0.19,0.162l0.2,0.163l0.19,0.164l0.19,0.166l0.19,0.167l0.18,0.168l0.19,0.168l0.19,0.17l0.18,0.171l0.19,0.173l0.18,0.172l0.18,0.175l0.36,0.352l0.18,0.177l0.18,0.179l0.17,0.18l0.18,0.181l0.34,0.364l0.18,0.184l0.17,0.185l0.17,0.186l0.17,0.187l0.17,0.188l0.16,0.188l0.17,0.191l0.16,0.191l0.17,0.192l0.16,0.193l0.32,0.388l0.16,0.196l0.16,0.197l0.15,0.198l0.16,0.199l0.3,0.4l0.16,0.201l0.15,0.203l0.14,0.204l0.15,0.204l0.3,0.412l0.14,0.207l0.14,0.208l0.15,0.209l0.28,0.42l0.13,0.213l0.14,0.212l0.14,0.213l0.13,0.215l0.14,0.216l0.13,0.215l0.13,0.217l0.13,0.218l0.13,0.219l0.12,0.218l0.13,0.221l0.12,0.221l0.13,0.222l0.12,0.223l0.12,0.224l0.12,0.225l0.12,0.224l0.11,0.226l0.12,0.227l0.11,0.227l0.12,0.229l0.11,0.229l0.11,0.23l0.11,0.232l0.1,0.231l0.11,0.232l0.1,0.233l0.11,0.234l0.2,0.468l0.1,0.237l0.09,0.237l0.2,0.476l0.09,0.238l0.18,0.48l0.09,0.242l0.09,0.24l0.09,0.243l0.08,0.243l0.08,0.244l0.09,0.245l0.07,0.245l0.08,0.246l0.08,0.245l0.08,0.247l0.07,0.249l0.08,0.248l0.07,0.247l0.07,0.251l0.07,0.25l0.06,0.251l0.07,0.252l0.06,0.25l0.06,0.254l0.07,0.254l0.05,0.252l0.06,0.255l0.06,0.256l0.05,0.255l0.06,0.255l0.05,0.256l0.05,0.258l0.05,0.259l0.04,0.258l0.05,0.258l0.04,0.26l0.05,0.261l0.04,0.259l0.03,0.261l0.04,0.262l0.04,0.261l0.03,0.263l0.04,0.264l0.03,0.263l0.03,0.264l0.02,0.264l0.03,0.265l0.02,0.267l0.03,0.264l0.02,0.266l0.02,0.268l0.01,0.267l0.02,0.268l0.02,0.267l0.01,0.269l0.01,0.268l0.01,0.27l0.01,0.271l0,0.268l0.01,0.272l0,1.549l-0.01,0.504l0,0.502l-0.01,0.502l-0.01,0.502l-0.01,0.502l-0.01,0.501l-0.01,0.501l-0.02,0.5l-0.01,0.5l-0.02,0.499l-0.02,0.5l-0.02,0.499l-0.03,0.498l-0.02,0.497l-0.02,0.498l-0.03,0.497l-0.03,0.496l-0.03,0.497l-0.03,0.496l-0.03,0.496l-0.04,0.495l-0.04,0.494l-0.03,0.495l-0.04,0.493l-0.04,0.493l-0.05,0.493l-0.04,0.493l-0.05,0.492l-0.04,0.491l-0.05,0.492l-0.05,0.491l-0.05,0.49l-0.05,0.49l-0.06,0.49l-0.05,0.489l-0.06,0.487l-0.06,0.489l-0.06,0.488l-0.06,0.487l-0.06,0.487l-0.07,0.486l-0.06,0.486l-0.07,0.485l-0.07,0.485l-0.07,0.484l-0.07,0.485l-0.07,0.483l-0.08,0.483l-0.07,0.482l-0.08,0.483l-0.08,0.481l-0.08,0.481l-0.08,0.48l-0.08,0.481l-0.09,0.48l-0.08,0.479l-0.09,0.478l-0.09,0.479l-0.09,0.477l-0.09,0.478l-0.09,0.477l-0.1,0.476l-0.09,0.475l-0.1,0.475l-0.1,0.475l-0.1,0.474l-0.1,0.474l-0.1,0.473l-0.1,0.473l-0.11,0.472l-0.11,0.472l-0.1,0.471l-0.11,0.47l-0.11,0.47l-0.12,0.47l-0.11,0.469l-0.11,0.468l-0.12,0.469l-0.12,0.467l-0.12,0.467l-0.12,0.466l-0.12,0.466l-0.12,0.465l-0.12,0.465l-0.13,0.465l-0.13,0.462l-0.12,0.464l-0.14,0.463l-0.13,0.461l-0.13,0.462l-0.13,0.461l-0.14,0.46l-0.13,0.46l-0.14,0.459l-0.14,0.458l-0.14,0.459l-0.14,0.457l-0.14,0.457l-0.15,0.456l-0.14,0.456l-0.15,0.456l-0.14,0.454l-0.15,0.454l-0.15,0.453l-0.16,0.453l-0.15,0.453l-0.15,0.452l-0.16,0.451l-0.15,0.45l-0.16,0.45l-0.16,0.45l-0.16,0.449l-0.16,0.447l-0.16,0.448l-0.17,0.447l-0.17,0.446l-0.16,0.446l-0.17,0.445l-0.17,0.445l-0.17,0.444l-0.17,0.443l-0.17,0.443l-0.18,0.442l-0.17,0.441l-0.18,0.441l-0.18,0.44l-0.14,0.347l-0.14,0.348l-0.14,0.347l-0.15,0.346l-0.14,0.346l-0.15,0.345l-0.14,0.346l-0.15,0.344l-0.15,0.344l-0.14,0.344l-0.15,0.344l-0.15,0.343l-0.15,0.343l-0.16,0.342l-0.15,0.341l-0.15,0.342l-0.15,0.341l-0.16,0.341l-0.15,0.34l-0.16,0.339l-0.16,0.34l-0.15,0.339l-0.16,0.338l-0.16,0.338l-0.16,0.337l-0.16,0.338l-0.16,0.337l-0.16,0.336l-0.16,0.336l-0.17,0.336l-0.16,0.335l-0.17,0.334l-0.16,0.334l-0.17,0.334l-0.17,0.334l-0.17,0.333l-0.16,0.331l-0.17,0.333l-0.17,0.331l-0.17,0.331l-0.18,0.33l-0.17,0.331l-0.17,0.33l-0.18,0.329l-0.17,0.33l-0.17,0.328l-0.18,0.327l-0.18,0.328l-0.17,0.327l-0.18,0.326l-0.18,0.327l-0.18,0.326l-0.18,0.325l-0.18,0.324l-0.18,0.325l-0.19,0.324l-0.18,0.323l-0.18,0.323l-0.19,0.322l-0.18,0.323l-0.19,0.322l-0.19,0.32l-0.18,0.321l-0.19,0.32l-0.19,0.32l-0.19,0.319l-0.19,0.319l-0.19,0.318l-0.19,0.318l-0.2,0.317l-0.19,0.318l-0.19,0.315l-0.2,0.316l-0.19,0.316l-0.2,0.315l-0.2,0.314l-0.19,0.314l-0.2,0.314l-0.2,0.312l-0.2,0.313l-0.2,0.312l-0.2,0.311l-0.2,0.312l-0.2,0.31l-0.21,0.311l-0.2,0.309l-0.2,0.309l-0.21,0.309l-0.2,0.308l-0.21,0.307l-0.21,0.307l-0.2,0.307l-0.21,0.306l-0.21,0.306l-0.21,0.305l-0.21,0.305l-0.21,0.303l-0.22,0.304l-0.21,0.303l-0.21,0.303l-0.21,0.302l-0.22,0.302l-0.21,0.301l-0.22,0.3l-0.22,0.3l-0.21,0.299l-0.22,0.299l-0.22,0.299l-0.22,0.298l-0.22,0.297l-0.22,0.297l-0.22,0.296l-0.22,0.297l-0.22,0.295l-0.23,0.295l-0.22,0.294l-0.23,0.294l-0.22,0.293l-0.22,0.293l-0.23,0.292l-0.23,0.292l-0.23,0.291l-0.22,0.29l-0.23,0.291l-0.23,0.289l-0.23,0.289l-0.23,0.288l-0.23,0.288l-0.24,0.288l-0.23,0.287l-0.23,0.286l-0.24,0.285l-0.23,0.286l-0.24,0.284l-0.23,0.284l-0.24,0.285l-0.24,0.282l-0.23,0.283l-0.24,0.282l-0.24,0.281l-0.24,0.281l-0.24,0.28l-0.24,0.28l-0.24,0.279l-0.25,0.279l-0.24,0.278l-0.24,0.277l-0.25,0.277l-0.24,0.276l-0.25,0.276l-0.24,0.276l-0.25,0.274l-0.25,0.274l-0.24,0.274l-0.25,0.273l-0.25,0.272l-0.25,0.272l-0.25,0.271l-0.25,0.271l-0.25,0.27l-0.26,0.27l-0.25,0.268l-0.25,0.269l-0.26,0.268l-0.25,0.267l-0.25,0.267l-0.26,0.266l-0.26,0.265l-0.25,0.265l-0.26,0.264l-0.26,0.264l-0.26,0.264l-0.26,0.262l-0.26,0.262l-0.26,0.261l-0.26,0.261l-0.26,0.26l-0.26,0.26l-0.27,0.259l-0.26,0.258l-0.26,0.258l-0.27,0.258l-0.26,0.256l-0.27,0.256l-0.26,0.256l-0.27,0.255l-0.27,0.254l-0.27,0.253l-0.26,0.253l-0.27,0.253l-0.27,0.252l-0.27,0.251l-0.27,0.251l-0.28,0.25l-0.27,0.249l-0.27,0.249l-0.27,0.248l-0.28,0.247l-0.27,0.247l-0.28,0.247l-0.27,0.245l-0.28,0.245l-0.27,0.245l-0.28,0.244l-0.28,0.243l-0.28,0.242l-0.27,0.242l-0.28,0.242l-0.28,0.241l-0.28,0.239l-0.29,0.24l-0.28,0.239l-0.28,0.238l-0.28,0.238l-0.28,0.236l-0.29,0.237l-0.28,0.236l-0.29,0.234l-0.28,0.235l-0.29,0.234l-0.29,0.233l-0.28,0.232l-0.29,0.232l-0.29,0.231l-0.29,0.231l-0.29,0.23l-0.29,0.229l-0.29,0.228l-0.29,0.228l-0.29,0.228l-0.29,0.226l-0.29,0.227l-0.3,0.225l-0.29,0.224l-0.29,0.225l-0.3,0.223l-0.29,0.223l-0.3,0.222l-0.29,0.221l-0.3,0.221l-0.3,0.22l-0.29,0.219l-0.3,0.219l-0.3,0.218l-0.3,0.218l-0.3,0.216l-0.3,0.217l-0.3,0.215l-0.3,0.215l-0.3,0.214l-0.3,0.213l-0.31,0.213l-0.3,0.212l-0.31,0.211l-0.3,0.211l-0.3,0.21l-0.31,0.21l-0.31,0.208l-0.3,0.208l-0.31,0.208l-0.3,0.206l-0.31,0.206l-0.31,0.205l-0.31,0.205l-0.31,0.204l-0.31,0.203l-0.31,0.202l-0.31,0.203l-0.31,0.201l-0.31,0.2l-0.31,0.199l-0.32,0.2l-0.31,0.198l-0.31,0.198l-0.32,0.197l-0.31,0.196l-0.32,0.195l-0.31,0.195l-0.32,0.194l-0.31,0.194l-0.32,0.193l-0.32,0.192l-0.32,0.191l-0.32,0.191l-0.31,0.19l-0.32,0.189l-0.32,0.188l-0.32,0.188l-0.33,0.187l-0.32,0.186l-0.32,0.186l-0.32,0.185l-0.32,0.184l-0.33,0.183l-0.32,0.183l-0.32,0.182l-0.33,0.182l-0.32,0.18l-0.33,0.18l-0.32,0.179l-0.33,0.178l-0.33,0.178l-0.32,0.177l-0.33,0.177l-0.33,0.175l-0.33,0.175l-0.33,0.174l-0.33,0.173l-0.33,0.173l-0.33,0.171l-0.33,0.171l-0.33,0.171l-0.33,0.169l-0.33,0.169l-0.34,0.168l-0.33,0.168l-0.33,0.166l-0.34,0.166l-0.33,0.165l-0.33,0.165l-0.34,0.163l-0.34,0.163l-0.33,0.162l-0.34,0.162l-0.33,0.16l-0.34,0.16l-0.34,0.159l-0.34,0.159l-0.34,0.157l-0.34,0.157l-0.33,0.156l-0.34,0.156l-0.35,0.154l-0.34,0.154l-0.34,0.153l-0.34,0.152l-0.34,0.152l-0.34,0.151l-0.35,0.149l-0.34,0.15l-0.34,0.148l-0.35,0.148l-0.34,0.147l-0.35,0.146l-0.34,0.145l-0.35,0.145l-0.34,0.143l-0.35,0.143l-0.35,0.143l-0.34,0.141l-0.35,0.141l-0.35,0.14l-0.35,0.139l-0.35,0.138l-0.35,0.138l-0.35,0.136l-0.35,0.136l-0.35,0.135l-0.35,0.135l-0.35,0.133l-0.35,0.133l-0.35,0.132l-0.35,0.131l-0.36,0.131l-0.35,0.129l-0.35,0.129l-0.36,0.128l-0.35,0.127l-0.36,0.127l-0.35,0.125l-0.36,0.125l-0.35,0.124l-0.36,0.123l-0.36,0.122l-0.35,0.122l-0.36,0.121l-0.36,0.12l-0.36,0.119l-0.35,0.118l-0.36,0.118l-0.36,0.116l-0.36,0.116l-0.36,0.115l-0.36,0.114l-0.36,0.114l-0.36,0.112l-0.37,0.112l-0.36,0.111l-0.36,0.11l-0.36,0.11l-0.37,0.108l-0.36,0.108l-0.36,0.107l-0.37,0.106l-0.36,0.105l-0.37,0.104l-0.36,0.104l-0.37,0.102l-0.36,0.102l-0.37,0.101l-0.36,0.1l-0.37,0.1l-0.37,0.098l-0.36,0.098l-0.37,0.096l-0.37,0.096l-0.37,0.096l-0.37,0.094l-0.37,0.093l-0.37,0.093l-0.37,0.092l-0.37,0.09l-0.37,0.09l-0.37,0.09l-0.37,0.088l-0.37,0.087l-0.37,0.087l-0.37,0.086l-0.38,0.085l-0.37,0.084l-0.37,0.083l-0.38,0.082l-0.37,0.082l-0.37,0.08l-0.38,0.08l-0.37,0.079l-0.38,0.078l-0.37,0.077l-0.38,0.076l-0.37,0.076l-0.38,0.074l-0.38,0.074l-0.37,0.073l-0.38,0.072l-0.38,0.071l-0.38,0.07l-0.38,0.069l-0.37,0.069l-0.38,0.067l-0.38,0.067l-0.38,0.066l-0.38,0.065l-0.38,0.064l-0.38,0.063l-0.38,0.062l-0.38,0.062l-0.38,0.06l-0.38,0.06l-0.39,0.058l-0.38,0.058l-0.38,0.057l-0.38,0.056l-0.39,0.055l-0.38,0.054l-0.38,0.054l-0.39,0.052l-0.38,0.052l-0.38,0.05l-0.39,0.05l-0.38,0.049l-0.39,0.048l-0.38,0.047l-0.39,0.046l-0.39,0.045l-0.38,0.045l-0.39,0.043l-0.39,0.043l-0.38,0.041l-0.39,0.041l-0.39,0.04l-0.39,0.039l-0.38,0.038l-0.39,0.037l-0.39,0.036l-0.39,0.035l-0.39,0.034l-0.39,0.034l-0.39,0.032l-0.39,0.031l-0.39,0.031l-0.39,0.03l-0.39,0.028l-0.39,0.028l-0.39,0.027l-0.4,0.026l-0.39,0.025l-0.39,0.024l-0.39,0.023l-0.39,0.023l-0.4,0.021l-0.39,0.02l-0.39,0.02l-0.4,0.018l-0.39,0.018l-0.39,0.016l-0.4,0.016l-0.39,0.015l-0.4,0.014l-0.39,0.013l-0.4,0.011l-0.39,0.011l-0.4,0.01l-0.4,0.009l-0.39,0.009l-0.4,0.007l-0.4,0.006l-0.39,0.005l-0.4,0.004l-0.4,0.004l-0.39,0.002l-0.4,0.002l-0.4,0l-0.27,-0.001l-0.27,-0.002l-0.27,-0.005l-0.27,-0.006l-0.27,-0.007l-0.27,-0.01l-0.27,-0.011l-0.27,-0.012l-0.27,-0.015l-0.26,-0.016l-0.27,-0.018l-0.27,-0.019l-0.27,-0.021l-0.26,-0.023l-0.27,-0.025l-0.26,-0.026l-0.27,-0.027l-0.26,-0.03l-0.26,-0.031l-0.27,-0.032l-0.26,-0.034l-0.26,-0.036l-0.26,-0.038l-0.26,-0.039l-0.26,-0.04l-0.26,-0.043l-0.26,-0.043l-0.26,-0.046l-0.26,-0.047l-0.26,-0.048l-0.26,-0.05l-0.25,-0.052l-0.26,-0.053l-0.25,-0.055l-0.26,-0.056l-0.25,-0.058l-0.26,-0.06l-0.25,-0.061l-0.25,-0.062l-0.25,-0.064l-0.26,-0.066l-0.25,-0.067l-0.25,-0.068l-0.25,-0.07l-0.25,-0.072l-0.24,-0.073l-0.25,-0.074l-0.25,-0.076l-0.24,-0.078l-0.25,-0.079l-0.25,-0.08l-0.24,-0.082l-0.24,-0.083l-0.25,-0.085l-0.24,-0.086l-0.24,-0.088l-0.24,-0.089l-0.24,-0.091l-0.24,-0.092l-0.24,-0.093l-0.24,-0.095l-0.24,-0.096l-0.23,-0.097l-0.24,-0.099l-0.23,-0.1l-0.24,-0.102l-0.23,-0.103l-0.24,-0.105l-0.23,-0.106l-0.23,-0.107l-0.23,-0.109l-0.23,-0.11l-0.23,-0.111l-0.23,-0.113l-0.22,-0.114l-0.23,-0.115l-0.23,-0.116l-0.22,-0.118l-0.23,-0.12l-0.22,-0.12l-0.22,-0.122l-0.22,-0.123l-0.23,-0.125l-0.22,-0.126l-0.22,-0.127l-0.22,-0.128l-0.21,-0.13l-0.22,-0.131l-0.22,-0.132l-0.21,-0.133l-0.21,-0.135l-0.22,-0.136l-0.21,-0.137l-0.21,-0.139l-0.21,-0.139l-0.21,-0.141l-0.21,-0.142l-0.21,-0.143l-0.21,-0.145l-0.21,-0.146l-0.2,-0.147l-0.2,-0.148l-0.21,-0.15l-0.2,-0.15l-0.2,-0.151l-0.2,-0.153l-0.2,-0.154l-0.2,-0.156l-0.2,-0.156l-0.2,-0.158l-0.19,-0.159l-0.2,-0.16l-0.19,-0.161l-0.19,-0.162l-0.2,-0.163l-0.19,-0.164l-0.19,-0.165l-0.19,-0.168l-0.18,-0.168l-0.19,-0.168l-0.19,-0.17l-0.18,-0.171l-0.19,-0.173l-0.18,-0.172l-0.18,-0.175l-0.18,-0.176l-0.18,-0.175l-0.18,-0.178l-0.18,-0.179l-0.17,-0.18l-0.18,-0.181l-0.17,-0.182l-0.18,-0.182l-0.17,-0.183l-0.17,-0.185l-0.17,-0.187l-0.17,-0.187l-0.17,-0.188l-0.16,-0.188l-0.17,-0.19l-0.16,-0.191l-0.17,-0.192l-0.16,-0.193l-0.16,-0.194l-0.16,-0.195l-0.16,-0.195l-0.15,-0.198l-0.16,-0.198l-0.16,-0.198l-0.15,-0.201l-0.15,-0.2l-0.15,-0.201l-0.16,-0.203l-0.14,-0.203l-0.15,-0.205l-0.15,-0.206l-0.15,-0.205l-0.14,-0.208l-0.14,-0.208l-0.15,-0.209l-0.14,-0.21l-0.14,-0.21l-0.13,-0.212l-0.14,-0.213l-0.14,-0.213l-0.13,-0.215l-0.14,-0.215l-0.13,-0.216l-0.13,-0.217l-0.13,-0.218l-0.13,-0.219l-0.12,-0.218l-0.13,-0.221l-0.12,-0.221l-0.13,-0.222l-0.12,-0.223l-0.12,-0.223l-0.12,-0.226l-0.12,-0.224l-0.11,-0.226l-0.12,-0.226l-0.11,-0.228l-0.12,-0.229l-0.11,-0.229l-0.11,-0.23l-0.11,-0.231l-0.1,-0.231l-0.11,-0.232l-0.1,-0.234l-0.11,-0.233l-0.1,-0.234l-0.1,-0.235l-0.1,-0.237l-0.09,-0.237l-0.1,-0.238l-0.1,-0.237l-0.09,-0.238l-0.09,-0.24l-0.09,-0.241l-0.09,-0.241l-0.09,-0.241l-0.08,-0.243l-0.09,-0.243l-0.08,-0.244l-0.08,-0.244l-0.08,-0.246l-0.08,-0.245l-0.08,-0.245l-0.08,-0.248l-0.07,-0.248l-0.08,-0.248l-0.07,-0.248l-0.07,-0.251l-0.07,-0.25l-0.06,-0.25l-0.07,-0.253l-0.06,-0.25l-0.06,-0.254l-0.07,-0.254l-0.05,-0.252l-0.06,-0.255l-0.06,-0.256l-0.05,-0.255l-0.06,-0.255l-0.05,-0.256l-0.05,-0.258l-0.05,-0.258l-0.04,-0.259l-0.05,-0.258l-0.04,-0.26l-0.05,-0.26l-0.04,-0.26l-0.04,-0.261l-0.03,-0.262l-0.04,-0.261l-0.03,-0.263l-0.03,-0.264l-0.04,-0.262l-0.03,-0.264l-0.02,-0.265l-0.03,-0.265l-0.02,-0.266l-0.03,-0.265l-0.02,-0.266l-0.02,-0.268l-0.01,-0.267l-0.02,-0.267l-0.01,-0.268l-0.02,-0.268l-0.01,-0.269l-0.01,-0.27l-0.01,-0.271l0,-0.268l-0.01,-0.271l0,-0.272l0,-0.269l0,-0.506l0,-0.503l0.01,-0.503l0,-0.503l0.01,-0.502l0.01,-0.502l0.01,-0.501l0.01,-0.502l0.01,-0.5l0.02,-0.5l0.01,-0.5l0.02,-0.5l0.02,-0.499l0.02,-0.499l0.02,-0.498l0.03,-0.498l0.03,-0.498l0.02,-0.497l0.03,-0.496l0.03,-0.497l0.03,-0.496l0.04,-0.496l0.03,-0.494l0.04,-0.495l0.03,-0.494l0.04,-0.494l0.04,-0.493l0.05,-0.493l0.04,-0.493l0.04,-0.492l0.05,-0.491l0.05,-0.492l0.05,-0.49l0.05,-0.49l0.05,-0.491l0.06,-0.49l0.05,-0.488l0.06,-0.488l0.06,-0.489l0.06,-0.487l0.06,-0.487l0.06,-0.488l0.07,-0.486l0.06,-0.485l0.07,-0.486l0.07,-0.485l0.07,-0.484l0.07,-0.484l0.07,-0.484l0.08,-0.482l0.07,-0.483l0.08,-0.482l0.08,-0.482l0.08,-0.481l0.08,-0.48l0.08,-0.481l0.09,-0.48l0.08,-0.478l0.09,-0.479l0.09,-0.478l0.09,-0.478l0.09,-0.477l0.09,-0.477l0.1,-0.477l0.09,-0.475l0.1,-0.475l0.1,-0.475l0.1,-0.474l0.1,-0.474l0.1,-0.473l0.1,-0.473l0.11,-0.472l0.11,-0.471l0.1,-0.472l0.11,-0.47l0.11,-0.47l0.12,-0.47l0.11,-0.469l0.11,-0.468l0.12,-0.469l0.12,-0.467l0.12,-0.466l0.12,-0.467l0.12,-0.466l0.12,-0.465l0.13,-0.465l0.12,-0.464l0.13,-0.463l0.12,-0.464l0.14,-0.462l0.13,-0.462l0.13,-0.462l0.13,-0.461l0.14,-0.46l0.13,-0.46l0.14,-0.459l0.14,-0.458l0.14,-0.459l0.14,-0.457l0.14,-0.457l0.15,-0.456l0.14,-0.456l0.15,-0.456l0.15,-0.454l0.14,-0.454l0.15,-0.453l0.15,-0.453l0.16,-0.453l0.15,-0.451l0.16,-0.452l0.15,-0.45l0.16,-0.45l0.16,-0.449l0.16,-0.449l0.16,-0.448l0.17,-0.448l0.16,-0.447l0.16,-0.446l0.17,-0.446l0.17,-0.445l0.17,-0.445l0.17,-0.444l0.17,-0.443l0.17,-0.442l0.18,-0.443l0.17,-0.441l0.18,-0.441l0.18,-0.44l0.14,-0.347l0.14,-0.348l0.14,-0.347l0.15,-0.346l0.14,-0.346l0.15,-0.345l0.14,-0.345l0.15,-0.345l0.15,-0.344l0.14,-0.344l0.15,-0.344l0.15,-0.343l0.15,-0.342l0.15,-0.343l0.16,-0.341l0.15,-0.342l0.15,-0.341l0.16,-0.34l0.15,-0.341l0.16,-0.339l0.16,-0.34l0.15,-0.339l0.16,-0.338l0.16,-0.337l0.16,-0.338l0.16,-0.338l0.16,-0.336l0.16,-0.336l0.17,-0.337l0.16,-0.336l0.16,-0.334l0.17,-0.334l0.16,-0.335l0.17,-0.334l0.17,-0.333l0.17,-0.333l0.16,-0.332l0.17,-0.332l0.17,-0.332l0.17,-0.331l0.18,-0.33l0.17,-0.331l0.17,-0.33l0.18,-0.329l0.17,-0.329l0.17,-0.328l0.18,-0.328l0.18,-0.328l0.17,-0.327l0.18,-0.326l0.18,-0.327l0.18,-0.326l0.18,-0.325l0.18,-0.324l0.18,-0.325l0.19,-0.324l0.18,-0.323l0.18,-0.322l0.19,-0.323l0.18,-0.323l0.19,-0.321l0.19,-0.321l0.18,-0.321l0.19,-0.32l0.19,-0.319l0.19,-0.32l0.19,-0.318l0.19,-0.318l0.19,-0.319l0.2,-0.317l0.19,-0.317l0.19,-0.316l0.2,-0.316l0.19,-0.316l0.2,-0.315l0.2,-0.314l0.19,-0.314l0.2,-0.313l0.2,-0.313l0.2,-0.313l0.2,-0.312l0.2,-0.311l0.2,-0.312l0.2,-0.31l0.21,-0.31l0.2,-0.31l0.2,-0.309l0.21,-0.309l0.2,-0.308l0.21,-0.307l0.21,-0.307l0.21,-0.307l0.2,-0.306l0.21,-0.305l0.21,-0.306l0.21,-0.304l0.21,-0.304l0.22,-0.304l0.21,-0.303l0.21,-0.303l0.21,-0.302l0.22,-0.301l0.21,-0.301l0.22,-0.301l0.22,-0.3l0.21,-0.299l0.22,-0.299l0.22,-0.299l0.22,-0.298l0.22,-0.297l0.22,-0.297l0.22,-0.296l0.22,-0.297l0.22,-0.295l0.23,-0.295l0.22,-0.294l0.22,-0.294l0.23,-0.293l0.23,-0.292l0.22,-0.293l0.23,-0.292l0.23,-0.291l0.22,-0.29l0.23,-0.29l0.23,-0.29l0.23,-0.289l0.23,-0.288l0.23,-0.288l0.24,-0.287l0.23,-0.287l0.23,-0.287l0.24,-0.285l0.23,-0.285l0.24,-0.285l0.23,-0.284l0.24,-0.284l0.24,-0.283l0.23,-0.282l0.24,-0.283l0.24,-0.281l0.24,-0.28l0.24,-0.281l0.24,-0.279l0.25,-0.28l0.24,-0.278l0.24,-0.278l0.24,-0.278l0.25,-0.277l0.24,-0.276l0.25,-0.276l0.24,-0.275l0.25,-0.275l0.25,-0.274l0.24,-0.273l0.25,-0.273l0.25,-0.273l0.25,-0.272l0.25,-0.271l0.25,-0.271l0.25,-0.27l0.26,-0.269l0.25,-0.269l0.25,-0.269l0.26,-0.268l0.25,-0.267l0.25,-0.266l0.26,-0.267l0.26,-0.265l0.25,-0.265l0.26,-0.264l0.26,-0.264l0.26,-0.263l0.26,-0.263l0.26,-0.262l0.26,-0.261l0.26,-0.261l0.26,-0.26l0.26,-0.26l0.27,-0.259l0.26,-0.258l0.26,-0.258l0.27,-0.257l0.26,-0.257l0.27,-0.256l0.26,-0.255l0.27,-0.255l0.27,-0.254l0.27,-0.254l0.26,-0.253l0.27,-0.253l0.27,-0.252l0.27,-0.251l0.27,-0.25l0.28,-0.25l0.27,-0.25l0.27,-0.248l0.27,-0.249l0.28,-0.247l0.27,-0.247l0.28,-0.246l0.27,-0.246l0.28,-0.245l0.27,-0.245l0.28,-0.243l0.28,-0.243l0.28,-0.243l0.27,-0.242l0.28,-0.242l0.29,-0.24l0.28,-0.24l0.28,-0.24l0.28,-0.238l0.28,-0.239l0.28,-0.238l0.28,-0.236l0.29,-0.236l0.28,-0.236l0.29,-0.235l0.28,-0.234l0.29,-0.234l0.29,-0.234l0.28,-0.232l0.29,-0.232l0.29,-0.231l0.29,-0.231l0.29,-0.229l0.29,-0.23l0.29,-0.228l0.29,-0.228l0.29,-0.228l0.29,-0.226l0.29,-0.226l0.3,-0.226l0.29,-0.224l0.29,-0.224l0.3,-0.224l0.29,-0.222l0.3,-0.222l0.29,-0.222l0.3,-0.221l0.3,-0.22l0.29,-0.219l0.3,-0.219l0.3,-0.218l0.3,-0.218l0.3,-0.216l0.3,-0.216l0.3,-0.216l0.3,-0.214l0.3,-0.214l0.3,-0.214l0.31,-0.213l0.3,-0.212l0.31,-0.211l0.3,-0.211l0.3,-0.21l0.31,-0.209l0.31,-0.209l0.3,-0.208l0.31,-0.207l0.31,-0.207l0.3,-0.206l0.31,-0.205l0.31,-0.205l0.31,-0.204l0.31,-0.203l0.31,-0.202l0.31,-0.202l0.31,-0.201l0.31,-0.201l0.31,-0.199l0.32,-0.2l0.31,-0.198l0.31,-0.197l0.32,-0.197l0.31,-0.197l0.32,-0.195l0.31,-0.195l0.32,-0.194l0.31,-0.194l0.32,-0.192l0.32,-0.192l0.32,-0.192l0.32,-0.19l0.32,-0.19l0.31,-0.189l0.32,-0.189l0.32,-0.188l0.33,-0.187l0.32,-0.186l0.32,-0.186l0.32,-0.185l0.32,-0.184l0.33,-0.183l0.32,-0.183l0.32,-0.182l0.33,-0.182l0.32,-0.18l0.33,-0.18l0.32,-0.179l0.33,-0.178l0.33,-0.178l0.32,-0.177l0.33,-0.176l0.33,-0.176l0.33,-0.174l0.33,-0.175l0.33,-0.173l0.33,-0.172l0.33,-0.172l0.33,-0.171l0.33,-0.171l0.33,-0.169l0.33,-0.169l0.34,-0.168l0.33,-0.167l0.33,-0.167l0.34,-0.166l0.33,-0.165l0.34,-0.164l0.33,-0.164l0.34,-0.163l0.33,-0.162l0.34,-0.162l0.33,-0.16l0.34,-0.16l0.34,-0.159l0.34,-0.159l0.34,-0.157l0.34,-0.157l0.33,-0.156l0.35,-0.155l0.34,-0.155l0.34,-0.154l0.34,-0.153l0.34,-0.152l0.34,-0.151l0.34,-0.151l0.35,-0.15l0.34,-0.149l0.34,-0.149l0.35,-0.148l0.34,-0.146l0.35,-0.146l0.34,-0.146l0.35,-0.144l0.34,-0.144l0.35,-0.143l0.35,-0.142l0.34,-0.142l0.35,-0.14l0.35,-0.14l0.35,-0.139l0.35,-0.139l0.35,-0.137l0.35,-0.137l0.35,-0.136l0.35,-0.135l0.35,-0.134l0.35,-0.134l0.35,-0.133l0.35,-0.132l0.36,-0.131l0.35,-0.13l0.35,-0.13l0.35,-0.129l0.36,-0.128l0.35,-0.127l0.36,-0.126l0.35,-0.126l0.36,-0.125l0.35,-0.124l0.36,-0.123l0.36,-0.122l0.35,-0.122l0.36,-0.12l0.36,-0.12l0.36,-0.12l0.36,-0.118l0.35,-0.117l0.36,-0.117l0.36,-0.116l0.36,-0.115l0.36,-0.114l0.36,-0.114l0.37,-0.112l0.36,-0.112l0.36,-0.111l0.36,-0.11l0.36,-0.109l0.37,-0.109l0.36,-0.108l0.36,-0.106l0.37,-0.106l0.36,-0.105l0.37,-0.105l0.36,-0.103l0.37,-0.103l0.36,-0.102l0.37,-0.101l0.36,-0.1l0.37,-0.099l0.37,-0.099l0.37,-0.097l0.36,-0.097l0.37,-0.096l0.37,-0.095l0.37,-0.095l0.37,-0.093l0.37,-0.093l0.37,-0.091l0.37,-0.091l0.37,-0.09l0.37,-0.089l0.37,-0.089l0.37,-0.087l0.37,-0.087l0.37,-0.086l0.38,-0.085l0.37,-0.084l0.37,-0.083l0.38,-0.082l0.37,-0.082l0.37,-0.08l0.38,-0.08l0.37,-0.079l0.38,-0.078l0.37,-0.077l0.38,-0.076l0.37,-0.076l0.38,-0.074l0.38,-0.074l0.37,-0.073l0.38,-0.072l0.38,-0.071l0.38,-0.07l0.38,-0.069l0.37,-0.069l0.38,-0.067l0.38,-0.067l0.38,-0.066l0.38,-0.065l0.38,-0.064l0.38,-0.063l0.38,-0.062l0.38,-0.061l0.38,-0.061l0.38,-0.059l0.39,-0.059l0.38,-0.058l0.38,-0.057l0.38,-0.056l0.39,-0.055l0.38,-0.054l0.38,-0.054l0.39,-0.052l0.38,-0.052l0.38,-0.05l0.39,-0.05l0.38,-0.049l0.39,-0.048l0.38,-0.047l0.39,-0.046l0.39,-0.045l0.38,-0.044l0.39,-0.044l0.39,-0.042l0.38,-0.042l0.39,-0.041l0.39,-0.039l0.39,-0.039l0.38,-0.038l0.39,-0.037l0.39,-0.036l0.39,-0.036l0.39,-0.034l0.39,-0.033l0.39,-0.033l0.39,-0.031l0.39,-0.031l0.39,-0.029l0.39,-0.029l0.39,-0.028l0.39,-0.027l0.4,-0.026l0.39,-0.025l0.39,-0.024l0.39,-0.023l0.39,-0.022l0.4,-0.022l0.39,-0.02l0.39,-0.02l0.4,-0.018l0.39,-0.018l0.4,-0.016l0.39,-0.016l0.39,-0.015l0.4,-0.013l0.39,-0.013l0.4,-0.012l0.39,-0.011l0.4,-0.01l0.4,-0.009l0.39,-0.008l0.4,-0.007l0.4,-0.007l0.39,-0.005l0.4,-0.004l0.4,-0.004l0.39,-0.002l0.4,-0.001l0.4,-0.001l0.27,0.001Zm-0.66,4l-0.39,0.001l-0.38,0.002l-0.39,0.004l-0.39,0.004l-0.39,0.005l-0.38,0.006l-0.39,0.007l-0.39,0.008l-0.38,0.009l-0.39,0.01l-0.39,0.01l-0.38,0.012l-0.39,0.012l-0.38,0.014l-0.39,0.014l-0.38,0.015l-0.39,0.017l-0.38,0.017l-0.38,0.018l-0.39,0.019l-0.38,0.02l-0.38,0.02l-0.39,0.022l-0.38,0.023l-0.38,0.023l-0.38,0.025l-0.39,0.025l-0.38,0.026l-0.38,0.027l-0.38,0.028l-0.38,0.029l-0.38,0.03l-0.38,0.031l-0.38,0.032l-0.38,0.032l-0.38,0.034l-0.38,0.034l-0.38,0.035l-0.38,0.036l-0.38,0.037l-0.38,0.038l-0.38,0.039l-0.37,0.04l-0.38,0.04l-0.38,0.042l-0.38,0.042l-0.37,0.043l-0.38,0.044l-0.37,0.045l-0.38,0.046l-0.38,0.047l-0.37,0.048l-0.38,0.048l-0.37,0.05l-0.38,0.05l-0.37,0.051l-0.37,0.052l-0.38,0.053l-0.37,0.054l-0.37,0.054l-0.38,0.056l-0.37,0.056l-0.37,0.057l-0.37,0.059l-0.38,0.059l-0.37,0.059l-0.37,0.061l-0.37,0.062l-0.37,0.062l-0.37,0.063l-0.37,0.065l-0.37,0.065l-0.37,0.065l-0.37,0.067l-0.37,0.068l-0.37,0.068l-0.36,0.069l-0.37,0.071l-0.37,0.071l-0.37,0.071l-0.36,0.073l-0.37,0.074l-0.37,0.074l-0.36,0.075l-0.37,0.076l-0.36,0.077l-0.37,0.078l-0.36,0.079l-0.37,0.079l-0.36,0.08l-0.37,0.082l-0.36,0.081l-0.36,0.083l-0.36,0.084l-0.37,0.084l-0.36,0.086l-0.36,0.086l-0.36,0.087l-0.37,0.088l-0.35,0.088l-0.37,0.09l-0.36,0.09l-0.36,0.091l-0.36,0.092l-0.35,0.093l-0.36,0.093l-0.36,0.095l-0.36,0.095l-0.36,0.096l-0.36,0.097l-0.35,0.097l-0.36,0.099l-0.36,0.099l-0.35,0.1l-0.36,0.101l-0.35,0.102l-0.36,0.102l-0.35,0.104l-0.36,0.104l-0.35,0.105l-0.36,0.106l-0.35,0.106l-0.35,0.108l-0.36,0.108l-0.35,0.109l-0.35,0.11l-0.35,0.11l-0.35,0.112l-0.35,0.112l-0.36,0.113l-0.34,0.114l-0.35,0.114l-0.35,0.115l-0.35,0.117l-0.35,0.117l-0.35,0.117l-0.35,0.119l-0.35,0.119l-0.34,0.12l-0.35,0.121l-0.35,0.122l-0.34,0.122l-0.35,0.123l-0.35,0.125l-0.34,0.124l-0.35,0.126l-0.34,0.126l-0.34,0.127l-0.35,0.128l-0.34,0.129l-0.34,0.129l-0.35,0.131l-0.34,0.131l-0.34,0.131l-0.34,0.133l-0.34,0.133l-0.34,0.135l-0.34,0.134l-0.34,0.136l-0.34,0.136l-0.34,0.138l-0.34,0.137l-0.34,0.139l-0.34,0.14l-0.33,0.14l-0.34,0.141l-0.34,0.141l-0.33,0.143l-0.34,0.143l-0.34,0.144l-0.33,0.145l-0.33,0.145l-0.34,0.147l-0.33,0.146l-0.34,0.148l-0.33,0.149l-0.33,0.149l-0.33,0.15l-0.34,0.151l-0.33,0.151l-0.33,0.152l-0.33,0.153l-0.33,0.154l-0.33,0.154l-0.33,0.155l-0.33,0.156l-0.33,0.157l-0.32,0.157l-0.33,0.159l-0.33,0.158l-0.33,0.16l-0.32,0.16l-0.33,0.161l-0.32,0.162l-0.33,0.163l-0.32,0.163l-0.33,0.164l-0.32,0.164l-0.33,0.166l-0.32,0.166l-0.32,0.167l-0.32,0.167l-0.32,0.169l-0.33,0.169l-0.32,0.169l-0.32,0.171l-0.32,0.171l-0.32,0.172l-0.32,0.172l-0.31,0.173l-0.32,0.174l-0.32,0.175l-0.32,0.176l-0.31,0.176l-0.32,0.177l-0.32,0.177l-0.31,0.178l-0.32,0.179l-0.31,0.18l-0.32,0.18l-0.31,0.181l-0.31,0.182l-0.32,0.182l-0.31,0.183l-0.31,0.184l-0.31,0.185l-0.31,0.185l-0.31,0.186l-0.31,0.186l-0.31,0.188l-0.31,0.188l-0.31,0.188l-0.31,0.19l-0.31,0.19l-0.3,0.191l-0.31,0.191l-0.31,0.192l-0.3,0.193l-0.31,0.193l-0.3,0.194l-0.31,0.195l-0.3,0.196l-0.31,0.196l-0.3,0.197l-0.3,0.197l-0.3,0.198l-0.31,0.199l-0.3,0.2l-0.3,0.2l-0.3,0.201l-0.3,0.201l-0.3,0.203l-0.29,0.202l-0.3,0.204l-0.3,0.204l-0.3,0.205l-0.29,0.205l-0.3,0.207l-0.3,0.207l-0.29,0.207l-0.29,0.208l-0.3,0.209l-0.29,0.21l-0.3,0.21l-0.29,0.21l-0.29,0.212l-0.29,0.212l-0.29,0.212l-0.3,0.214l-0.29,0.214l-0.29,0.215l-0.28,0.215l-0.29,0.216l-0.29,0.216l-0.29,0.218l-0.29,0.218l-0.28,0.218l-0.29,0.219l-0.28,0.22l-0.29,0.221l-0.29,0.221l-0.28,0.221l-0.28,0.223l-0.29,0.223l-0.28,0.223l-0.28,0.225l-0.28,0.224l-0.28,0.226l-0.28,0.226l-0.28,0.227l-0.28,0.227l-0.28,0.228l-0.28,0.229l-0.28,0.229l-0.27,0.23l-0.28,0.23l-0.28,0.232l-0.27,0.231l-0.28,0.232l-0.27,0.234l-0.28,0.233l-0.27,0.234l-0.27,0.235l-0.28,0.236l-0.27,0.235l-0.27,0.237l-0.27,0.237l-0.27,0.238l-0.27,0.239l-0.27,0.239l-0.27,0.239l-0.26,0.24l-0.27,0.242l-0.27,0.241l-0.27,0.242l-0.26,0.243l-0.27,0.243l-0.26,0.244l-0.27,0.244l-0.26,0.245l-0.26,0.246l-0.27,0.246l-0.26,0.247l-0.26,0.247l-0.26,0.249l-0.26,0.248l-0.26,0.249l-0.26,0.25l-0.26,0.25l-0.26,0.251l-0.25,0.252l-0.26,0.252l-0.26,0.253l-0.25,0.253l-0.26,0.254l-0.25,0.254l-0.26,0.255l-0.25,0.256l-0.25,0.256l-0.25,0.256l-0.26,0.258l-0.25,0.257l-0.25,0.259l-0.25,0.259l-0.25,0.259l-0.25,0.261l-0.24,0.261l-0.25,0.261l-0.25,0.261l-0.24,0.263l-0.25,0.263l-0.25,0.263l-0.24,0.264l-0.24,0.265l-0.25,0.265l-0.24,0.266l-0.24,0.266l-0.25,0.267l-0.24,0.268l-0.24,0.267l-0.24,0.268l-0.24,0.269l-0.24,0.27l-0.23,0.271l-0.24,0.27l-0.24,0.271l-0.23,0.272l-0.24,0.272l-0.23,0.273l-0.24,0.274l-0.23,0.274l-0.24,0.274l-0.23,0.275l-0.23,0.276l-0.23,0.276l-0.23,0.276l-0.23,0.277l-0.23,0.278l-0.23,0.278l-0.23,0.28l-0.23,0.278l-0.22,0.28l-0.23,0.28l-0.23,0.281l-0.22,0.282l-0.22,0.282l-0.23,0.282l-0.22,0.283l-0.23,0.284l-0.22,0.284l-0.22,0.284l-0.22,0.285l-0.22,0.285l-0.22,0.287l-0.22,0.286l-0.22,0.287l-0.21,0.288l-0.22,0.288l-0.22,0.288l-0.21,0.289l-0.22,0.29l-0.21,0.29l-0.22,0.291l-0.21,0.291l-0.21,0.292l-0.21,0.292l-0.21,0.293l-0.21,0.293l-0.21,0.294l-0.21,0.293l-0.21,0.295l-0.21,0.295l-0.21,0.296l-0.2,0.296l-0.21,0.297l-0.2,0.297l-0.21,0.297l-0.2,0.298l-0.2,0.299l-0.21,0.299l-0.2,0.3l-0.2,0.3l-0.2,0.3l-0.2,0.301l-0.2,0.302l-0.2,0.302l-0.2,0.302l-0.19,0.303l-0.2,0.303l-0.2,0.304l-0.19,0.305l-0.2,0.304l-0.19,0.306l-0.19,0.306l-0.2,0.306l-0.19,0.307l-0.19,0.307l-0.19,0.307l-0.19,0.308l-0.19,0.31l-0.19,0.308l-0.18,0.309l-0.19,0.31l-0.19,0.311l-0.18,0.311l-0.19,0.311l-0.18,0.312l-0.18,0.312l-0.19,0.313l-0.18,0.314l-0.18,0.313l-0.18,0.314l-0.18,0.314l-0.18,0.315l-0.18,0.316l-0.18,0.316l-0.18,0.316l-0.17,0.317l-0.18,0.317l-0.17,0.318l-0.18,0.318l-0.17,0.319l-0.17,0.318l-0.18,0.32l-0.17,0.32l-0.17,0.321l-0.17,0.32l-0.17,0.321l-0.17,0.321l-0.17,0.322l-0.16,0.323l-0.17,0.323l-0.17,0.324l-0.16,0.323l-0.17,0.325l-0.16,0.324l-0.16,0.325l-0.16,0.325l-0.17,0.326l-0.16,0.327l-0.16,0.327l-0.16,0.327l-0.15,0.327l-0.16,0.328l-0.16,0.329l-0.16,0.328l-0.15,0.329l-0.16,0.331l-0.15,0.33l-0.16,0.331l-0.15,0.33l-0.15,0.332l-0.15,0.331l-0.15,0.332l-0.15,0.333l-0.15,0.332l-0.15,0.334l-0.15,0.334l-0.14,0.334l-0.15,0.335l-0.14,0.334l-0.15,0.336l-0.14,0.336l-0.15,0.336l-0.14,0.337l-0.14,0.336l-0.14,0.338l-0.14,0.338l-0.14,0.338l-0.14,0.338l-0.14,0.339l-0.17,0.43l-0.17,0.43l-0.17,0.431l-0.17,0.431l-0.17,0.432l-0.17,0.433l-0.17,0.433l-0.16,0.434l-0.16,0.434l-0.17,0.435l-0.16,0.436l-0.16,0.435l-0.16,0.437l-0.15,0.437l-0.16,0.438l-0.16,0.439l-0.15,0.439l-0.15,0.439l-0.15,0.44l-0.15,0.441l-0.15,0.441l-0.15,0.442l-0.15,0.443l-0.14,0.443l-0.15,0.443l-0.14,0.444l-0.14,0.444l-0.14,0.446l-0.14,0.446l-0.14,0.446l-0.13,0.446l-0.14,0.448l-0.13,0.448l-0.14,0.449l-0.13,0.449l-0.13,0.449l-0.13,0.449l-0.12,0.452l-0.13,0.451l-0.13,0.451l-0.12,0.453l-0.12,0.452l-0.12,0.453l-0.12,0.454l-0.12,0.455l-0.12,0.454l-0.11,0.456l-0.12,0.456l-0.11,0.456l-0.11,0.457l-0.11,0.458l-0.11,0.457l-0.11,0.459l-0.11,0.459l-0.1,0.459l-0.11,0.461l-0.1,0.46l-0.1,0.46l-0.1,0.462l-0.1,0.461l-0.1,0.463l-0.09,0.463l-0.1,0.463l-0.09,0.465l-0.09,0.464l-0.09,0.465l-0.09,0.465l-0.09,0.466l-0.09,0.466l-0.08,0.467l-0.09,0.468l-0.08,0.467l-0.08,0.468l-0.08,0.468l-0.07,0.47l-0.08,0.47l-0.08,0.469l-0.07,0.471l-0.07,0.471l-0.07,0.472l-0.08,0.471l-0.06,0.473l-0.07,0.473l-0.07,0.473l-0.06,0.474l-0.06,0.474l-0.06,0.474l-0.06,0.475l-0.06,0.476l-0.06,0.475l-0.05,0.477l-0.06,0.477l-0.05,0.477l-0.05,0.477l-0.05,0.479l-0.05,0.479l-0.05,0.478l-0.04,0.48l-0.05,0.48l-0.04,0.48l-0.04,0.48l-0.04,0.481l-0.04,0.482l-0.04,0.482l-0.03,0.482l-0.03,0.483l-0.04,0.483l-0.03,0.483l-0.03,0.484l-0.02,0.485l-0.03,0.484l-0.03,0.485l-0.02,0.486l-0.02,0.487l-0.02,0.486l-0.02,0.486l-0.02,0.487l-0.01,0.488l-0.02,0.488l-0.01,0.488l-0.01,0.489l-0.01,0.489l-0.01,0.489l-0.01,0.49l0,0.49l-0.01,0.491l0,1.474l0.01,0.244l0,0.247l0.01,0.243l0.02,0.488l0.02,0.486l0.02,0.243l0.01,0.242l0.04,0.482l0.02,0.242l0.02,0.239l0.03,0.24l0.02,0.239l0.06,0.478l0.06,0.474l0.03,0.238l0.03,0.237l0.04,0.235l0.04,0.237l0.03,0.235l0.04,0.234l0.04,0.235l0.05,0.233l0.04,0.232l0.05,0.233l0.04,0.232l0.1,0.464l0.05,0.23l0.05,0.229l0.06,0.231l0.05,0.228l0.06,0.228l0.06,0.229l0.06,0.226l0.12,0.454l0.06,0.224l0.07,0.227l0.06,0.224l0.14,0.446l0.07,0.224l0.14,0.444l0.08,0.22l0.07,0.221l0.24,0.657l0.08,0.218l0.08,0.217l0.08,0.216l0.08,0.217l0.09,0.216l0.09,0.214l0.36,0.852l0.09,0.212l0.1,0.21l0.09,0.21l0.1,0.21l0.1,0.207l0.1,0.209l0.1,0.207l0.2,0.412l0.11,0.205l0.1,0.205l0.11,0.204l0.11,0.203l0.11,0.202l0.1,0.201l0.12,0.201l0.11,0.2l0.11,0.199l0.12,0.199l0.12,0.198l0.11,0.197l0.24,0.392l0.24,0.388l0.13,0.194l0.12,0.192l0.12,0.191l0.13,0.191l0.13,0.19l0.26,0.378l0.26,0.374l0.13,0.185l0.14,0.185l0.13,0.185l0.14,0.182l0.13,0.183l0.15,0.183l0.13,0.18l0.14,0.18l0.15,0.179l0.14,0.177l0.14,0.179l0.15,0.176l0.14,0.176l0.3,0.348l0.15,0.173l0.15,0.171l0.15,0.172l0.15,0.17l0.15,0.169l0.16,0.168l0.15,0.167l0.16,0.167l0.15,0.166l0.32,0.328l0.16,0.163l0.16,0.161l0.16,0.16l0.16,0.161l0.17,0.159l0.16,0.157l0.17,0.158l0.16,0.155l0.17,0.155l0.17,0.154l0.17,0.153l0.17,0.152l0.34,0.3l0.18,0.149l0.17,0.148l0.17,0.147l0.18,0.146l0.18,0.144l0.17,0.144l0.18,0.143l0.36,0.282l0.18,0.139l0.18,0.138l0.19,0.138l0.18,0.137l0.18,0.135l0.19,0.133l0.18,0.133l0.19,0.132l0.19,0.131l0.19,0.13l0.19,0.128l0.18,0.128l0.2,0.127l0.19,0.125l0.19,0.124l0.19,0.123l0.2,0.122l0.19,0.12l0.2,0.12l0.19,0.118l0.2,0.118l0.2,0.116l0.2,0.115l0.2,0.114l0.2,0.112l0.4,0.222l0.2,0.109l0.2,0.108l0.21,0.107l0.2,0.105l0.21,0.105l0.2,0.103l0.42,0.202l0.21,0.1l0.2,0.097l0.21,0.098l0.42,0.19l0.21,0.093l0.22,0.092l0.21,0.091l0.21,0.089l0.22,0.088l0.21,0.087l0.22,0.086l0.21,0.085l0.44,0.164l0.21,0.081l0.22,0.079l0.22,0.078l0.22,0.077l0.22,0.075l0.22,0.074l0.22,0.073l0.23,0.071l0.22,0.07l0.22,0.069l0.23,0.067l0.22,0.066l0.23,0.065l0.22,0.063l0.23,0.062l0.22,0.061l0.23,0.059l0.23,0.058l0.23,0.056l0.23,0.055l0.23,0.054l0.23,0.052l0.23,0.051l0.23,0.05l0.23,0.048l0.23,0.047l0.23,0.045l0.24,0.044l0.23,0.043l0.24,0.041l0.23,0.039l0.24,0.038l0.23,0.037l0.24,0.036l0.23,0.033l0.24,0.033l0.24,0.031l0.24,0.029l0.23,0.028l0.24,0.027l0.24,0.025l0.48,0.046l0.24,0.02l0.24,0.019l0.25,0.018l0.24,0.016l0.24,0.015l0.24,0.013l0.25,0.011l0.24,0.01l0.24,0.009l0.25,0.007l0.24,0.005l0.25,0.004l0.24,0.002l0.25,0.001l0.39,0l0.39,-0.002l0.38,-0.002l0.39,-0.003l0.39,-0.005l0.39,-0.005l0.38,-0.006l0.39,-0.007l0.39,-0.008l0.38,-0.008l0.39,-0.01l0.39,-0.011l0.38,-0.012l0.39,-0.012l0.38,-0.014l0.39,-0.014l0.38,-0.015l0.39,-0.016l0.38,-0.018l0.38,-0.018l0.39,-0.019l0.38,-0.019l0.39,-0.021l0.38,-0.022l0.38,-0.022l0.38,-0.024l0.38,-0.024l0.39,-0.026l0.38,-0.026l0.38,-0.027l0.38,-0.028l0.38,-0.029l0.38,-0.03l0.38,-0.031l0.38,-0.031l0.38,-0.033l0.38,-0.033l0.38,-0.035l0.38,-0.035l0.38,-0.036l0.38,-0.037l0.38,-0.038l0.38,-0.039l0.37,-0.039l0.38,-0.041l0.38,-0.041l0.38,-0.043l0.37,-0.043l0.38,-0.044l0.38,-0.045l0.37,-0.046l0.38,-0.047l0.37,-0.047l0.38,-0.049l0.37,-0.049l0.38,-0.051l0.37,-0.051l0.38,-0.052l0.37,-0.053l0.37,-0.053l0.38,-0.055l0.37,-0.056l0.37,-0.056l0.37,-0.057l0.38,-0.058l0.37,-0.059l0.37,-0.06l0.37,-0.061l0.37,-0.061l0.37,-0.063l0.37,-0.063l0.37,-0.064l0.37,-0.065l0.37,-0.066l0.37,-0.067l0.37,-0.068l0.37,-0.068l0.36,-0.069l0.37,-0.07l0.37,-0.071l0.37,-0.072l0.36,-0.073l0.37,-0.073l0.37,-0.075l0.36,-0.075l0.37,-0.076l0.36,-0.077l0.37,-0.078l0.36,-0.078l0.37,-0.08l0.36,-0.08l0.36,-0.081l0.37,-0.082l0.36,-0.083l0.37,-0.084l0.36,-0.084l0.36,-0.085l0.36,-0.087l0.36,-0.086l0.37,-0.088l0.35,-0.089l0.37,-0.089l0.36,-0.091l0.36,-0.091l0.36,-0.092l0.36,-0.092l0.35,-0.094l0.36,-0.094l0.36,-0.096l0.36,-0.096l0.36,-0.096l0.35,-0.098l0.36,-0.099l0.36,-0.099l0.35,-0.1l0.36,-0.101l0.35,-0.102l0.36,-0.102l0.35,-0.104l0.36,-0.104l0.35,-0.105l0.36,-0.105l0.35,-0.107l0.35,-0.107l0.36,-0.109l0.35,-0.109l0.35,-0.109l0.35,-0.111l0.35,-0.111l0.36,-0.113l0.35,-0.112l0.34,-0.114l0.36,-0.115l0.34,-0.115l0.35,-0.116l0.35,-0.117l0.35,-0.118l0.35,-0.119l0.35,-0.119l0.35,-0.12l0.34,-0.121l0.35,-0.122l0.35,-0.122l0.34,-0.123l0.35,-0.124l0.34,-0.125l0.35,-0.126l0.34,-0.126l0.34,-0.127l0.35,-0.128l0.34,-0.129l0.34,-0.129l0.35,-0.131l0.34,-0.13l0.34,-0.132l0.34,-0.133l0.34,-0.133l0.34,-0.134l0.34,-0.135l0.34,-0.136l0.34,-0.136l0.34,-0.137l0.34,-0.138l0.34,-0.139l0.34,-0.139l0.33,-0.14l0.34,-0.141l0.34,-0.142l0.33,-0.143l0.34,-0.143l0.34,-0.144l0.33,-0.144l0.34,-0.146l0.33,-0.146l0.33,-0.147l0.34,-0.148l0.33,-0.149l0.33,-0.149l0.34,-0.15l0.33,-0.15l0.33,-0.152l0.33,-0.152l0.33,-0.153l0.33,-0.154l0.33,-0.154l0.33,-0.155l0.33,-0.156l0.33,-0.157l0.32,-0.157l0.33,-0.158l0.33,-0.159l0.33,-0.16l0.32,-0.16l0.33,-0.161l0.32,-0.162l0.33,-0.162l0.32,-0.164l0.33,-0.163l0.32,-0.165l0.33,-0.166l0.32,-0.166l0.32,-0.166l0.32,-0.168l0.32,-0.168l0.33,-0.169l0.32,-0.17l0.32,-0.17l0.32,-0.172l0.32,-0.171l0.32,-0.173l0.31,-0.173l0.32,-0.174l0.32,-0.175l0.32,-0.175l0.31,-0.177l0.32,-0.176l0.32,-0.178l0.31,-0.178l0.32,-0.179l0.31,-0.18l0.32,-0.18l0.31,-0.181l0.31,-0.182l0.32,-0.182l0.31,-0.183l0.31,-0.184l0.31,-0.185l0.31,-0.185l0.31,-0.186l0.31,-0.186l0.31,-0.187l0.31,-0.188l0.31,-0.189l0.31,-0.189l0.31,-0.191l0.3,-0.19l0.31,-0.192l0.31,-0.192l0.3,-0.193l0.31,-0.193l0.3,-0.194l0.31,-0.195l0.3,-0.195l0.31,-0.197l0.3,-0.196l0.3,-0.198l0.3,-0.198l0.31,-0.199l0.3,-0.2l0.3,-0.199l0.3,-0.201l0.3,-0.202l0.3,-0.202l0.29,-0.203l0.3,-0.204l0.3,-0.204l0.3,-0.205l0.29,-0.205l0.3,-0.206l0.3,-0.207l0.29,-0.208l0.3,-0.208l0.29,-0.209l0.29,-0.209l0.3,-0.21l0.29,-0.211l0.29,-0.212l0.29,-0.212l0.29,-0.212l0.3,-0.214l0.29,-0.214l0.29,-0.214l0.29,-0.215l0.28,-0.217l0.29,-0.216l0.29,-0.218l0.29,-0.218l0.28,-0.218l0.29,-0.219l0.29,-0.22l0.28,-0.22l0.29,-0.221l0.28,-0.222l0.28,-0.222l0.29,-0.224l0.28,-0.223l0.28,-0.224l0.28,-0.225l0.28,-0.226l0.28,-0.226l0.28,-0.227l0.28,-0.227l0.28,-0.228l0.28,-0.229l0.28,-0.229l0.28,-0.23l0.27,-0.23l0.28,-0.232l0.27,-0.231l0.28,-0.232l0.27,-0.233l0.28,-0.234l0.27,-0.234l0.27,-0.235l0.28,-0.235l0.27,-0.236l0.27,-0.237l0.27,-0.237l0.27,-0.238l0.27,-0.238l0.27,-0.24l0.27,-0.239l0.26,-0.24l0.27,-0.241l0.27,-0.242l0.27,-0.242l0.26,-0.242l0.27,-0.244l0.26,-0.244l0.27,-0.244l0.26,-0.245l0.26,-0.246l0.27,-0.246l0.26,-0.247l0.26,-0.247l0.26,-0.248l0.26,-0.249l0.26,-0.249l0.26,-0.25l0.26,-0.25l0.26,-0.251l0.25,-0.251l0.26,-0.253l0.26,-0.252l0.25,-0.253l0.26,-0.255l0.25,-0.254l0.26,-0.255l0.25,-0.256l0.25,-0.256l0.25,-0.256l0.26,-0.257l0.25,-0.258l0.25,-0.259l0.25,-0.259l0.25,-0.259l0.25,-0.26l0.24,-0.261l0.25,-0.261l0.25,-0.262l0.24,-0.262l0.25,-0.264l0.25,-0.263l0.24,-0.264l0.24,-0.265l0.25,-0.265l0.24,-0.266l0.24,-0.266l0.25,-0.267l0.24,-0.267l0.24,-0.268l0.24,-0.268l0.24,-0.269l0.24,-0.27l0.23,-0.27l0.24,-0.271l0.24,-0.271l0.23,-0.272l0.24,-0.272l0.23,-0.273l0.24,-0.273l0.23,-0.274l0.24,-0.275l0.23,-0.275l0.23,-0.275l0.23,-0.277l0.23,-0.276l0.23,-0.277l0.23,-0.278l0.23,-0.278l0.23,-0.279l0.23,-0.279l0.22,-0.28l0.23,-0.28l0.23,-0.281l0.22,-0.282l0.23,-0.281l0.22,-0.283l0.22,-0.282l0.23,-0.284l0.22,-0.284l0.22,-0.284l0.22,-0.286l0.22,-0.285l0.22,-0.286l0.22,-0.287l0.22,-0.287l0.21,-0.288l0.22,-0.288l0.22,-0.288l0.21,-0.289l0.22,-0.29l0.21,-0.29l0.22,-0.291l0.21,-0.291l0.21,-0.291l0.21,-0.293l0.21,-0.292l0.21,-0.294l0.21,-0.293l0.21,-0.294l0.21,-0.295l0.21,-0.295l0.21,-0.295l0.2,-0.297l0.21,-0.296l0.2,-0.298l0.21,-0.297l0.2,-0.298l0.21,-0.299l0.2,-0.299l0.2,-0.299l0.2,-0.3l0.2,-0.301l0.2,-0.301l0.2,-0.301l0.2,-0.303l0.2,-0.302l0.19,-0.303l0.2,-0.303l0.2,-0.304l0.19,-0.305l0.2,-0.304l0.19,-0.306l0.19,-0.305l0.2,-0.306l0.19,-0.307l0.19,-0.308l0.19,-0.306l0.19,-0.309l0.19,-0.309l0.19,-0.309l0.18,-0.309l0.19,-0.31l0.19,-0.311l0.18,-0.311l0.19,-0.311l0.18,-0.312l0.19,-0.312l0.18,-0.313l0.18,-0.313l0.18,-0.314l0.18,-0.313l0.18,-0.315l0.18,-0.315l0.18,-0.316l0.18,-0.315l0.18,-0.316l0.17,-0.318l0.18,-0.317l0.17,-0.318l0.18,-0.317l0.17,-0.319l0.18,-0.319l0.17,-0.319l0.17,-0.321l0.17,-0.32l0.17,-0.321l0.17,-0.321l0.17,-0.321l0.17,-0.322l0.16,-0.323l0.17,-0.323l0.17,-0.323l0.16,-0.324l0.17,-0.325l0.16,-0.324l0.16,-0.325l0.16,-0.325l0.17,-0.326l0.16,-0.327l0.16,-0.327l0.16,-0.327l0.16,-0.327l0.15,-0.328l0.16,-0.329l0.16,-0.328l0.15,-0.329l0.16,-0.33l0.15,-0.331l0.16,-0.33l0.15,-0.33l0.15,-0.332l0.15,-0.332l0.15,-0.332l0.15,-0.333l0.15,-0.332l0.15,-0.334l0.15,-0.334l0.14,-0.334l0.15,-0.335l0.14,-0.334l0.15,-0.335l0.14,-0.337l0.15,-0.336l0.14,-0.336l0.14,-0.337l0.14,-0.337l0.14,-0.339l0.14,-0.338l0.14,-0.338l0.14,-0.339l0.17,-0.429l0.17,-0.43l0.17,-0.432l0.17,-0.431l0.17,-0.432l0.17,-0.433l0.17,-0.433l0.16,-0.433l0.16,-0.435l0.17,-0.434l0.16,-0.436l0.16,-0.436l0.16,-0.436l0.15,-0.438l0.16,-0.438l0.16,-0.438l0.15,-0.439l0.15,-0.44l0.15,-0.44l0.15,-0.441l0.15,-0.44l0.15,-0.442l0.15,-0.443l0.14,-0.443l0.15,-0.444l0.14,-0.443l0.14,-0.445l0.14,-0.445l0.14,-0.446l0.14,-0.447l0.13,-0.446l0.14,-0.448l0.13,-0.448l0.14,-0.448l0.13,-0.449l0.13,-0.45l0.13,-0.449l0.13,-0.452l0.12,-0.45l0.13,-0.452l0.12,-0.453l0.12,-0.452l0.12,-0.453l0.12,-0.454l0.12,-0.455l0.12,-0.454l0.11,-0.456l0.12,-0.456l0.11,-0.456l0.11,-0.457l0.11,-0.458l0.11,-0.457l0.11,-0.458l0.11,-0.46l0.1,-0.459l0.11,-0.46l0.1,-0.46l0.1,-0.461l0.1,-0.461l0.1,-0.462l0.1,-0.463l0.09,-0.463l0.1,-0.463l0.09,-0.465l0.09,-0.464l0.09,-0.465l0.09,-0.465l0.09,-0.466l0.09,-0.466l0.08,-0.466l0.09,-0.468l0.08,-0.468l0.08,-0.468l0.08,-0.468l0.07,-0.47l0.08,-0.47l0.08,-0.469l0.07,-0.47l0.07,-0.472l0.07,-0.472l0.08,-0.471l0.06,-0.472l0.07,-0.473l0.06,-0.474l0.07,-0.473l0.06,-0.475l0.06,-0.474l0.06,-0.475l0.06,-0.476l0.06,-0.475l0.05,-0.477l0.06,-0.477l0.05,-0.477l0.05,-0.477l0.05,-0.479l0.05,-0.478l0.05,-0.479l0.04,-0.479l0.05,-0.481l0.04,-0.479l0.04,-0.481l0.04,-0.481l0.04,-0.482l0.04,-0.481l0.03,-0.483l0.03,-0.483l0.04,-0.483l0.03,-0.483l0.03,-0.484l0.02,-0.485l0.03,-0.484l0.03,-0.485l0.02,-0.486l0.02,-0.486l0.02,-0.487l0.02,-0.486l0.02,-0.487l0.01,-0.487l0.02,-0.489l0.01,-0.488l0.01,-0.488l0.01,-0.489l0.01,-0.49l0.01,-0.49l0,-0.49l0.01,-0.491l0,-0.491l0,-0.489l0,-0.248l0,-0.245l-0.01,-0.245l0,-0.247l-0.01,-0.243l-0.01,-0.243l-0.01,-0.244l-0.01,-0.244l-0.01,-0.243l-0.02,-0.243l-0.01,-0.242l-0.02,-0.24l-0.02,-0.242l-0.02,-0.242l-0.02,-0.239l-0.03,-0.239l-0.02,-0.24l-0.03,-0.239l-0.03,-0.239l-0.02,-0.237l-0.04,-0.237l-0.03,-0.238l-0.03,-0.236l-0.04,-0.236l-0.03,-0.237l-0.04,-0.234l-0.04,-0.235l-0.04,-0.234l-0.05,-0.234l-0.04,-0.232l-0.04,-0.232l-0.05,-0.233l-0.05,-0.232l-0.05,-0.232l-0.05,-0.23l-0.05,-0.229l-0.06,-0.231l-0.05,-0.228l-0.06,-0.228l-0.06,-0.229l-0.06,-0.226l-0.06,-0.227l-0.06,-0.227l-0.06,-0.224l-0.07,-0.226l-0.06,-0.225l-0.07,-0.223l-0.07,-0.223l-0.07,-0.224l-0.07,-0.222l-0.07,-0.221l-0.08,-0.221l-0.07,-0.22l-0.08,-0.22l-0.08,-0.219l-0.07,-0.219l-0.09,-0.217l-0.08,-0.217l-0.08,-0.217l-0.08,-0.216l-0.09,-0.216l-0.09,-0.214l-0.09,-0.214l-0.09,-0.213l-0.09,-0.213l-0.09,-0.212l-0.09,-0.212l-0.1,-0.21l-0.09,-0.211l-0.1,-0.209l-0.1,-0.208l-0.1,-0.208l-0.1,-0.208l-0.1,-0.206l-0.1,-0.206l-0.11,-0.205l-0.1,-0.204l-0.11,-0.205l-0.11,-0.202l-0.11,-0.202l-0.11,-0.202l-0.11,-0.201l-0.11,-0.2l-0.11,-0.199l-0.12,-0.199l-0.11,-0.198l-0.12,-0.197l-0.12,-0.196l-0.12,-0.196l-0.12,-0.194l-0.12,-0.194l-0.13,-0.193l-0.12,-0.192l-0.12,-0.192l-0.13,-0.191l-0.13,-0.189l-0.13,-0.19l-0.13,-0.189l-0.13,-0.187l-0.13,-0.187l-0.13,-0.185l-0.14,-0.185l-0.13,-0.185l-0.14,-0.182l-0.13,-0.183l-0.14,-0.182l-0.14,-0.181l-0.14,-0.18l-0.15,-0.179l-0.14,-0.177l-0.14,-0.178l-0.15,-0.177l-0.14,-0.175l-0.15,-0.175l-0.15,-0.174l-0.15,-0.172l-0.15,-0.172l-0.15,-0.172l-0.15,-0.17l-0.15,-0.169l-0.16,-0.168l-0.15,-0.167l-0.16,-0.167l-0.15,-0.166l-0.16,-0.164l-0.16,-0.163l-0.16,-0.163l-0.16,-0.162l-0.16,-0.16l-0.16,-0.161l-0.17,-0.158l-0.16,-0.158l-0.17,-0.157l-0.16,-0.156l-0.17,-0.154l-0.17,-0.154l-0.17,-0.154l-0.17,-0.152l-0.17,-0.15l-0.17,-0.15l-0.18,-0.149l-0.17,-0.148l-0.17,-0.147l-0.18,-0.145l-0.18,-0.145l-0.17,-0.144l-0.18,-0.142l-0.18,-0.142l-0.18,-0.14l-0.18,-0.14l-0.18,-0.138l-0.18,-0.138l-0.19,-0.136l-0.18,-0.135l-0.19,-0.134l-0.18,-0.133l-0.19,-0.132l-0.19,-0.131l-0.19,-0.13l-0.19,-0.128l-0.19,-0.128l-0.19,-0.126l-0.19,-0.125l-0.19,-0.124l-0.19,-0.123l-0.2,-0.122l-0.19,-0.121l-0.2,-0.12l-0.19,-0.118l-0.2,-0.117l-0.2,-0.117l-0.2,-0.115l-0.2,-0.113l-0.2,-0.113l-0.2,-0.111l-0.2,-0.111l-0.2,-0.109l-0.2,-0.108l-0.21,-0.106l-0.2,-0.106l-0.21,-0.104l-0.2,-0.103l-0.21,-0.102l-0.21,-0.101l-0.21,-0.099l-0.2,-0.098l-0.21,-0.097l-0.21,-0.096l-0.21,-0.095l-0.21,-0.093l-0.22,-0.092l-0.21,-0.09l-0.21,-0.09l-0.22,-0.088l-0.21,-0.087l-0.22,-0.086l-0.21,-0.084l-0.22,-0.083l-0.22,-0.082l-0.21,-0.081l-0.22,-0.079l-0.22,-0.078l-0.22,-0.076l-0.22,-0.076l-0.22,-0.074l-0.22,-0.072l-0.23,-0.072l-0.22,-0.07l-0.22,-0.068l-0.23,-0.068l-0.22,-0.066l-0.23,-0.064l-0.22,-0.064l-0.23,-0.062l-0.22,-0.06l-0.23,-0.06l-0.23,-0.058l-0.23,-0.056l-0.23,-0.055l-0.23,-0.054l-0.23,-0.052l-0.23,-0.051l-0.23,-0.05l-0.23,-0.048l-0.23,-0.047l-0.23,-0.045l-0.24,-0.044l-0.23,-0.042l-0.23,-0.041l-0.24,-0.04l-0.23,-0.038l-0.24,-0.037l-0.24,-0.035l-0.23,-0.034l-0.24,-0.033l-0.24,-0.03l-0.24,-0.03l-0.23,-0.028l-0.24,-0.027l-0.24,-0.025l-0.24,-0.023l-0.24,-0.022l-0.24,-0.021l-0.24,-0.019l-0.25,-0.018l-0.24,-0.016l-0.24,-0.014l-0.24,-0.013l-0.25,-0.012l-0.24,-0.01l-0.24,-0.008l-0.25,-0.007l-0.24,-0.006l-0.25,-0.004l-0.24,-0.002l-0.25,-0.001l-0.39,0.001Z" style="fill:#fff;"/><path id="path3773.2e..-0.2e..-4.2e..-8.2e..-8.2e..-7.2e..-9.2e..-0.2e..-03.2e..-8.2e..-9" d="M75.15,33.001l0.16,0.003l0.15,0.005l0.16,0.007l0.15,0.008l0.15,0.011l0.15,0.013l0.16,0.014l0.15,0.016l0.15,0.018l0.15,0.02l0.15,0.022l0.14,0.024l0.15,0.025l0.15,0.028l0.15,0.029l0.14,0.031l0.15,0.032l0.14,0.035l0.15,0.036l0.14,0.038l0.14,0.04l0.15,0.041l0.14,0.043l0.14,0.045l0.14,0.046l0.14,0.048l0.14,0.05l0.13,0.051l0.14,0.053l0.14,0.055l0.13,0.056l0.14,0.058l0.13,0.059l0.13,0.061l0.13,0.062l0.13,0.064l0.13,0.066l0.13,0.067l0.13,0.069l0.13,0.07l0.13,0.071l0.12,0.073l0.12,0.074l0.13,0.076l0.12,0.078l0.12,0.079l0.12,0.08l0.12,0.081l0.12,0.083l0.12,0.084l0.11,0.086l0.12,0.087l0.22,0.178l0.11,0.091l0.11,0.092l0.12,0.095l0.1,0.094l0.11,0.095l0.1,0.098l0.11,0.1l0.1,0.099l0.11,0.101l0.1,0.101l0.1,0.104l0.1,0.106l0.09,0.106l0.1,0.106l0.09,0.108l0.1,0.11l0.09,0.109l0.09,0.113l0.09,0.112l0.09,0.114l0.09,0.116l0.08,0.116l0.09,0.116l0.16,0.236l0.08,0.121l0.08,0.122l0.08,0.123l0.07,0.122l0.08,0.125l0.14,0.25l0.07,0.129l0.07,0.128l0.06,0.127l0.14,0.262l0.06,0.131l0.06,0.134l0.06,0.132l0.06,0.134l0.05,0.136l0.06,0.137l0.05,0.135l0.05,0.136l0.05,0.139l0.05,0.142l0.05,0.14l0.04,0.139l0.04,0.141l0.04,0.142l0.04,0.143l0.04,0.145l0.04,0.144l0.03,0.144l0.04,0.147l0.03,0.148l0.03,0.146l0.02,0.146l0.03,0.149l0.02,0.147l0.02,0.15l0.02,0.152l0.02,0.148l0.02,0.151l0.01,0.152l0.02,0.152l0.01,0.154l0,0.15l0.01,0.153l0.01,0.157l0,0.829l-0.01,0.261l0,0.26l-0.01,0.259l-0.01,0.259l-0.01,0.258l-0.01,0.259l-0.02,0.258l-0.01,0.258l-0.02,0.257l-0.02,0.256l-0.02,0.258l-0.02,0.255l-0.02,0.255l-0.02,0.254l-0.03,0.254l-0.03,0.255l-0.03,0.255l-0.03,0.252l-0.03,0.252l-0.03,0.253l-0.04,0.251l-0.04,0.251l-0.03,0.252l-0.04,0.249l-0.05,0.25l-0.04,0.249l-0.04,0.249l-0.05,0.248l-0.04,0.248l-0.05,0.247l-0.05,0.247l-0.05,0.246l-0.06,0.245l-0.05,0.244l-0.06,0.245l-0.05,0.244l-0.06,0.244l-0.06,0.242l-0.06,0.242l-0.07,0.242l-0.06,0.242l-0.07,0.24l-0.06,0.24l-0.07,0.24l-0.07,0.238l-0.07,0.238l-0.07,0.237l-0.08,0.237l-0.07,0.238l-0.08,0.235l-0.07,0.235l-0.08,0.235l-0.08,0.233l-0.09,0.234l-0.08,0.233l-0.08,0.232l-0.09,0.232l-0.08,0.23l-0.09,0.23l-0.09,0.23l-0.09,0.229l-0.09,0.228l-0.08,0.18l-0.07,0.18l-0.08,0.179l-0.07,0.179l-0.08,0.179l-0.08,0.177l-0.08,0.178l-0.07,0.178l-0.08,0.176l-0.08,0.175l-0.09,0.178l-0.08,0.175l-0.08,0.174l-0.08,0.175l-0.09,0.175l-0.09,0.172l-0.08,0.174l-0.09,0.173l-0.09,0.171l-0.08,0.173l-0.09,0.171l-0.09,0.17l-0.09,0.171l-0.1,0.171l-0.09,0.169l-0.09,0.168l-0.09,0.169l-0.1,0.169l-0.09,0.168l-0.1,0.166l-0.09,0.166l-0.1,0.167l-0.1,0.165l-0.1,0.166l-0.1,0.165l-0.1,0.164l-0.1,0.163l-0.1,0.162l-0.1,0.164l-0.11,0.163l-0.1,0.161l-0.11,0.161l-0.1,0.16l-0.11,0.16l-0.1,0.16l-0.11,0.16l-0.11,0.158l-0.11,0.158l-0.11,0.157l-0.11,0.157l-0.11,0.157l-0.11,0.156l-0.11,0.155l-0.12,0.156l-0.11,0.153l-0.11,0.153l-0.12,0.155l-0.12,0.152l-0.11,0.152l-0.12,0.152l-0.12,0.152l-0.12,0.15l-0.12,0.149l-0.12,0.149l-0.12,0.15l-0.12,0.148l-0.12,0.147l-0.12,0.148l-0.12,0.147l-0.13,0.145l-0.12,0.145l-0.13,0.146l-0.12,0.144l-0.13,0.143l-0.13,0.143l-0.12,0.143l-0.13,0.142l-0.13,0.142l-0.13,0.141l-0.13,0.14l-0.13,0.139l-0.13,0.139l-0.14,0.138l-0.13,0.138l-0.13,0.138l-0.14,0.136l-0.13,0.136l-0.14,0.136l-0.13,0.134l-0.14,0.134l-0.13,0.134l-0.14,0.133l-0.14,0.132l-0.14,0.132l-0.14,0.131l-0.14,0.13l-0.14,0.129l-0.14,0.13l-0.14,0.128l-0.14,0.129l-0.15,0.126l-0.14,0.127l-0.14,0.126l-0.15,0.125l-0.14,0.125l-0.15,0.124l-0.15,0.123l-0.14,0.123l-0.15,0.122l-0.15,0.121l-0.15,0.121l-0.15,0.12l-0.15,0.119l-0.15,0.119l-0.15,0.118l-0.15,0.117l-0.15,0.117l-0.15,0.116l-0.16,0.115l-0.15,0.115l-0.15,0.114l-0.16,0.113l-0.15,0.113l-0.16,0.111l-0.16,0.111l-0.15,0.111l-0.16,0.11l-0.16,0.108l-0.16,0.109l-0.16,0.108l-0.15,0.107l-0.16,0.106l-0.17,0.106l-0.16,0.105l-0.16,0.103l-0.16,0.104l-0.16,0.103l-0.16,0.101l-0.17,0.102l-0.16,0.1l-0.17,0.1l-0.16,0.099l-0.17,0.098l-0.16,0.098l-0.17,0.097l-0.17,0.096l-0.17,0.095l-0.16,0.095l-0.17,0.093l-0.17,0.094l-0.17,0.092l-0.17,0.092l-0.17,0.09l-0.17,0.09l-0.17,0.09l-0.17,0.088l-0.18,0.088l-0.17,0.087l-0.17,0.086l-0.17,0.086l-0.18,0.084l-0.17,0.084l-0.18,0.083l-0.17,0.083l-0.18,0.082l-0.17,0.08l-0.18,0.08l-0.18,0.079l-0.18,0.079l-0.17,0.077l-0.18,0.077l-0.18,0.076l-0.18,0.075l-0.18,0.075l-0.18,0.073l-0.18,0.073l-0.18,0.072l-0.18,0.071l-0.18,0.07l-0.19,0.07l-0.18,0.068l-0.18,0.068l-0.18,0.067l-0.19,0.066l-0.18,0.066l-0.19,0.064l-0.18,0.064l-0.19,0.063l-0.18,0.062l-0.19,0.061l-0.18,0.06l-0.19,0.06l-0.19,0.058l-0.19,0.058l-0.18,0.057l-0.19,0.056l-0.19,0.055l-0.19,0.055l-0.19,0.053l-0.19,0.053l-0.19,0.051l-0.19,0.051l-0.19,0.05l-0.19,0.049l-0.19,0.049l-0.2,0.047l-0.19,0.046l-0.19,0.046l-0.19,0.045l-0.2,0.043l-0.19,0.043l-0.19,0.042l-0.2,0.042l-0.19,0.04l-0.2,0.039l-0.19,0.039l-0.2,0.037l-0.19,0.037l-0.2,0.035l-0.2,0.035l-0.19,0.034l-0.2,0.033l-0.2,0.032l-0.2,0.031l-0.19,0.031l-0.2,0.029l-0.2,0.028l-0.2,0.028l-0.2,0.026l-0.2,0.026l-0.2,0.024l-0.2,0.024l-0.2,0.023l-0.2,0.022l-0.2,0.02l-0.2,0.02l-0.2,0.019l-0.21,0.018l-0.2,0.017l-0.2,0.016l-0.2,0.016l-0.2,0.014l-0.21,0.013l-0.2,0.012l-0.2,0.011l-0.21,0.011l-0.2,0.009l-0.21,0.009l-0.2,0.007l-0.21,0.006l-0.2,0.006l-0.21,0.004l-0.2,0.004l-0.21,0.002l-0.2,0.002l-0.21,0l-0.15,-0.001l-0.16,-0.003l-0.15,-0.005l-0.16,-0.006l-0.15,-0.009l-0.15,-0.011l-0.15,-0.012l-0.15,-0.015l-0.15,-0.016l-0.16,-0.018l-0.15,-0.02l-0.15,-0.022l-0.14,-0.024l-0.15,-0.025l-0.15,-0.027l-0.15,-0.03l-0.14,-0.03l-0.15,-0.033l-0.14,-0.035l-0.15,-0.036l-0.14,-0.038l-0.14,-0.039l-0.15,-0.041l-0.14,-0.044l-0.14,-0.045l-0.14,-0.046l-0.14,-0.048l-0.14,-0.05l-0.13,-0.051l-0.14,-0.053l-0.14,-0.055l-0.13,-0.056l-0.14,-0.058l-0.13,-0.059l-0.13,-0.061l-0.13,-0.062l-0.13,-0.064l-0.13,-0.066l-0.13,-0.067l-0.13,-0.068l-0.13,-0.07l-0.12,-0.072l-0.13,-0.073l-0.12,-0.074l-0.13,-0.076l-0.12,-0.078l-0.12,-0.079l-0.12,-0.08l-0.12,-0.081l-0.12,-0.082l-0.12,-0.085l-0.11,-0.086l-0.12,-0.087l-0.11,-0.089l-0.11,-0.088l-0.11,-0.091l-0.11,-0.093l-0.12,-0.094l-0.1,-0.095l-0.11,-0.095l-0.1,-0.098l-0.11,-0.099l-0.1,-0.1l-0.1,-0.1l-0.11,-0.102l-0.1,-0.104l-0.09,-0.105l-0.1,-0.107l-0.1,-0.106l-0.09,-0.108l-0.1,-0.11l-0.09,-0.109l-0.09,-0.113l-0.09,-0.112l-0.09,-0.114l-0.09,-0.116l-0.08,-0.116l-0.08,-0.116l-0.09,-0.118l-0.08,-0.118l-0.08,-0.121l-0.08,-0.122l-0.08,-0.123l-0.07,-0.122l-0.08,-0.124l-0.07,-0.126l-0.07,-0.124l-0.07,-0.129l-0.07,-0.129l-0.06,-0.126l-0.07,-0.132l-0.07,-0.13l-0.06,-0.131l-0.06,-0.134l-0.06,-0.133l-0.06,-0.133l-0.05,-0.137l-0.06,-0.137l-0.05,-0.135l-0.05,-0.136l-0.05,-0.139l-0.05,-0.142l-0.05,-0.14l-0.04,-0.139l-0.04,-0.141l-0.04,-0.142l-0.04,-0.143l-0.04,-0.145l-0.04,-0.144l-0.03,-0.144l-0.04,-0.147l-0.03,-0.148l-0.02,-0.145l-0.03,-0.146l-0.03,-0.149l-0.02,-0.147l-0.02,-0.15l-0.02,-0.153l-0.02,-0.148l-0.02,-0.151l-0.01,-0.152l-0.01,-0.151l-0.02,-0.155l0,-0.15l-0.01,-0.152l-0.01,-0.158l0,-0.153l0,-0.149l0,-0.266l0,-0.261l0.01,-0.261l0,-0.26l0.01,-0.258l0.01,-0.26l0.01,-0.258l0.01,-0.259l0.02,-0.258l0.01,-0.258l0.02,-0.256l0.02,-0.256l0.02,-0.259l0.02,-0.255l0.02,-0.255l0.02,-0.254l0.03,-0.254l0.03,-0.255l0.03,-0.254l0.03,-0.253l0.03,-0.251l0.03,-0.253l0.04,-0.252l0.04,-0.251l0.04,-0.252l0.03,-0.249l0.05,-0.249l0.04,-0.25l0.04,-0.248l0.05,-0.249l0.04,-0.247l0.05,-0.248l0.05,-0.247l0.05,-0.246l0.06,-0.245l0.05,-0.244l0.06,-0.245l0.05,-0.244l0.06,-0.244l0.06,-0.242l0.06,-0.242l0.07,-0.242l0.06,-0.242l0.07,-0.24l0.06,-0.239l0.07,-0.241l0.07,-0.238l0.07,-0.238l0.07,-0.237l0.08,-0.237l0.07,-0.237l0.08,-0.236l0.07,-0.235l0.08,-0.235l0.08,-0.233l0.09,-0.234l0.08,-0.233l0.08,-0.232l0.09,-0.232l0.08,-0.23l0.09,-0.23l0.09,-0.23l0.09,-0.229l0.09,-0.228l0.08,-0.18l0.07,-0.18l0.08,-0.179l0.07,-0.179l0.08,-0.179l0.08,-0.177l0.08,-0.177l0.07,-0.179l0.08,-0.176l0.08,-0.175l0.09,-0.177l0.08,-0.176l0.08,-0.174l0.08,-0.175l0.09,-0.174l0.09,-0.173l0.08,-0.174l0.09,-0.173l0.09,-0.171l0.08,-0.172l0.09,-0.172l0.09,-0.17l0.09,-0.171l0.1,-0.171l0.09,-0.168l0.09,-0.169l0.09,-0.169l0.1,-0.168l0.09,-0.168l0.1,-0.167l0.1,-0.166l0.09,-0.167l0.1,-0.165l0.1,-0.165l0.1,-0.166l0.1,-0.163l0.1,-0.164l0.1,-0.162l0.11,-0.164l0.1,-0.162l0.1,-0.162l0.11,-0.16l0.1,-0.161l0.11,-0.159l0.1,-0.161l0.11,-0.16l0.11,-0.158l0.11,-0.158l0.11,-0.157l0.11,-0.157l0.11,-0.157l0.11,-0.156l0.12,-0.155l0.11,-0.155l0.11,-0.154l0.12,-0.153l0.11,-0.154l0.12,-0.153l0.11,-0.152l0.12,-0.151l0.12,-0.152l0.12,-0.151l0.12,-0.149l0.12,-0.149l0.12,-0.15l0.12,-0.148l0.12,-0.147l0.12,-0.148l0.12,-0.146l0.13,-0.146l0.12,-0.145l0.13,-0.146l0.12,-0.144l0.13,-0.143l0.13,-0.143l0.12,-0.143l0.13,-0.142l0.13,-0.141l0.13,-0.141l0.13,-0.141l0.13,-0.138l0.13,-0.14l0.14,-0.138l0.13,-0.138l0.13,-0.138l0.14,-0.135l0.13,-0.137l0.14,-0.135l0.13,-0.135l0.14,-0.134l0.13,-0.134l0.14,-0.133l0.14,-0.131l0.14,-0.132l0.14,-0.132l0.14,-0.13l0.14,-0.129l0.14,-0.129l0.14,-0.129l0.14,-0.128l0.15,-0.127l0.14,-0.127l0.15,-0.126l0.14,-0.124l0.14,-0.125l0.15,-0.125l0.15,-0.123l0.14,-0.123l0.15,-0.121l0.15,-0.122l0.15,-0.121l0.15,-0.119l0.15,-0.119l0.15,-0.12l0.15,-0.118l0.15,-0.117l0.15,-0.117l0.15,-0.115l0.16,-0.116l0.15,-0.115l0.15,-0.113l0.16,-0.114l0.16,-0.112l0.15,-0.112l0.16,-0.111l0.15,-0.111l0.16,-0.11l0.16,-0.108l0.16,-0.109l0.16,-0.108l0.16,-0.106l0.15,-0.107l0.17,-0.106l0.16,-0.104l0.16,-0.104l0.16,-0.104l0.16,-0.102l0.17,-0.102l0.16,-0.102l0.16,-0.1l0.17,-0.1l0.16,-0.099l0.17,-0.098l0.16,-0.098l0.17,-0.097l0.17,-0.096l0.17,-0.095l0.16,-0.095l0.17,-0.093l0.17,-0.093l0.17,-0.093l0.17,-0.092l0.17,-0.09l0.17,-0.09l0.17,-0.089l0.17,-0.089l0.18,-0.088l0.17,-0.087l0.17,-0.086l0.17,-0.085l0.18,-0.085l0.17,-0.084l0.18,-0.083l0.17,-0.083l0.18,-0.081l0.17,-0.081l0.18,-0.08l0.18,-0.079l0.18,-0.078l0.17,-0.078l0.18,-0.076l0.18,-0.076l0.18,-0.076l0.18,-0.074l0.18,-0.074l0.18,-0.073l0.18,-0.071l0.18,-0.071l0.18,-0.071l0.19,-0.069l0.18,-0.069l0.18,-0.068l0.18,-0.067l0.19,-0.066l0.18,-0.065l0.19,-0.065l0.18,-0.063l0.19,-0.063l0.18,-0.062l0.19,-0.061l0.18,-0.061l0.19,-0.059l0.19,-0.059l0.19,-0.058l0.18,-0.057l0.19,-0.056l0.19,-0.055l0.19,-0.054l0.19,-0.054l0.19,-0.052l0.19,-0.052l0.19,-0.051l0.19,-0.05l0.19,-0.049l0.19,-0.048l0.2,-0.048l0.19,-0.046l0.19,-0.046l0.19,-0.044l0.2,-0.044l0.19,-0.043l0.19,-0.042l0.2,-0.041l0.19,-0.04l0.2,-0.04l0.19,-0.038l0.2,-0.038l0.19,-0.036l0.2,-0.036l0.2,-0.035l0.19,-0.034l0.2,-0.033l0.2,-0.032l0.2,-0.031l0.19,-0.03l0.2,-0.03l0.2,-0.028l0.2,-0.027l0.2,-0.027l0.2,-0.025l0.2,-0.025l0.2,-0.024l0.2,-0.022l0.2,-0.022l0.2,-0.021l0.2,-0.02l0.2,-0.019l0.21,-0.018l0.2,-0.017l0.2,-0.016l0.2,-0.015l0.2,-0.014l0.21,-0.014l0.2,-0.012l0.21,-0.011l0.2,-0.011l0.2,-0.009l0.21,-0.008l0.2,-0.008l0.21,-0.006l0.2,-0.005l0.21,-0.005l0.2,-0.003l0.21,-0.003l0.2,-0.001l0.21,-0.001l0.15,0.001Zm-0.34,4l-0.18,0.001l-0.19,0.002l-0.19,0.003l-0.18,0.004l-0.19,0.005l-0.18,0.006l-0.19,0.007l-0.18,0.007l-0.19,0.009l-0.18,0.009l-0.19,0.01l-0.18,0.011l-0.19,0.012l-0.18,0.013l-0.18,0.014l-0.19,0.015l-0.18,0.015l-0.18,0.016l-0.18,0.017l-0.19,0.018l-0.18,0.019l-0.18,0.02l-0.18,0.021l-0.18,0.021l-0.18,0.022l-0.18,0.024l-0.18,0.023l-0.18,0.025l-0.18,0.026l-0.18,0.026l-0.18,0.028l-0.18,0.028l-0.18,0.029l-0.18,0.03l-0.18,0.03l-0.17,0.032l-0.18,0.032l-0.18,0.033l-0.17,0.034l-0.18,0.035l-0.18,0.035l-0.17,0.037l-0.18,0.037l-0.17,0.038l-0.18,0.039l-0.17,0.039l-0.18,0.041l-0.17,0.041l-0.17,0.042l-0.18,0.043l-0.17,0.044l-0.18,0.044l-0.17,0.045l-0.17,0.046l-0.17,0.047l-0.17,0.047l-0.17,0.049l-0.18,0.049l-0.16,0.05l-0.17,0.05l-0.18,0.052l-0.16,0.052l-0.17,0.053l-0.17,0.054l-0.17,0.054l-0.17,0.056l-0.17,0.056l-0.16,0.056l-0.17,0.058l-0.17,0.058l-0.16,0.059l-0.17,0.06l-0.17,0.061l-0.16,0.061l-0.17,0.062l-0.16,0.063l-0.16,0.063l-0.17,0.065l-0.16,0.065l-0.17,0.066l-0.16,0.066l-0.16,0.067l-0.16,0.068l-0.16,0.069l-0.17,0.069l-0.16,0.071l-0.16,0.07l-0.16,0.072l-0.16,0.072l-0.16,0.074l-0.16,0.073l-0.15,0.074l-0.16,0.076l-0.16,0.075l-0.16,0.077l-0.15,0.077l-0.16,0.078l-0.16,0.079l-0.15,0.079l-0.16,0.08l-0.15,0.081l-0.16,0.082l-0.15,0.082l-0.16,0.083l-0.15,0.083l-0.15,0.084l-0.15,0.085l-0.15,0.086l-0.16,0.086l-0.15,0.087l-0.15,0.087l-0.15,0.089l-0.15,0.088l-0.15,0.09l-0.14,0.09l-0.15,0.091l-0.15,0.091l-0.15,0.093l-0.15,0.093l-0.14,0.093l-0.15,0.095l-0.14,0.095l-0.15,0.095l-0.14,0.096l-0.15,0.097l-0.14,0.097l-0.14,0.098l-0.15,0.099l-0.14,0.1l-0.14,0.099l-0.14,0.101l-0.14,0.101l-0.15,0.102l-0.13,0.102l-0.14,0.104l-0.14,0.104l-0.14,0.104l-0.14,0.105l-0.14,0.106l-0.13,0.106l-0.14,0.106l-0.14,0.107l-0.13,0.109l-0.14,0.109l-0.13,0.108l-0.14,0.111l-0.13,0.11l-0.13,0.111l-0.14,0.112l-0.13,0.112l-0.13,0.112l-0.13,0.115l-0.13,0.113l-0.13,0.115l-0.13,0.115l-0.13,0.116l-0.13,0.116l-0.12,0.116l-0.13,0.118l-0.13,0.119l-0.13,0.118l-0.12,0.119l-0.13,0.12l-0.12,0.12l-0.12,0.121l-0.13,0.122l-0.12,0.122l-0.12,0.122l-0.12,0.123l-0.13,0.124l-0.12,0.124l-0.12,0.125l-0.12,0.125l-0.11,0.125l-0.12,0.128l-0.12,0.126l-0.12,0.128l-0.12,0.128l-0.11,0.128l-0.12,0.129l-0.11,0.129l-0.12,0.131l-0.11,0.131l-0.11,0.13l-0.12,0.132l-0.11,0.133l-0.11,0.133l-0.11,0.132l-0.11,0.135l-0.11,0.134l-0.11,0.134l-0.11,0.135l-0.11,0.137l-0.1,0.136l-0.11,0.136l-0.11,0.137l-0.1,0.138l-0.11,0.139l-0.1,0.137l-0.1,0.14l-0.11,0.141l-0.1,0.139l-0.1,0.141l-0.1,0.141l-0.1,0.141l-0.1,0.142l-0.1,0.143l-0.1,0.144l-0.1,0.144l-0.09,0.143l-0.1,0.143l-0.1,0.146l-0.09,0.146l-0.1,0.146l-0.09,0.147l-0.1,0.146l-0.09,0.146l-0.09,0.148l-0.09,0.149l-0.09,0.149l-0.09,0.148l-0.09,0.149l-0.09,0.151l-0.09,0.149l-0.09,0.152l-0.08,0.152l-0.09,0.151l-0.08,0.151l-0.09,0.152l-0.08,0.154l-0.09,0.154l-0.08,0.153l-0.08,0.154l-0.08,0.155l-0.08,0.155l-0.08,0.155l-0.08,0.156l-0.08,0.156l-0.08,0.156l-0.08,0.158l-0.07,0.158l-0.08,0.157l-0.07,0.159l-0.08,0.159l-0.07,0.157l-0.08,0.161l-0.07,0.161l-0.07,0.158l-0.07,0.161l-0.07,0.162l-0.07,0.161l-0.07,0.162l-0.07,0.162l-0.06,0.162l-0.07,0.163l-0.08,0.207l-0.08,0.208l-0.08,0.207l-0.08,0.209l-0.08,0.21l-0.08,0.21l-0.08,0.21l-0.07,0.211l-0.07,0.21l-0.08,0.213l-0.07,0.213l-0.07,0.213l-0.07,0.213l-0.07,0.213l-0.06,0.215l-0.07,0.216l-0.06,0.216l-0.07,0.216l-0.06,0.216l-0.06,0.217l-0.06,0.219l-0.05,0.217l-0.06,0.218l-0.06,0.22l-0.05,0.22l-0.05,0.22l-0.05,0.22l-0.06,0.22l-0.04,0.223l-0.05,0.223l-0.05,0.222l-0.04,0.223l-0.05,0.223l-0.04,0.224l-0.04,0.224l-0.04,0.224l-0.04,0.226l-0.04,0.225l-0.03,0.228l-0.04,0.225l-0.03,0.227l-0.03,0.228l-0.03,0.227l-0.03,0.23l-0.03,0.229l-0.03,0.228l-0.02,0.229l-0.03,0.23l-0.02,0.231l-0.02,0.231l-0.02,0.232l-0.01,0.23l-0.02,0.232l-0.02,0.233l-0.01,0.233l-0.01,0.232l-0.01,0.234l-0.01,0.234l-0.01,0.234l-0.01,0.236l0,0.235l-0.01,0.235l0,0.682l0.01,0.099l0,0.103l0.01,0.105l0,0.1l0.01,0.102l0.02,0.202l0.02,0.102l0.02,0.196l0.02,0.101l0.02,0.098l0.01,0.1l0.02,0.099l0.02,0.096l0.02,0.095l0.03,0.097l0.02,0.097l0.03,0.093l0.02,0.095l0.03,0.095l0.03,0.094l0.03,0.096l0.03,0.093l0.03,0.089l0.03,0.092l0.04,0.093l0.04,0.092l0.03,0.09l0.04,0.089l0.04,0.09l0.04,0.089l0.04,0.087l0.08,0.176l0.04,0.085l0.05,0.088l0.05,0.085l0.04,0.082l0.05,0.086l0.15,0.249l0.05,0.081l0.05,0.08l0.05,0.079l0.06,0.081l0.06,0.079l0.05,0.079l0.06,0.078l0.06,0.075l0.05,0.076l0.07,0.076l0.06,0.073l0.06,0.075l0.06,0.073l0.06,0.072l0.07,0.072l0.06,0.071l0.14,0.138l0.06,0.069l0.07,0.068l0.07,0.067l0.07,0.065l0.07,0.064l0.07,0.066l0.08,0.064l0.07,0.061l0.07,0.062l0.08,0.06l0.07,0.061l0.08,0.059l0.08,0.058l0.07,0.057l0.16,0.112l0.16,0.108l0.08,0.052l0.16,0.102l0.09,0.05l0.16,0.096l0.09,0.047l0.08,0.045l0.09,0.045l0.08,0.044l0.18,0.084l0.09,0.041l0.09,0.039l0.18,0.076l0.09,0.036l0.09,0.035l0.09,0.034l0.09,0.033l0.09,0.032l0.1,0.031l0.09,0.03l0.09,0.028l0.1,0.028l0.09,0.026l0.1,0.025l0.1,0.024l0.09,0.023l0.1,0.022l0.1,0.021l0.09,0.019l0.1,0.018l0.1,0.017l0.1,0.016l0.2,0.028l0.1,0.012l0.1,0.011l0.2,0.018l0.1,0.007l0.11,0.006l0.1,0.004l0.1,0.003l0.11,0.002l0.1,0.001l0.19,0l0.18,-0.002l0.19,-0.002l0.19,-0.003l0.18,-0.004l0.19,-0.005l0.18,-0.006l0.19,-0.007l0.18,-0.007l0.19,-0.009l0.18,-0.009l0.19,-0.01l0.18,-0.011l0.19,-0.012l0.18,-0.013l0.18,-0.014l0.19,-0.014l0.18,-0.016l0.18,-0.016l0.18,-0.017l0.19,-0.018l0.18,-0.019l0.18,-0.02l0.18,-0.02l0.18,-0.022l0.18,-0.022l0.18,-0.023l0.18,-0.024l0.18,-0.025l0.18,-0.026l0.18,-0.026l0.18,-0.028l0.18,-0.028l0.18,-0.029l0.18,-0.029l0.18,-0.031l0.17,-0.032l0.18,-0.032l0.18,-0.033l0.17,-0.034l0.18,-0.035l0.18,-0.035l0.17,-0.037l0.18,-0.037l0.17,-0.038l0.18,-0.039l0.17,-0.039l0.18,-0.041l0.17,-0.041l0.18,-0.042l0.17,-0.043l0.17,-0.043l0.18,-0.045l0.17,-0.045l0.17,-0.046l0.17,-0.047l0.17,-0.047l0.17,-0.049l0.18,-0.049l0.17,-0.05l0.16,-0.05l0.18,-0.051l0.17,-0.053l0.16,-0.053l0.17,-0.054l0.17,-0.054l0.17,-0.055l0.17,-0.056l0.16,-0.057l0.17,-0.058l0.17,-0.058l0.17,-0.059l0.16,-0.06l0.17,-0.06l0.16,-0.062l0.17,-0.062l0.16,-0.063l0.17,-0.063l0.16,-0.065l0.16,-0.065l0.17,-0.066l0.16,-0.066l0.16,-0.067l0.16,-0.068l0.16,-0.068l0.17,-0.07l0.16,-0.07l0.16,-0.071l0.16,-0.072l0.16,-0.072l0.16,-0.073l0.16,-0.074l0.15,-0.074l0.16,-0.075l0.16,-0.076l0.16,-0.077l0.15,-0.077l0.16,-0.078l0.16,-0.079l0.15,-0.079l0.16,-0.08l0.15,-0.081l0.16,-0.081l0.15,-0.083l0.16,-0.082l0.15,-0.084l0.15,-0.084l0.15,-0.085l0.15,-0.085l0.16,-0.087l0.15,-0.087l0.15,-0.087l0.15,-0.088l0.15,-0.089l0.15,-0.09l0.15,-0.09l0.14,-0.091l0.15,-0.091l0.15,-0.093l0.15,-0.093l0.14,-0.093l0.15,-0.095l0.14,-0.094l0.15,-0.095l0.14,-0.097l0.15,-0.097l0.14,-0.097l0.14,-0.098l0.15,-0.099l0.14,-0.099l0.14,-0.1l0.14,-0.101l0.14,-0.101l0.15,-0.102l0.13,-0.102l0.14,-0.103l0.14,-0.104l0.14,-0.104l0.14,-0.105l0.14,-0.106l0.14,-0.107l0.13,-0.106l0.14,-0.107l0.13,-0.108l0.14,-0.109l0.13,-0.109l0.14,-0.11l0.13,-0.111l0.13,-0.111l0.14,-0.112l0.13,-0.112l0.13,-0.112l0.13,-0.114l0.13,-0.114l0.13,-0.114l0.13,-0.116l0.13,-0.115l0.13,-0.116l0.12,-0.117l0.13,-0.118l0.13,-0.118l0.13,-0.119l0.12,-0.119l0.13,-0.12l0.12,-0.12l0.12,-0.121l0.13,-0.122l0.12,-0.121l0.12,-0.123l0.12,-0.123l0.13,-0.124l0.12,-0.124l0.12,-0.124l0.12,-0.126l0.11,-0.125l0.12,-0.127l0.12,-0.127l0.12,-0.127l0.12,-0.128l0.11,-0.129l0.12,-0.129l0.11,-0.129l0.12,-0.131l0.11,-0.131l0.11,-0.13l0.12,-0.131l0.11,-0.134l0.11,-0.132l0.11,-0.132l0.11,-0.135l0.11,-0.135l0.11,-0.133l0.11,-0.136l0.11,-0.136l0.1,-0.137l0.11,-0.136l0.11,-0.137l0.1,-0.138l0.11,-0.138l0.1,-0.138l0.1,-0.139l0.11,-0.141l0.1,-0.14l0.1,-0.141l0.1,-0.141l0.1,-0.141l0.1,-0.142l0.1,-0.143l0.1,-0.143l0.1,-0.144l0.1,-0.144l0.09,-0.143l0.1,-0.145l0.09,-0.146l0.1,-0.147l0.09,-0.146l0.1,-0.146l0.09,-0.147l0.09,-0.148l0.09,-0.149l0.09,-0.149l0.09,-0.148l0.09,-0.149l0.09,-0.15l0.09,-0.15l0.09,-0.151l0.08,-0.152l0.09,-0.151l0.08,-0.152l0.09,-0.152l0.08,-0.153l0.09,-0.154l0.08,-0.154l0.08,-0.153l0.08,-0.156l0.08,-0.154l0.08,-0.155l0.08,-0.157l0.08,-0.156l0.08,-0.156l0.08,-0.158l0.07,-0.157l0.08,-0.158l0.07,-0.159l0.08,-0.158l0.07,-0.158l0.08,-0.16l0.07,-0.161l0.07,-0.159l0.07,-0.16l0.07,-0.163l0.07,-0.161l0.07,-0.161l0.07,-0.162l0.06,-0.163l0.07,-0.163l0.08,-0.207l0.08,-0.207l0.08,-0.208l0.08,-0.209l0.08,-0.21l0.08,-0.209l0.08,-0.211l0.07,-0.21l0.07,-0.211l0.08,-0.213l0.07,-0.212l0.07,-0.213l0.07,-0.214l0.07,-0.213l0.06,-0.215l0.07,-0.215l0.06,-0.216l0.07,-0.217l0.06,-0.216l0.06,-0.217l0.06,-0.218l0.06,-0.218l0.05,-0.218l0.06,-0.22l0.05,-0.22l0.05,-0.219l0.06,-0.221l0.05,-0.22l0.04,-0.223l0.05,-0.223l0.05,-0.222l0.04,-0.222l0.05,-0.224l0.04,-0.223l0.04,-0.225l0.04,-0.224l0.04,-0.225l0.04,-0.226l0.03,-0.228l0.04,-0.225l0.03,-0.227l0.03,-0.228l0.03,-0.227l0.03,-0.229l0.03,-0.229l0.03,-0.229l0.02,-0.228l0.03,-0.231l0.02,-0.231l0.02,-0.231l0.02,-0.232l0.01,-0.229l0.02,-0.233l0.02,-0.233l0.01,-0.232l0.01,-0.233l0.01,-0.233l0.01,-0.235l0.01,-0.234l0.01,-0.236l0,-0.235l0.01,-0.235l0,-0.236l0,-0.231l0,-0.11l0,-0.104l-0.01,-0.099l0,-0.104l-0.01,-0.105l0,-0.1l-0.01,-0.102l-0.01,-0.101l-0.01,-0.101l-0.02,-0.102l-0.01,-0.097l-0.01,-0.099l-0.02,-0.101l-0.01,-0.098l-0.02,-0.099l-0.02,-0.099l-0.02,-0.096l-0.02,-0.096l-0.03,-0.097l-0.02,-0.096l-0.03,-0.094l-0.02,-0.095l-0.03,-0.095l-0.03,-0.094l-0.03,-0.096l-0.03,-0.092l-0.03,-0.09l-0.03,-0.092l-0.04,-0.093l-0.04,-0.092l-0.03,-0.09l-0.04,-0.088l-0.04,-0.091l-0.04,-0.089l-0.04,-0.087l-0.04,-0.088l-0.04,-0.088l-0.04,-0.084l-0.05,-0.088l-0.04,-0.086l-0.05,-0.082l-0.05,-0.086l-0.05,-0.083l-0.05,-0.082l-0.05,-0.084l-0.05,-0.081l-0.05,-0.08l-0.05,-0.079l-0.06,-0.08l-0.05,-0.08l-0.06,-0.079l-0.06,-0.077l-0.06,-0.076l-0.05,-0.076l-0.06,-0.075l-0.07,-0.073l-0.06,-0.076l-0.06,-0.073l-0.06,-0.072l-0.07,-0.072l-0.06,-0.07l-0.07,-0.07l-0.06,-0.069l-0.07,-0.069l-0.07,-0.068l-0.07,-0.067l-0.07,-0.065l-0.07,-0.064l-0.07,-0.066l-0.08,-0.063l-0.07,-0.062l-0.07,-0.061l-0.08,-0.061l-0.07,-0.061l-0.08,-0.059l-0.07,-0.058l-0.08,-0.056l-0.08,-0.056l-0.08,-0.056l-0.08,-0.055l-0.08,-0.054l-0.08,-0.052l-0.08,-0.051l-0.08,-0.051l-0.09,-0.049l-0.08,-0.049l-0.08,-0.048l-0.09,-0.047l-0.08,-0.045l-0.09,-0.045l-0.08,-0.043l-0.09,-0.043l-0.09,-0.042l-0.09,-0.04l-0.09,-0.04l-0.09,-0.038l-0.09,-0.037l-0.09,-0.036l-0.09,-0.036l-0.09,-0.034l-0.09,-0.033l-0.09,-0.032l-0.1,-0.031l-0.09,-0.029l-0.09,-0.029l-0.1,-0.028l-0.09,-0.026l-0.1,-0.025l-0.1,-0.024l-0.09,-0.023l-0.1,-0.022l-0.1,-0.02l-0.09,-0.02l-0.1,-0.018l-0.1,-0.017l-0.1,-0.016l-0.1,-0.014l-0.1,-0.013l-0.1,-0.013l-0.1,-0.01l-0.1,-0.01l-0.1,-0.008l-0.1,-0.008l-0.11,-0.005l-0.1,-0.005l-0.1,-0.003l-0.11,-0.002l-0.1,-0.001l-0.19,0.001Z" style="fill:#fff;"/><path id="path3773.2e..-0.2e..-4.2e..-8.2e..-8.2e..-7.2e..-9.2e..-0.2e..-03.2e..-8.2e..-9.2e..-5" d="M205.16,283.001l0.15,0.003l0.15,0.005l0.16,0.007l0.15,0.008l0.15,0.011l0.15,0.013l0.15,0.014l0.16,0.016l0.15,0.018l0.15,0.02l0.14,0.022l0.15,0.024l0.15,0.025l0.15,0.028l0.15,0.029l0.14,0.031l0.15,0.032l0.14,0.035l0.15,0.036l0.14,0.038l0.14,0.04l0.15,0.041l0.14,0.043l0.14,0.045l0.14,0.046l0.14,0.048l0.14,0.05l0.13,0.051l0.14,0.053l0.14,0.055l0.13,0.056l0.14,0.058l0.13,0.059l0.13,0.061l0.13,0.062l0.13,0.064l0.13,0.066l0.13,0.067l0.13,0.069l0.13,0.07l0.12,0.071l0.13,0.073l0.12,0.074l0.13,0.076l0.12,0.078l0.12,0.079l0.12,0.08l0.12,0.081l0.12,0.083l0.12,0.084l0.11,0.086l0.12,0.087l0.22,0.178l0.11,0.091l0.11,0.092l0.12,0.095l0.1,0.094l0.11,0.095l0.11,0.098l0.1,0.1l0.1,0.099l0.11,0.101l0.1,0.101l0.1,0.104l0.09,0.106l0.2,0.212l0.09,0.108l0.1,0.11l0.09,0.109l0.27,0.339l0.09,0.116l0.16,0.232l0.09,0.118l0.08,0.118l0.08,0.121l0.08,0.122l0.08,0.123l0.07,0.122l0.08,0.125l0.14,0.25l0.07,0.129l0.07,0.128l0.06,0.127l0.14,0.262l0.06,0.131l0.06,0.134l0.06,0.132l0.06,0.134l0.05,0.136l0.06,0.137l0.05,0.135l0.05,0.136l0.05,0.139l0.05,0.142l0.05,0.14l0.04,0.139l0.04,0.141l0.04,0.142l0.04,0.143l0.04,0.145l0.04,0.144l0.03,0.144l0.04,0.147l0.03,0.148l0.02,0.146l0.03,0.146l0.03,0.149l0.02,0.147l0.02,0.15l0.02,0.152l0.02,0.148l0.02,0.151l0.01,0.152l0.02,0.152l0.01,0.154l0,0.15l0.01,0.153l0.01,0.157l0,0.829l-0.01,0.261l0,0.26l-0.01,0.259l-0.01,0.259l-0.01,0.258l-0.01,0.259l-0.02,0.258l-0.01,0.258l-0.02,0.257l-0.01,0.256l-0.03,0.258l-0.02,0.255l-0.02,0.255l-0.02,0.254l-0.03,0.254l-0.03,0.255l-0.03,0.255l-0.03,0.252l-0.03,0.251l-0.03,0.254l-0.04,0.251l-0.04,0.251l-0.03,0.252l-0.04,0.249l-0.04,0.25l-0.05,0.249l-0.04,0.249l-0.05,0.248l-0.04,0.248l-0.05,0.247l-0.05,0.247l-0.05,0.246l-0.06,0.245l-0.05,0.244l-0.06,0.245l-0.05,0.244l-0.06,0.244l-0.06,0.242l-0.06,0.242l-0.07,0.242l-0.06,0.242l-0.07,0.24l-0.06,0.24l-0.07,0.24l-0.07,0.238l-0.07,0.238l-0.07,0.237l-0.08,0.237l-0.07,0.238l-0.08,0.235l-0.07,0.235l-0.08,0.235l-0.08,0.233l-0.09,0.234l-0.08,0.233l-0.08,0.232l-0.09,0.232l-0.08,0.23l-0.09,0.23l-0.09,0.23l-0.09,0.229l-0.09,0.228l-0.08,0.18l-0.07,0.18l-0.08,0.179l-0.07,0.179l-0.08,0.179l-0.08,0.177l-0.07,0.178l-0.08,0.178l-0.08,0.176l-0.08,0.175l-0.09,0.178l-0.08,0.175l-0.08,0.174l-0.08,0.175l-0.09,0.175l-0.09,0.172l-0.08,0.174l-0.09,0.173l-0.08,0.171l-0.09,0.173l-0.09,0.171l-0.09,0.17l-0.09,0.171l-0.1,0.171l-0.09,0.169l-0.09,0.168l-0.09,0.169l-0.1,0.169l-0.09,0.168l-0.1,0.166l-0.09,0.166l-0.1,0.167l-0.1,0.165l-0.1,0.166l-0.1,0.165l-0.1,0.164l-0.1,0.163l-0.1,0.162l-0.11,0.164l-0.1,0.163l-0.1,0.161l-0.11,0.161l-0.1,0.16l-0.11,0.16l-0.1,0.16l-0.11,0.16l-0.11,0.158l-0.11,0.158l-0.11,0.157l-0.11,0.157l-0.11,0.157l-0.11,0.156l-0.11,0.155l-0.12,0.156l-0.11,0.153l-0.11,0.153l-0.12,0.155l-0.12,0.152l-0.11,0.152l-0.12,0.152l-0.12,0.152l-0.12,0.15l-0.12,0.149l-0.12,0.149l-0.12,0.15l-0.12,0.148l-0.12,0.147l-0.12,0.148l-0.13,0.147l-0.12,0.145l-0.12,0.145l-0.13,0.146l-0.12,0.144l-0.13,0.143l-0.13,0.143l-0.12,0.143l-0.13,0.142l-0.13,0.142l-0.13,0.141l-0.13,0.14l-0.13,0.139l-0.13,0.139l-0.14,0.138l-0.13,0.138l-0.13,0.138l-0.13,0.136l-0.14,0.136l-0.14,0.136l-0.13,0.134l-0.14,0.134l-0.13,0.134l-0.14,0.133l-0.14,0.132l-0.14,0.132l-0.14,0.131l-0.14,0.13l-0.14,0.129l-0.14,0.13l-0.14,0.128l-0.14,0.129l-0.15,0.126l-0.14,0.127l-0.15,0.126l-0.14,0.125l-0.14,0.125l-0.15,0.124l-0.15,0.123l-0.14,0.123l-0.15,0.122l-0.15,0.121l-0.15,0.121l-0.15,0.12l-0.15,0.119l-0.15,0.119l-0.15,0.118l-0.15,0.117l-0.15,0.117l-0.15,0.116l-0.16,0.115l-0.15,0.115l-0.15,0.114l-0.16,0.113l-0.16,0.113l-0.15,0.111l-0.16,0.111l-0.15,0.111l-0.16,0.11l-0.16,0.108l-0.16,0.109l-0.16,0.108l-0.15,0.107l-0.16,0.106l-0.17,0.106l-0.16,0.105l-0.16,0.103l-0.16,0.104l-0.16,0.103l-0.16,0.101l-0.17,0.102l-0.16,0.1l-0.17,0.1l-0.16,0.099l-0.17,0.098l-0.16,0.098l-0.17,0.097l-0.17,0.096l-0.16,0.095l-0.17,0.095l-0.17,0.093l-0.17,0.093l-0.17,0.093l-0.17,0.092l-0.17,0.09l-0.17,0.09l-0.17,0.09l-0.17,0.088l-0.18,0.088l-0.17,0.087l-0.17,0.086l-0.17,0.086l-0.18,0.084l-0.17,0.084l-0.18,0.083l-0.17,0.083l-0.18,0.082l-0.17,0.08l-0.18,0.08l-0.18,0.079l-0.18,0.079l-0.17,0.077l-0.18,0.077l-0.18,0.076l-0.18,0.075l-0.18,0.075l-0.18,0.073l-0.18,0.073l-0.18,0.072l-0.18,0.071l-0.18,0.07l-0.19,0.07l-0.18,0.068l-0.18,0.068l-0.18,0.067l-0.19,0.066l-0.18,0.066l-0.19,0.064l-0.18,0.064l-0.19,0.063l-0.18,0.062l-0.19,0.061l-0.18,0.06l-0.19,0.06l-0.19,0.058l-0.19,0.058l-0.18,0.057l-0.19,0.056l-0.19,0.055l-0.19,0.055l-0.19,0.053l-0.19,0.053l-0.19,0.051l-0.19,0.051l-0.19,0.05l-0.19,0.049l-0.19,0.048l-0.2,0.048l-0.19,0.046l-0.19,0.046l-0.19,0.045l-0.2,0.043l-0.19,0.043l-0.19,0.042l-0.2,0.042l-0.19,0.04l-0.2,0.039l-0.19,0.039l-0.2,0.037l-0.19,0.037l-0.2,0.035l-0.2,0.035l-0.19,0.034l-0.2,0.033l-0.2,0.032l-0.2,0.031l-0.19,0.031l-0.2,0.029l-0.2,0.028l-0.2,0.028l-0.2,0.026l-0.2,0.026l-0.2,0.024l-0.2,0.024l-0.2,0.023l-0.2,0.022l-0.2,0.02l-0.2,0.02l-0.2,0.019l-0.21,0.018l-0.2,0.017l-0.2,0.016l-0.2,0.016l-0.2,0.014l-0.21,0.013l-0.2,0.012l-0.2,0.011l-0.21,0.011l-0.2,0.009l-0.21,0.009l-0.2,0.007l-0.21,0.006l-0.2,0.006l-0.21,0.004l-0.2,0.004l-0.21,0.002l-0.2,0.002l-0.21,0l-0.15,-0.001l-0.16,-0.003l-0.15,-0.005l-0.16,-0.006l-0.15,-0.009l-0.15,-0.011l-0.15,-0.012l-0.15,-0.015l-0.15,-0.016l-0.16,-0.018l-0.15,-0.02l-0.15,-0.022l-0.14,-0.024l-0.15,-0.025l-0.15,-0.027l-0.15,-0.03l-0.14,-0.03l-0.15,-0.033l-0.14,-0.035l-0.15,-0.036l-0.14,-0.038l-0.14,-0.039l-0.15,-0.041l-0.14,-0.044l-0.14,-0.045l-0.14,-0.046l-0.14,-0.048l-0.14,-0.05l-0.13,-0.051l-0.14,-0.053l-0.14,-0.055l-0.13,-0.056l-0.14,-0.058l-0.13,-0.059l-0.13,-0.061l-0.13,-0.062l-0.13,-0.064l-0.13,-0.066l-0.13,-0.067l-0.13,-0.068l-0.13,-0.07l-0.12,-0.072l-0.13,-0.073l-0.12,-0.074l-0.13,-0.076l-0.12,-0.078l-0.12,-0.079l-0.12,-0.08l-0.12,-0.081l-0.12,-0.082l-0.12,-0.085l-0.11,-0.086l-0.12,-0.087l-0.11,-0.089l-0.11,-0.088l-0.11,-0.091l-0.11,-0.093l-0.12,-0.094l-0.1,-0.095l-0.11,-0.095l-0.1,-0.098l-0.11,-0.099l-0.1,-0.1l-0.1,-0.1l-0.11,-0.102l-0.1,-0.104l-0.09,-0.105l-0.1,-0.107l-0.1,-0.106l-0.09,-0.108l-0.1,-0.109l-0.09,-0.109l-0.09,-0.114l-0.09,-0.112l-0.09,-0.114l-0.09,-0.116l-0.08,-0.116l-0.08,-0.116l-0.09,-0.118l-0.08,-0.118l-0.08,-0.121l-0.08,-0.122l-0.08,-0.123l-0.07,-0.122l-0.08,-0.124l-0.07,-0.126l-0.07,-0.124l-0.07,-0.129l-0.07,-0.129l-0.06,-0.126l-0.07,-0.132l-0.07,-0.13l-0.06,-0.131l-0.06,-0.135l-0.06,-0.132l-0.06,-0.133l-0.05,-0.137l-0.06,-0.137l-0.05,-0.135l-0.05,-0.136l-0.05,-0.139l-0.05,-0.142l-0.05,-0.14l-0.04,-0.139l-0.04,-0.141l-0.04,-0.142l-0.04,-0.143l-0.04,-0.145l-0.04,-0.144l-0.03,-0.144l-0.04,-0.147l-0.03,-0.148l-0.02,-0.145l-0.03,-0.146l-0.03,-0.149l-0.02,-0.147l-0.02,-0.15l-0.02,-0.153l-0.02,-0.148l-0.02,-0.151l-0.01,-0.152l-0.01,-0.151l-0.02,-0.155l0,-0.15l-0.01,-0.152l-0.01,-0.158l0,-0.153l0,-0.149l0,-0.266l0,-0.261l0.01,-0.261l0,-0.26l0.01,-0.258l0.01,-0.26l0.01,-0.258l0.01,-0.259l0.02,-0.258l0.01,-0.258l0.02,-0.256l0.02,-0.256l0.02,-0.259l0.02,-0.255l0.02,-0.255l0.03,-0.254l0.02,-0.254l0.03,-0.255l0.03,-0.254l0.03,-0.253l0.03,-0.251l0.03,-0.253l0.04,-0.252l0.04,-0.251l0.04,-0.252l0.03,-0.249l0.05,-0.249l0.04,-0.25l0.04,-0.248l0.05,-0.249l0.04,-0.247l0.05,-0.248l0.05,-0.247l0.05,-0.246l0.06,-0.245l0.05,-0.244l0.06,-0.245l0.05,-0.244l0.06,-0.244l0.06,-0.242l0.06,-0.242l0.07,-0.242l0.06,-0.242l0.07,-0.24l0.06,-0.239l0.07,-0.241l0.07,-0.238l0.07,-0.238l0.07,-0.237l0.08,-0.237l0.07,-0.237l0.08,-0.236l0.07,-0.235l0.08,-0.235l0.08,-0.233l0.09,-0.234l0.08,-0.233l0.08,-0.232l0.09,-0.232l0.08,-0.23l0.09,-0.23l0.09,-0.23l0.09,-0.229l0.09,-0.228l0.08,-0.18l0.07,-0.18l0.08,-0.179l0.07,-0.179l0.08,-0.179l0.08,-0.176l0.08,-0.178l0.07,-0.179l0.08,-0.176l0.08,-0.175l0.09,-0.177l0.08,-0.176l0.08,-0.174l0.08,-0.175l0.09,-0.174l0.09,-0.173l0.08,-0.174l0.09,-0.173l0.09,-0.171l0.08,-0.172l0.09,-0.172l0.09,-0.17l0.09,-0.171l0.1,-0.171l0.09,-0.168l0.09,-0.169l0.09,-0.169l0.1,-0.168l0.09,-0.168l0.1,-0.167l0.1,-0.166l0.09,-0.167l0.1,-0.165l0.1,-0.165l0.1,-0.166l0.1,-0.163l0.1,-0.163l0.1,-0.163l0.11,-0.164l0.1,-0.162l0.1,-0.162l0.11,-0.16l0.1,-0.161l0.11,-0.159l0.1,-0.161l0.11,-0.16l0.11,-0.158l0.11,-0.158l0.11,-0.157l0.11,-0.157l0.11,-0.157l0.11,-0.155l0.12,-0.156l0.11,-0.155l0.11,-0.153l0.12,-0.154l0.11,-0.154l0.12,-0.153l0.11,-0.152l0.12,-0.151l0.12,-0.152l0.12,-0.151l0.12,-0.149l0.12,-0.149l0.12,-0.15l0.12,-0.148l0.12,-0.147l0.12,-0.148l0.12,-0.146l0.13,-0.145l0.12,-0.146l0.13,-0.146l0.12,-0.144l0.13,-0.143l0.13,-0.143l0.12,-0.143l0.13,-0.142l0.13,-0.141l0.13,-0.141l0.13,-0.141l0.13,-0.138l0.13,-0.14l0.14,-0.138l0.13,-0.138l0.13,-0.138l0.14,-0.135l0.13,-0.137l0.14,-0.135l0.13,-0.135l0.14,-0.134l0.13,-0.134l0.14,-0.133l0.14,-0.131l0.14,-0.132l0.14,-0.132l0.14,-0.13l0.14,-0.129l0.14,-0.129l0.14,-0.129l0.14,-0.128l0.15,-0.127l0.14,-0.127l0.15,-0.126l0.14,-0.124l0.14,-0.125l0.15,-0.125l0.15,-0.123l0.14,-0.123l0.15,-0.121l0.15,-0.122l0.15,-0.121l0.15,-0.119l0.15,-0.119l0.15,-0.12l0.15,-0.118l0.15,-0.117l0.15,-0.117l0.15,-0.115l0.16,-0.116l0.15,-0.114l0.15,-0.114l0.16,-0.114l0.16,-0.112l0.15,-0.112l0.16,-0.111l0.15,-0.111l0.16,-0.11l0.16,-0.108l0.16,-0.109l0.16,-0.108l0.16,-0.106l0.15,-0.107l0.17,-0.106l0.16,-0.104l0.16,-0.104l0.16,-0.104l0.16,-0.102l0.17,-0.102l0.16,-0.102l0.16,-0.1l0.17,-0.1l0.16,-0.099l0.17,-0.098l0.16,-0.098l0.17,-0.097l0.17,-0.096l0.17,-0.095l0.16,-0.095l0.17,-0.093l0.17,-0.093l0.17,-0.093l0.17,-0.092l0.17,-0.09l0.17,-0.09l0.17,-0.089l0.17,-0.089l0.18,-0.088l0.17,-0.087l0.17,-0.086l0.17,-0.085l0.18,-0.085l0.17,-0.084l0.18,-0.083l0.17,-0.083l0.18,-0.081l0.17,-0.081l0.18,-0.08l0.18,-0.079l0.18,-0.078l0.17,-0.078l0.18,-0.076l0.18,-0.076l0.18,-0.076l0.18,-0.074l0.18,-0.074l0.18,-0.073l0.18,-0.071l0.18,-0.071l0.18,-0.071l0.19,-0.069l0.18,-0.069l0.18,-0.068l0.18,-0.067l0.19,-0.066l0.18,-0.065l0.19,-0.065l0.18,-0.063l0.19,-0.063l0.18,-0.062l0.19,-0.061l0.18,-0.061l0.19,-0.059l0.19,-0.059l0.19,-0.058l0.18,-0.057l0.19,-0.056l0.19,-0.055l0.19,-0.054l0.19,-0.054l0.19,-0.052l0.19,-0.052l0.19,-0.051l0.19,-0.05l0.19,-0.049l0.19,-0.048l0.2,-0.048l0.19,-0.046l0.19,-0.046l0.19,-0.044l0.2,-0.044l0.19,-0.043l0.19,-0.042l0.2,-0.041l0.19,-0.04l0.2,-0.04l0.19,-0.038l0.2,-0.038l0.19,-0.036l0.2,-0.036l0.2,-0.035l0.19,-0.034l0.2,-0.033l0.2,-0.032l0.2,-0.031l0.19,-0.03l0.2,-0.03l0.2,-0.028l0.2,-0.027l0.2,-0.027l0.2,-0.025l0.2,-0.025l0.2,-0.024l0.2,-0.022l0.2,-0.022l0.2,-0.021l0.2,-0.02l0.2,-0.019l0.2,-0.018l0.21,-0.017l0.2,-0.016l0.2,-0.015l0.21,-0.014l0.2,-0.014l0.2,-0.012l0.2,-0.011l0.21,-0.011l0.2,-0.009l0.21,-0.008l0.2,-0.008l0.21,-0.006l0.2,-0.005l0.21,-0.005l0.2,-0.003l0.21,-0.003l0.2,-0.001l0.21,-0.001l0.16,0.001Zm-0.35,4l-0.18,0.001l-0.19,0.002l-0.19,0.003l-0.18,0.004l-0.19,0.005l-0.18,0.006l-0.19,0.007l-0.18,0.007l-0.19,0.009l-0.18,0.009l-0.19,0.01l-0.18,0.011l-0.19,0.012l-0.18,0.013l-0.18,0.014l-0.19,0.015l-0.18,0.015l-0.18,0.016l-0.18,0.017l-0.19,0.018l-0.18,0.019l-0.18,0.02l-0.18,0.021l-0.18,0.021l-0.18,0.022l-0.18,0.024l-0.18,0.023l-0.18,0.025l-0.18,0.026l-0.18,0.026l-0.18,0.028l-0.18,0.028l-0.18,0.029l-0.18,0.03l-0.17,0.03l-0.18,0.032l-0.18,0.032l-0.18,0.033l-0.17,0.034l-0.18,0.035l-0.18,0.035l-0.17,0.037l-0.18,0.037l-0.17,0.038l-0.18,0.039l-0.17,0.039l-0.18,0.041l-0.17,0.041l-0.17,0.042l-0.18,0.043l-0.17,0.044l-0.17,0.044l-0.18,0.045l-0.17,0.046l-0.17,0.047l-0.17,0.047l-0.17,0.049l-0.18,0.049l-0.17,0.05l-0.17,0.05l-0.16,0.052l-0.17,0.052l-0.17,0.053l-0.17,0.054l-0.17,0.054l-0.17,0.056l-0.17,0.056l-0.16,0.056l-0.17,0.058l-0.17,0.058l-0.16,0.06l-0.17,0.059l-0.17,0.061l-0.16,0.061l-0.17,0.062l-0.16,0.063l-0.16,0.063l-0.17,0.065l-0.16,0.065l-0.17,0.066l-0.16,0.066l-0.16,0.067l-0.16,0.068l-0.16,0.069l-0.17,0.069l-0.16,0.071l-0.16,0.07l-0.16,0.072l-0.16,0.072l-0.16,0.074l-0.16,0.073l-0.15,0.074l-0.16,0.076l-0.16,0.075l-0.16,0.077l-0.15,0.077l-0.16,0.078l-0.16,0.079l-0.15,0.079l-0.16,0.08l-0.15,0.081l-0.16,0.082l-0.15,0.082l-0.16,0.083l-0.15,0.083l-0.15,0.084l-0.15,0.085l-0.15,0.086l-0.16,0.086l-0.15,0.087l-0.15,0.087l-0.15,0.089l-0.15,0.088l-0.15,0.09l-0.14,0.09l-0.15,0.091l-0.15,0.091l-0.15,0.093l-0.15,0.093l-0.14,0.093l-0.15,0.095l-0.14,0.095l-0.15,0.095l-0.14,0.096l-0.15,0.097l-0.14,0.097l-0.14,0.098l-0.15,0.099l-0.14,0.1l-0.14,0.099l-0.14,0.101l-0.14,0.101l-0.15,0.102l-0.13,0.102l-0.14,0.104l-0.14,0.104l-0.14,0.104l-0.14,0.105l-0.14,0.106l-0.13,0.106l-0.14,0.106l-0.14,0.107l-0.13,0.109l-0.14,0.109l-0.13,0.108l-0.14,0.111l-0.13,0.11l-0.13,0.111l-0.14,0.112l-0.13,0.112l-0.13,0.112l-0.13,0.115l-0.13,0.113l-0.13,0.115l-0.13,0.115l-0.13,0.116l-0.13,0.116l-0.12,0.116l-0.13,0.118l-0.13,0.119l-0.12,0.118l-0.13,0.119l-0.13,0.12l-0.12,0.12l-0.12,0.121l-0.13,0.122l-0.12,0.122l-0.12,0.122l-0.12,0.123l-0.13,0.124l-0.12,0.124l-0.12,0.125l-0.12,0.125l-0.11,0.125l-0.12,0.128l-0.12,0.126l-0.12,0.128l-0.12,0.128l-0.11,0.128l-0.12,0.129l-0.11,0.129l-0.12,0.131l-0.11,0.131l-0.11,0.13l-0.12,0.132l-0.11,0.133l-0.11,0.133l-0.11,0.132l-0.11,0.135l-0.11,0.134l-0.11,0.134l-0.11,0.135l-0.11,0.137l-0.1,0.136l-0.11,0.136l-0.11,0.137l-0.1,0.138l-0.11,0.139l-0.1,0.137l-0.1,0.14l-0.11,0.141l-0.1,0.139l-0.1,0.141l-0.1,0.141l-0.1,0.141l-0.1,0.142l-0.1,0.143l-0.1,0.144l-0.1,0.144l-0.09,0.143l-0.1,0.143l-0.1,0.146l-0.09,0.146l-0.1,0.146l-0.09,0.147l-0.1,0.146l-0.09,0.146l-0.09,0.148l-0.09,0.149l-0.09,0.149l-0.09,0.148l-0.09,0.149l-0.09,0.151l-0.09,0.149l-0.09,0.152l-0.08,0.151l-0.09,0.152l-0.08,0.151l-0.09,0.152l-0.08,0.154l-0.09,0.154l-0.08,0.153l-0.08,0.154l-0.08,0.155l-0.08,0.155l-0.08,0.155l-0.08,0.156l-0.08,0.156l-0.08,0.156l-0.08,0.158l-0.07,0.158l-0.08,0.157l-0.07,0.159l-0.08,0.159l-0.07,0.157l-0.08,0.161l-0.07,0.161l-0.07,0.158l-0.07,0.161l-0.07,0.162l-0.07,0.161l-0.07,0.162l-0.07,0.162l-0.06,0.162l-0.07,0.163l-0.08,0.207l-0.08,0.208l-0.08,0.207l-0.08,0.209l-0.08,0.21l-0.08,0.21l-0.08,0.21l-0.07,0.211l-0.07,0.21l-0.08,0.213l-0.07,0.213l-0.07,0.213l-0.07,0.213l-0.07,0.213l-0.06,0.215l-0.07,0.216l-0.06,0.216l-0.07,0.216l-0.06,0.216l-0.06,0.217l-0.06,0.219l-0.05,0.217l-0.06,0.218l-0.06,0.22l-0.05,0.22l-0.05,0.22l-0.05,0.22l-0.06,0.22l-0.04,0.223l-0.05,0.223l-0.05,0.222l-0.04,0.223l-0.05,0.223l-0.04,0.224l-0.04,0.224l-0.04,0.224l-0.04,0.226l-0.04,0.225l-0.03,0.228l-0.04,0.225l-0.03,0.227l-0.03,0.228l-0.03,0.227l-0.03,0.23l-0.03,0.229l-0.03,0.228l-0.02,0.229l-0.03,0.23l-0.02,0.231l-0.02,0.231l-0.02,0.232l-0.01,0.23l-0.02,0.232l-0.02,0.233l-0.01,0.233l-0.01,0.232l-0.01,0.234l-0.01,0.234l-0.01,0.235l-0.01,0.235l0,0.235l-0.01,0.235l0,0.682l0.01,0.099l0,0.103l0.01,0.105l0,0.1l0.01,0.102l0.02,0.202l0.02,0.102l0.02,0.196l0.02,0.101l0.02,0.098l0.01,0.1l0.02,0.099l0.02,0.096l0.03,0.095l0.04,0.194l0.03,0.093l0.02,0.095l0.03,0.095l0.03,0.094l0.03,0.096l0.03,0.093l0.03,0.09l0.03,0.091l0.04,0.093l0.04,0.092l0.03,0.09l0.04,0.089l0.08,0.18l0.04,0.086l0.08,0.176l0.04,0.085l0.05,0.088l0.05,0.085l0.04,0.083l0.05,0.085l0.15,0.249l0.05,0.081l0.05,0.08l0.05,0.079l0.06,0.081l0.06,0.079l0.05,0.079l0.06,0.078l0.06,0.075l0.12,0.152l0.06,0.073l0.06,0.075l0.06,0.073l0.06,0.072l0.07,0.072l0.06,0.071l0.14,0.138l0.06,0.069l0.07,0.068l0.07,0.067l0.07,0.065l0.07,0.064l0.07,0.066l0.08,0.064l0.07,0.061l0.07,0.062l0.08,0.06l0.07,0.061l0.08,0.059l0.08,0.058l0.07,0.057l0.16,0.112l0.16,0.108l0.08,0.052l0.16,0.102l0.09,0.05l0.16,0.096l0.09,0.047l0.08,0.045l0.09,0.045l0.08,0.044l0.18,0.084l0.09,0.041l0.09,0.039l0.18,0.076l0.09,0.036l0.09,0.035l0.09,0.034l0.09,0.033l0.09,0.032l0.1,0.031l0.09,0.03l0.09,0.028l0.1,0.028l0.09,0.026l0.2,0.05l0.09,0.022l0.1,0.022l0.09,0.02l0.1,0.02l0.1,0.018l0.1,0.017l0.1,0.016l0.2,0.028l0.1,0.012l0.1,0.011l0.2,0.018l0.1,0.007l0.11,0.006l0.1,0.004l0.1,0.003l0.11,0.002l0.1,0.001l0.19,0l0.18,-0.002l0.19,-0.002l0.19,-0.003l0.18,-0.004l0.19,-0.005l0.18,-0.006l0.19,-0.007l0.18,-0.007l0.19,-0.009l0.18,-0.009l0.19,-0.01l0.18,-0.011l0.19,-0.012l0.18,-0.013l0.18,-0.014l0.19,-0.014l0.18,-0.016l0.18,-0.016l0.18,-0.017l0.19,-0.018l0.18,-0.019l0.18,-0.02l0.18,-0.02l0.18,-0.022l0.18,-0.022l0.18,-0.023l0.18,-0.024l0.18,-0.025l0.18,-0.026l0.18,-0.026l0.18,-0.027l0.18,-0.029l0.18,-0.029l0.18,-0.029l0.18,-0.031l0.17,-0.032l0.18,-0.032l0.18,-0.033l0.17,-0.034l0.18,-0.035l0.18,-0.035l0.17,-0.037l0.18,-0.037l0.17,-0.038l0.18,-0.039l0.17,-0.039l0.18,-0.041l0.17,-0.041l0.18,-0.042l0.17,-0.043l0.17,-0.043l0.18,-0.045l0.17,-0.045l0.17,-0.046l0.17,-0.047l0.17,-0.047l0.17,-0.049l0.18,-0.049l0.17,-0.05l0.16,-0.05l0.18,-0.051l0.17,-0.053l0.16,-0.053l0.17,-0.054l0.17,-0.054l0.17,-0.055l0.17,-0.056l0.16,-0.057l0.17,-0.058l0.17,-0.058l0.17,-0.059l0.16,-0.06l0.17,-0.06l0.16,-0.062l0.17,-0.062l0.16,-0.063l0.17,-0.063l0.16,-0.064l0.16,-0.066l0.17,-0.066l0.16,-0.066l0.16,-0.067l0.16,-0.068l0.16,-0.069l0.17,-0.069l0.16,-0.07l0.16,-0.071l0.16,-0.072l0.16,-0.072l0.16,-0.073l0.16,-0.074l0.15,-0.074l0.16,-0.075l0.16,-0.076l0.16,-0.077l0.15,-0.077l0.16,-0.078l0.16,-0.079l0.15,-0.079l0.16,-0.08l0.15,-0.081l0.16,-0.081l0.15,-0.083l0.15,-0.082l0.16,-0.084l0.15,-0.084l0.15,-0.085l0.15,-0.085l0.16,-0.087l0.15,-0.087l0.15,-0.087l0.15,-0.088l0.15,-0.089l0.15,-0.09l0.15,-0.09l0.14,-0.091l0.15,-0.091l0.15,-0.093l0.15,-0.093l0.14,-0.093l0.15,-0.095l0.14,-0.094l0.15,-0.095l0.14,-0.097l0.15,-0.097l0.14,-0.097l0.14,-0.098l0.15,-0.099l0.14,-0.099l0.14,-0.1l0.14,-0.101l0.15,-0.101l0.14,-0.102l0.13,-0.102l0.14,-0.103l0.14,-0.104l0.14,-0.104l0.14,-0.105l0.14,-0.106l0.13,-0.107l0.14,-0.106l0.14,-0.107l0.13,-0.108l0.14,-0.109l0.13,-0.109l0.14,-0.11l0.13,-0.111l0.13,-0.111l0.14,-0.112l0.13,-0.112l0.13,-0.112l0.13,-0.115l0.13,-0.113l0.13,-0.114l0.13,-0.116l0.13,-0.115l0.13,-0.116l0.12,-0.117l0.13,-0.118l0.13,-0.118l0.13,-0.119l0.12,-0.119l0.13,-0.12l0.12,-0.12l0.12,-0.121l0.13,-0.122l0.12,-0.121l0.12,-0.123l0.12,-0.123l0.13,-0.124l0.12,-0.124l0.12,-0.124l0.12,-0.125l0.12,-0.126l0.11,-0.127l0.12,-0.127l0.12,-0.127l0.12,-0.128l0.11,-0.129l0.12,-0.129l0.11,-0.129l0.12,-0.131l0.11,-0.131l0.11,-0.13l0.12,-0.131l0.11,-0.134l0.11,-0.132l0.11,-0.132l0.11,-0.135l0.11,-0.135l0.11,-0.133l0.11,-0.136l0.11,-0.136l0.1,-0.137l0.11,-0.136l0.11,-0.137l0.1,-0.138l0.11,-0.138l0.1,-0.138l0.1,-0.139l0.11,-0.141l0.1,-0.14l0.1,-0.141l0.1,-0.141l0.1,-0.141l0.1,-0.142l0.1,-0.143l0.1,-0.144l0.1,-0.143l0.1,-0.144l0.09,-0.143l0.1,-0.145l0.09,-0.146l0.1,-0.147l0.09,-0.146l0.1,-0.146l0.09,-0.147l0.09,-0.148l0.09,-0.149l0.09,-0.149l0.09,-0.148l0.09,-0.149l0.09,-0.15l0.09,-0.15l0.09,-0.151l0.08,-0.152l0.09,-0.151l0.08,-0.152l0.09,-0.152l0.08,-0.153l0.09,-0.154l0.08,-0.154l0.08,-0.153l0.08,-0.156l0.08,-0.154l0.08,-0.155l0.08,-0.157l0.08,-0.156l0.08,-0.156l0.08,-0.158l0.07,-0.157l0.08,-0.158l0.07,-0.159l0.08,-0.158l0.07,-0.158l0.08,-0.16l0.07,-0.161l0.07,-0.159l0.07,-0.16l0.07,-0.163l0.07,-0.161l0.07,-0.161l0.06,-0.162l0.07,-0.163l0.07,-0.163l0.08,-0.207l0.08,-0.207l0.08,-0.208l0.08,-0.209l0.08,-0.21l0.08,-0.209l0.08,-0.211l0.07,-0.21l0.07,-0.211l0.08,-0.213l0.07,-0.212l0.07,-0.213l0.07,-0.214l0.07,-0.213l0.06,-0.215l0.07,-0.215l0.06,-0.216l0.07,-0.217l0.06,-0.216l0.06,-0.217l0.06,-0.218l0.05,-0.218l0.06,-0.218l0.06,-0.22l0.05,-0.22l0.05,-0.219l0.05,-0.221l0.06,-0.22l0.05,-0.223l0.04,-0.223l0.05,-0.222l0.04,-0.222l0.05,-0.224l0.04,-0.223l0.04,-0.225l0.04,-0.224l0.04,-0.225l0.04,-0.226l0.03,-0.228l0.04,-0.225l0.03,-0.227l0.03,-0.228l0.03,-0.227l0.03,-0.229l0.03,-0.229l0.03,-0.229l0.02,-0.228l0.03,-0.231l0.02,-0.231l0.02,-0.231l0.02,-0.232l0.01,-0.229l0.02,-0.233l0.02,-0.233l0.01,-0.232l0.01,-0.233l0.01,-0.233l0.01,-0.235l0.01,-0.234l0.01,-0.236l0,-0.235l0.01,-0.235l0,-0.236l0,-0.231l0,-0.11l0,-0.104l-0.01,-0.099l0,-0.104l-0.01,-0.105l0,-0.1l-0.01,-0.102l-0.01,-0.101l-0.01,-0.101l-0.02,-0.102l-0.01,-0.097l-0.01,-0.099l-0.02,-0.101l-0.01,-0.098l-0.02,-0.099l-0.02,-0.099l-0.02,-0.096l-0.02,-0.096l-0.03,-0.097l-0.02,-0.096l-0.03,-0.094l-0.02,-0.095l-0.03,-0.095l-0.03,-0.094l-0.03,-0.096l-0.03,-0.092l-0.03,-0.09l-0.03,-0.092l-0.04,-0.093l-0.03,-0.092l-0.04,-0.09l-0.04,-0.088l-0.04,-0.091l-0.04,-0.089l-0.04,-0.087l-0.04,-0.088l-0.04,-0.088l-0.04,-0.084l-0.05,-0.088l-0.05,-0.086l-0.04,-0.082l-0.05,-0.086l-0.05,-0.083l-0.05,-0.082l-0.05,-0.084l-0.05,-0.081l-0.05,-0.08l-0.05,-0.079l-0.06,-0.08l-0.05,-0.08l-0.06,-0.079l-0.06,-0.077l-0.06,-0.076l-0.05,-0.076l-0.06,-0.075l-0.06,-0.073l-0.07,-0.076l-0.06,-0.072l-0.06,-0.073l-0.07,-0.072l-0.06,-0.071l-0.07,-0.069l-0.07,-0.068l-0.06,-0.07l-0.07,-0.068l-0.07,-0.067l-0.07,-0.065l-0.07,-0.064l-0.07,-0.066l-0.08,-0.063l-0.07,-0.062l-0.07,-0.061l-0.08,-0.061l-0.07,-0.061l-0.08,-0.059l-0.08,-0.058l-0.07,-0.056l-0.08,-0.056l-0.08,-0.056l-0.08,-0.055l-0.08,-0.054l-0.08,-0.052l-0.08,-0.051l-0.08,-0.051l-0.09,-0.049l-0.08,-0.049l-0.08,-0.048l-0.09,-0.046l-0.08,-0.046l-0.09,-0.045l-0.09,-0.043l-0.08,-0.043l-0.09,-0.042l-0.09,-0.04l-0.09,-0.04l-0.09,-0.038l-0.09,-0.037l-0.09,-0.037l-0.09,-0.035l-0.09,-0.034l-0.09,-0.033l-0.09,-0.032l-0.1,-0.031l-0.09,-0.029l-0.09,-0.029l-0.1,-0.028l-0.09,-0.026l-0.1,-0.025l-0.09,-0.024l-0.1,-0.023l-0.1,-0.022l-0.1,-0.02l-0.09,-0.02l-0.1,-0.018l-0.1,-0.017l-0.1,-0.016l-0.1,-0.014l-0.1,-0.013l-0.1,-0.013l-0.1,-0.01l-0.1,-0.01l-0.1,-0.008l-0.1,-0.008l-0.11,-0.005l-0.1,-0.005l-0.1,-0.003l-0.11,-0.002l-0.1,-0.001l-0.19,0.001Z" style="fill:#fff;"/></g></svg>