<?xml version="1.0" encoding="UTF-8" standalone="no"?>
<!DOCTYPE svg PUBLIC "-//W3C//DTD SVG 1.1//EN" "http://www.w3.org/Graphics/SVG/1.1/DTD/svg11.dtd">
<svg width="100%" height="100%" viewBox="0 0 250 370" version="1.1" xmlns="http://www.w3.org/2000/svg" xmlns:xlink="http://www.w3.org/1999/xlink" xml:space="preserve" style="fill-rule:evenodd;clip-rule:evenodd;">
    <g transform="matrix(1,0,0,1,-716,-716)">
        <g transform="matrix(1,0,0,1,1261,748.638)">
            <g id="g6579.-7" transform="matrix(4,0,0,4,-1260,-1357.09)">
                <path id="rect2987.-8.-5.-9" d="M240,334.862C240,333.482 238.88,332.362 237.5,332.362L182.5,332.362C181.12,332.362 180,333.482 180,334.862L180,419.862C180,421.242 181.12,422.362 182.5,422.362L237.5,422.362C238.88,422.362 240,421.242 240,419.862L240,334.862Z" style="fill:white;stroke:black;stroke-width:0.5px;"/>
                <path id="rect3757.-26.-33.-23" d="M235,338.612C235,337.922 234.44,337.362 233.75,337.362L186.25,337.362C185.56,337.362 185,337.922 185,338.612L185,416.112C185,416.802 185.56,417.362 186.25,417.362L233.75,417.362C234.44,417.362 235,416.802 235,416.112L235,338.612Z" style="fill:rgb(85,170,85);"/>
                <path id="path3773.-0.-4.-8.-4.-60.-3.-7" d="M225,352.362C202.909,352.362 185,370.271 185,392.362C185,397.885 189.477,402.362 195,402.362C217.091,402.362 235,384.454 235,362.362C235,356.839 230.523,352.362 225,352.362Z" style="fill:white;"/>
                <path id="rect3163.-52.-9.-8.-1.-1.-2.-7.-3.-6.-4.-6.-1.-8.-7.-0.-1.-3" d="M210,362.362C205.858,362.362 202.5,365.72 202.5,369.862L207.5,369.862C207.5,368.481 208.619,367.362 210,367.362C211.381,367.362 212.5,368.481 212.5,369.862C212.5,371.243 211.381,372.362 210,372.362L207,372.362L207,377.362L210,377.362C212.77,377.362 215,379.592 215,382.362C215,385.132 212.77,387.362 210,387.362C207.23,387.362 205,385.132 205,382.362L200,382.362C200,387.902 204.46,392.362 210,392.362C215.54,392.362 220,387.902 220,382.362C220,379.068 218.412,376.182 215.969,374.362C216.921,373.105 217.5,371.561 217.5,369.862C217.5,365.72 214.142,362.362 210,362.362Z" style="fill:rgb(85,170,85);fill-rule:nonzero;"/>
                <path id="rect3163.-52.-9.-8.-1.-1.-2.-7.-3.-6.-4.-6.-1.-8.-7.-0.-6.-2.-1" d="M192.5,339.862C190.429,339.862 188.75,341.541 188.75,343.612L191.25,343.612C191.25,342.922 191.81,342.362 192.5,342.362C193.19,342.362 193.75,342.922 193.75,343.612C193.75,344.303 193.19,344.862 192.5,344.862L191,344.862L191,347.362L192.5,347.362C193.885,347.362 195,348.477 195,349.862C195,351.247 193.885,352.362 192.5,352.362C191.115,352.362 190,351.247 190,349.862L187.5,349.862C187.5,352.632 189.73,354.862 192.5,354.862C195.27,354.862 197.5,352.632 197.5,349.862C197.5,348.215 196.706,346.772 195.484,345.862C195.96,345.233 196.25,344.462 196.25,343.612C196.25,341.541 194.571,339.862 192.5,339.862Z" style="fill:white;fill-rule:nonzero;"/>
                <path id="rect3163.-52.-9.-8.-1.-1.-2.-7.-3.-6.-4.-6.-1.-8.-7.-0.-6.-2.-6.-5" d="M227.5,414.862C229.571,414.862 231.25,413.183 231.25,411.112L228.75,411.112C228.75,411.803 228.19,412.362 227.5,412.362C226.81,412.362 226.25,411.803 226.25,411.112C226.25,410.422 226.81,409.862 227.5,409.862L229,409.862L229,407.362L227.5,407.362C226.115,407.362 225,406.247 225,404.862C225,403.477 226.115,402.362 227.5,402.362C228.885,402.362 230,403.477 230,404.862L232.5,404.862C232.5,402.092 230.27,399.862 227.5,399.862C224.73,399.862 222.5,402.092 222.5,404.862C222.5,406.509 223.294,407.952 224.516,408.862C224.04,409.491 223.75,410.263 223.75,411.112C223.75,413.183 225.429,414.862 227.5,414.862Z" style="fill:white;fill-rule:nonzero;"/>
            </g>
        </g>
    </g>
</svg>
