<?xml version="1.0" encoding="UTF-8" standalone="no"?>
<!DOCTYPE svg PUBLIC "-//W3C//DTD SVG 1.1//EN" "http://www.w3.org/Graphics/SVG/1.1/DTD/svg11.dtd">
<svg width="100%" height="100%" viewBox="0 0 250 370" version="1.1" xmlns="http://www.w3.org/2000/svg" xmlns:xlink="http://www.w3.org/1999/xlink" xml:space="preserve" style="fill-rule:evenodd;clip-rule:evenodd;">
    <g transform="matrix(1,0,0,1,-1916,-716)">
        <g transform="matrix(1,0,0,1,1261,748.638)">
            <g id="g6619.-6" transform="matrix(4,0,0,4,-1260,-1357.09)">
                <path id="rect2987.-8.-5.-8.-3" d="M540,334.862C540,333.482 538.88,332.362 537.5,332.362L482.5,332.362C481.12,332.362 480,333.482 480,334.862L480,419.862C480,421.242 481.12,422.362 482.5,422.362L537.5,422.362C538.88,422.362 540,421.242 540,419.862L540,334.862Z" style="fill:white;stroke:black;stroke-width:0.5px;"/>
                <path id="rect3757.-26.-33.-9.-6" d="M535,338.612C535,337.922 534.44,337.362 533.75,337.362L486.25,337.362C485.56,337.362 485,337.922 485,338.612L485,416.112C485,416.802 485.56,417.362 486.25,417.362L533.75,417.362C534.44,417.362 535,416.802 535,416.112L535,338.612Z" style="fill:rgb(85,170,85);"/>
                <path id="path3773.-0.-4.-8.-4.-60.-3.-0.-5" d="M525,352.362C502.909,352.362 485,370.271 485,392.362C485,397.885 489.477,402.362 495,402.362C517.091,402.362 535,384.454 535,362.362C535,356.839 530.523,352.362 525,352.362Z" style="fill:white;"/>
                <path id="rect3163.-52.-9.-8.-1.-1.-2.-7.-3.-6.-4.-6.-1.-8.-8.-5.-2" d="M510,362.362C505.858,362.362 502.5,365.72 502.5,369.862C502.5,371.561 503.079,373.105 504.031,374.362C501.588,376.182 500,379.068 500,382.362C500,387.902 504.46,392.362 510,392.362C515.54,392.362 520,387.902 520,382.362C520,379.068 518.412,376.182 515.969,374.362C516.921,373.105 517.5,371.561 517.5,369.862C517.5,365.72 514.142,362.362 510,362.362ZM510,367.362C511.381,367.362 512.5,368.481 512.5,369.862C512.5,371.243 511.381,372.362 510,372.362C508.619,372.362 507.5,371.243 507.5,369.862C507.5,368.481 508.619,367.362 510,367.362ZM509.5,377.362C509.668,377.345 509.827,377.362 510,377.362C512.77,377.362 515,379.592 515,382.362C515,385.132 512.77,387.362 510,387.362C507.23,387.362 505,385.132 505,382.362C505,379.765 506.973,377.617 509.5,377.362Z" style="fill:rgb(85,170,85);fill-rule:nonzero;"/>
                <path id="rect3163.-52.-9.-8.-1.-1.-2.-7.-3.-6.-4.-6.-1.-8.-8.-2.-1.-8" d="M492.5,339.862C490.429,339.862 488.75,341.541 488.75,343.612C488.75,344.462 489.04,345.233 489.516,345.862C488.294,346.772 487.5,348.215 487.5,349.862C487.5,352.632 489.73,354.862 492.5,354.862C495.27,354.862 497.5,352.632 497.5,349.862C497.5,348.215 496.706,346.772 495.484,345.862C495.96,345.233 496.25,344.462 496.25,343.612C496.25,341.541 494.571,339.862 492.5,339.862ZM492.5,342.362C493.19,342.362 493.75,342.922 493.75,343.612C493.75,344.303 493.19,344.862 492.5,344.862C491.81,344.862 491.25,344.303 491.25,343.612C491.25,342.922 491.81,342.362 492.5,342.362ZM492.25,347.362C492.334,347.353 492.413,347.362 492.5,347.362C493.885,347.362 495,348.477 495,349.862C495,351.247 493.885,352.362 492.5,352.362C491.115,352.362 490,351.247 490,349.862C490,348.564 490.986,347.49 492.25,347.362Z" style="fill:white;fill-rule:nonzero;"/>
                <path id="rect3163.-52.-9.-8.-1.-1.-2.-7.-3.-6.-4.-6.-1.-8.-8.-2.-1.-1.-1" d="M527.5,414.862C525.429,414.862 523.75,413.183 523.75,411.112C523.75,410.263 524.04,409.491 524.516,408.862C523.294,407.952 522.5,406.509 522.5,404.862C522.5,402.092 524.73,399.862 527.5,399.862C530.27,399.862 532.5,402.092 532.5,404.862C532.5,406.509 531.706,407.952 530.484,408.862C530.96,409.491 531.25,410.263 531.25,411.112C531.25,413.183 529.571,414.862 527.5,414.862ZM527.5,412.362C528.19,412.362 528.75,411.803 528.75,411.112C528.75,410.422 528.19,409.862 527.5,409.862C526.81,409.862 526.25,410.422 526.25,411.112C526.25,411.803 526.81,412.362 527.5,412.362ZM527.25,407.362C527.334,407.371 527.413,407.362 527.5,407.362C528.885,407.362 530,406.247 530,404.862C530,403.477 528.885,402.362 527.5,402.362C526.115,402.362 525,403.477 525,404.862C525,406.161 525.986,407.235 527.25,407.362Z" style="fill:white;fill-rule:nonzero;"/>
            </g>
        </g>
    </g>
</svg>
