<?xml version="1.0" encoding="UTF-8" standalone="no"?>
<!DOCTYPE svg PUBLIC "-//W3C//DTD SVG 1.1//EN" "http://www.w3.org/Graphics/SVG/1.1/DTD/svg11.dtd">
<svg width="100%" height="100%" viewBox="0 0 250 370" version="1.1" xmlns="http://www.w3.org/2000/svg" xmlns:xlink="http://www.w3.org/1999/xlink" xml:space="preserve" style="fill-rule:evenodd;clip-rule:evenodd;">
    <g transform="matrix(1,0,0,1,-3116,-1436)">
        <g transform="matrix(1,0,0,1,1261,748.638)">
            <g id="g6694" transform="matrix(4,0,0,4,-1260,-2077.09)">
                <path id="rect2987.-8.-5.-81.-2.-1" d="M840,694.862C840,693.482 838.88,692.362 837.5,692.362L782.5,692.362C781.12,692.362 780,693.482 780,694.862L780,779.862C780,781.242 781.12,782.362 782.5,782.362L837.5,782.362C838.88,782.362 840,781.242 840,779.862L840,694.862Z" style="fill:white;stroke:black;stroke-width:0.5px;"/>
                <path id="rect3757.-26.-33.-5.-9.-9" d="M835,698.612C835,697.922 834.44,697.362 833.75,697.362L786.25,697.362C785.56,697.362 785,697.922 785,698.612L785,776.112C785,776.802 785.56,777.362 786.25,777.362L833.75,777.362C834.44,777.362 835,776.802 835,776.112L835,698.612Z"/>
                <path id="path3773.-0.-4.-8.-4.-60.-3.-86.-5.-6" d="M825,712.362C802.909,712.362 785,730.271 785,752.362C785,757.885 789.477,762.362 795,762.362C817.091,762.362 835,744.454 835,722.362C835,716.839 830.523,712.362 825,712.362Z" style="fill:white;"/>
                <path id="rect3980.-7.-6.-2.-9.-5.-60.-5.-3.-1.-5" d="M799.9,699.862L795,709.862L795,712.362L801,712.362L801,714.862L803.5,714.862L803.5,712.362L805,712.362L805,709.862L803.5,709.862L803.5,704.862L801,704.862L801,709.862L797.6,709.862L802.5,699.862L799.9,699.862Z" style="fill:white;fill-rule:nonzero;"/>
                <path id="rect5649.-4" d="M788.5,704.862L788.5,707.362L786,707.362L786,709.862L788.5,709.862L788.5,712.362L791,712.362L791,709.862L793.5,709.862L793.5,707.362L791,707.362L791,704.862L788.5,704.862Z" style="fill:white;"/>
                <path id="rect3980.-7.-6.-2.-9.-5.-60.-5.-3.-1.-8.-9" d="M820.1,774.862L825,764.862L825,762.362L819,762.362L819,759.862L816.5,759.862L816.5,762.362L815,762.362L815,764.862L816.5,764.862L816.5,769.862L819,769.862L819,764.862L822.4,764.862L817.5,774.862L820.1,774.862Z" style="fill:white;fill-rule:nonzero;"/>
                <path id="rect5649.-1.-1" d="M831.5,769.862L831.5,767.362L834,767.362L834,764.862L831.5,764.862L831.5,762.362L829,762.362L829,764.862L826.5,764.862L826.5,767.362L829,767.362L829,769.862L831.5,769.862Z" style="fill:white;"/>
                <g id="g6111.-38.-2" transform="matrix(1,0,0,1,120,430)">
                    <g id="rect6095.-2.-9" transform="matrix(1,0,-0.274722,0.961524,0,0)">
                        <path d="M777.461,307.311C777.461,306.953 777.181,306.661 776.836,306.661L763.086,306.661C762.741,306.661 762.461,306.953 762.461,307.311L762.461,329.412C762.461,329.77 762.741,330.062 763.086,330.062L776.836,330.062C777.181,330.062 777.461,329.77 777.461,329.412L777.461,307.311Z" style="fill:white;stroke:black;stroke-width:0.51px;"/>
                    </g>
                    <g id="rect6097.-5.-7" transform="matrix(1,0,-0.274722,0.961524,0,0)">
                        <path d="M774.961,309.911C774.961,309.553 774.681,309.261 774.336,309.261L765.586,309.261C765.241,309.261 764.961,309.553 764.961,309.911L764.961,326.812C764.961,327.17 765.241,327.462 765.586,327.462L774.336,327.462C774.681,327.462 774.961,327.17 774.961,326.812L774.961,309.911Z" style="fill:rgb(255,85,85);"/>
                    </g>
                </g>
                <g id="g6111.-62.-2.-1" transform="matrix(1,0,0,1,130,422.5)">
                    <g id="rect6095.-14.-0.-3" transform="matrix(1,0,-0.274722,0.961524,0,0)">
                        <path d="M777.461,307.311C777.461,306.953 777.181,306.661 776.836,306.661L763.086,306.661C762.741,306.661 762.461,306.953 762.461,307.311L762.461,329.412C762.461,329.77 762.741,330.062 763.086,330.062L776.836,330.062C777.181,330.062 777.461,329.77 777.461,329.412L777.461,307.311Z" style="fill:white;stroke:black;stroke-width:0.51px;"/>
                    </g>
                    <g id="rect6097.-6.-3.-2" transform="matrix(1,0,-0.274722,0.961524,0,0)">
                        <path d="M774.961,309.911C774.961,309.553 774.681,309.261 774.336,309.261L765.586,309.261C765.241,309.261 764.961,309.553 764.961,309.911L764.961,326.812C764.961,327.17 765.241,327.462 765.586,327.462L774.336,327.462C774.681,327.462 774.961,327.17 774.961,326.812L774.961,309.911Z" style="fill:rgb(85,85,255);"/>
                    </g>
                </g>
                <g id="g6111.-3.-5" transform="matrix(1,0,0,1,127.5,437.5)">
                    <g id="rect6095.-0.-3" transform="matrix(1,0,-0.274722,0.961524,0,0)">
                        <path d="M777.461,307.311C777.461,306.953 777.181,306.661 776.836,306.661L763.086,306.661C762.741,306.661 762.461,306.953 762.461,307.311L762.461,329.412C762.461,329.77 762.741,330.062 763.086,330.062L776.836,330.062C777.181,330.062 777.461,329.77 777.461,329.412L777.461,307.311Z" style="fill:white;stroke:black;stroke-width:0.51px;"/>
                    </g>
                    <g id="rect6097.-7.-4" transform="matrix(1,0,-0.274722,0.961524,0,0)">
                        <path d="M774.961,309.911C774.961,309.553 774.681,309.261 774.336,309.261L765.586,309.261C765.241,309.261 764.961,309.553 764.961,309.911L764.961,326.812C764.961,327.17 765.241,327.462 765.586,327.462L774.336,327.462C774.681,327.462 774.961,327.17 774.961,326.812L774.961,309.911Z" style="fill:rgb(255,170,0);"/>
                    </g>
                </g>
                <g id="g6111.-62.-7.-3" transform="matrix(1,0,0,1,137.5,430)">
                    <g id="rect6095.-14.-8.-2" transform="matrix(1,0,-0.274722,0.961524,0,0)">
                        <path d="M777.461,307.311C777.461,306.953 777.181,306.661 776.836,306.661L763.086,306.661C762.741,306.661 762.461,306.953 762.461,307.311L762.461,329.412C762.461,329.77 762.741,330.062 763.086,330.062L776.836,330.062C777.181,330.062 777.461,329.77 777.461,329.412L777.461,307.311Z" style="fill:white;stroke:black;stroke-width:0.51px;"/>
                    </g>
                    <g id="rect6097.-6.-7.-1" transform="matrix(1,0,-0.274722,0.961524,0,0)">
                        <path d="M774.961,309.911C774.961,309.553 774.681,309.261 774.336,309.261L765.586,309.261C765.241,309.261 764.961,309.553 764.961,309.911L764.961,326.812C764.961,327.17 765.241,327.462 765.586,327.462L774.336,327.462C774.681,327.462 774.961,327.17 774.961,326.812L774.961,309.911Z" style="fill:rgb(85,170,85);"/>
                    </g>
                </g>
            </g>
        </g>
    </g>
</svg>
