<?xml version="1.0" encoding="UTF-8" standalone="no"?>
<!DOCTYPE svg PUBLIC "-//W3C//DTD SVG 1.1//EN" "http://www.w3.org/Graphics/SVG/1.1/DTD/svg11.dtd">
<svg width="100%" height="100%" viewBox="0 0 250 370" version="1.1" xmlns="http://www.w3.org/2000/svg" xmlns:xlink="http://www.w3.org/1999/xlink" xml:space="preserve" style="fill-rule:evenodd;clip-rule:evenodd;">
    <g transform="matrix(1,0,0,1,-236,4)">
        <g transform="matrix(1,0,0,1,1261,748.638)">
            <g id="g6563" transform="matrix(4,0,0,4,-1260,-2077.09)">
                <path id="rect2987" d="M120,334.862C120,333.482 118.88,332.362 117.5,332.362L62.5,332.362C61.12,332.362 60,333.482 60,334.862L60,419.862C60,421.242 61.12,422.362 62.5,422.362L117.5,422.362C118.88,422.362 120,421.242 120,419.862L120,334.862Z" style="fill:white;stroke:black;stroke-width:0.5px;"/>
                <path id="rect3757" d="M115,338.612C115,337.922 114.44,337.362 113.75,337.362L66.25,337.362C65.56,337.362 65,337.922 65,338.612L65,416.112C65,416.802 65.56,417.362 66.25,417.362L113.75,417.362C114.44,417.362 115,416.802 115,416.112L115,338.612Z" style="fill:rgb(255,85,85);"/>
                <path id="path3773.-0.-4.-8.-4" d="M105,352.362C82.909,352.362 65,370.271 65,392.362C65,397.885 69.477,402.362 75,402.362C97.091,402.362 115,384.454 115,362.362C115,356.839 110.523,352.362 105,352.362Z" style="fill:white;"/>
                <path id="rect3921" d="M88,362.362L83,367.362L83,373.362L88,368.362L88,392.362L93,392.362L93,362.362L88,362.362Z" style="fill:rgb(255,85,85);"/>
                <path id="rect3921.-5" d="M70,339.862L67.5,342.362L67.5,345.362L70,342.862L70,354.862L72.5,354.862L72.5,339.862L70,339.862Z" style="fill:white;"/>
                <path id="rect3921.-5.-5" d="M110,414.862L112.5,412.362L112.5,409.362L110,411.862L110,399.862L107.5,399.862L107.5,414.862L110,414.862Z" style="fill:white;"/>
            </g>
        </g>
    </g>
</svg>
