<?xml version="1.0" encoding="UTF-8" standalone="no"?>
<!DOCTYPE svg PUBLIC "-//W3C//DTD SVG 1.1//EN" "http://www.w3.org/Graphics/SVG/1.1/DTD/svg11.dtd">
<svg width="100%" height="100%" viewBox="0 0 250 370" version="1.1" xmlns="http://www.w3.org/2000/svg" xmlns:xlink="http://www.w3.org/1999/xlink" xml:space="preserve" style="fill-rule:evenodd;clip-rule:evenodd;">
    <g transform="matrix(1,0,0,1,-2156,4)">
        <g transform="matrix(1,0,0,1,1261,748.638)">
            <g id="g6627" transform="matrix(4,0,0,4,-1260,-2077.09)">
                <path id="rect2987.-8.-5.-81" d="M600,334.862C600,333.482 598.88,332.362 597.5,332.362L542.5,332.362C541.12,332.362 540,333.482 540,334.862L540,419.862C540,421.242 541.12,422.362 542.5,422.362L597.5,422.362C598.88,422.362 600,421.242 600,419.862L600,334.862Z" style="fill:white;stroke:black;stroke-width:0.5px;"/>
                <path id="rect3757.-26.-33.-5" d="M595,338.612C595,337.922 594.44,337.362 593.75,337.362L546.25,337.362C545.56,337.362 545,337.922 545,338.612L545,416.112C545,416.802 545.56,417.362 546.25,417.362L593.75,417.362C594.44,417.362 595,416.802 595,416.112L595,338.612Z" style="fill:rgb(255,85,85);"/>
                <path id="path3773.-0.-4.-8.-4.-60.-3.-86" d="M585,352.362C562.909,352.362 545,370.271 545,392.362C545,397.885 549.477,402.362 555,402.362C577.091,402.362 595,384.454 595,362.362C595,356.839 590.523,352.362 585,352.362Z" style="fill:white;"/>
                <path id="path3962.-5.-8" d="M570,362.362C564.477,362.362 560,366.839 560,372.362C560,377.885 564.477,382.362 570,382.362C571.817,382.362 573.532,381.865 575,381.018L575,382.362C575,385.124 572.761,387.362 570,387.362C568.046,387.362 566.385,386.215 565.563,384.581L561.063,386.831C562.702,390.115 566.08,392.362 570,392.362C575.523,392.362 580,387.885 580,382.362L580,372.362C580,366.839 575.523,362.362 570,362.362ZM570,367.362C572.761,367.362 575,369.601 575,372.362C575,375.124 572.761,377.362 570,377.362C567.239,377.362 565,375.124 565,372.362C565,369.601 567.239,367.362 570,367.362ZM565,393.362L565,395.362L575,395.362L575,393.362L565,393.362Z" style="fill:rgb(255,85,85);"/>
                <path id="path3962.-5.-6.-2.-1.-9" d="M552.5,354.862C555.261,354.862 557.5,352.624 557.5,349.862L557.5,344.862C557.5,342.101 555.261,339.862 552.5,339.862C549.739,339.862 547.5,342.101 547.5,344.862C547.5,347.624 549.739,349.862 552.5,349.862C553.409,349.862 554.266,349.614 555,349.19L555,349.862C555,351.243 553.881,352.362 552.5,352.362C551.523,352.362 550.692,351.789 550.281,350.972L548.031,352.097C548.851,353.739 550.54,354.862 552.5,354.862ZM552.5,347.362C551.119,347.362 550,346.243 550,344.862C550,343.481 551.119,342.362 552.5,342.362C553.881,342.362 555,343.481 555,344.862C555,346.243 553.881,347.362 552.5,347.362Z" style="fill:white;"/>
                <path id="path3962.-5.-6.-2.-1.-8.-7" d="M587.5,399.862C584.739,399.862 582.5,402.101 582.5,404.862L582.5,409.862C582.5,412.624 584.739,414.862 587.5,414.862C590.261,414.862 592.5,412.624 592.5,409.862C592.5,407.101 590.261,404.862 587.5,404.862C586.592,404.862 585.734,405.111 585,405.534L585,404.862C585,403.481 586.119,402.362 587.5,402.362C588.477,402.362 589.308,402.936 589.719,403.753L591.969,402.628C591.149,400.986 589.46,399.862 587.5,399.862ZM587.5,407.362C588.881,407.362 590,408.481 590,409.862C590,411.243 588.881,412.362 587.5,412.362C586.119,412.362 585,411.243 585,409.862C585,408.481 586.119,407.362 587.5,407.362Z" style="fill:white;"/>
            </g>
        </g>
    </g>
</svg>
