<?xml version="1.0" encoding="UTF-8" standalone="no"?>
<!DOCTYPE svg PUBLIC "-//W3C//DTD SVG 1.1//EN" "http://www.w3.org/Graphics/SVG/1.1/DTD/svg11.dtd">
<svg width="100%" height="100%" viewBox="0 0 250 370" version="1.1" xmlns="http://www.w3.org/2000/svg" xmlns:xlink="http://www.w3.org/1999/xlink" xml:space="preserve" style="fill-rule:evenodd;clip-rule:evenodd;">
    <g transform="matrix(1,0,0,1,-1196,4)">
        <g transform="matrix(1,0,0,1,1261,748.638)">
            <g id="g6595" transform="matrix(4,0,0,4,-1260,-2077.09)">
                <path id="rect2987.-8.-5.-6" d="M360,334.862C360,333.482 358.88,332.362 357.5,332.362L302.5,332.362C301.12,332.362 300,333.482 300,334.862L300,419.862C300,421.242 301.12,422.362 302.5,422.362L357.5,422.362C358.88,422.362 360,421.242 360,419.862L360,334.862Z" style="fill:white;stroke:black;stroke-width:0.5px;"/>
                <path id="rect3757.-26.-33.-81" d="M355,338.612C355,337.922 354.44,337.362 353.75,337.362L306.25,337.362C305.56,337.362 305,337.922 305,338.612L305,416.112C305,416.802 305.56,417.362 306.25,417.362L353.75,417.362C354.44,417.362 355,416.802 355,416.112L355,338.612Z" style="fill:rgb(255,85,85);"/>
                <path id="path3773.-0.-4.-8.-4.-60.-3.-9" d="M345,352.362C322.909,352.362 305,370.271 305,392.362C305,397.885 309.477,402.362 315,402.362C337.091,402.362 355,384.454 355,362.362C355,356.839 350.523,352.362 345,352.362Z" style="fill:white;"/>
                <path id="rect3163.-6.-0.-0.-2.-7.-1.-2.-19.-4" d="M321,362.362L321,377.362L331,377.362C333.77,377.362 336,379.592 336,382.362C336,385.132 333.77,387.362 331,387.362C328.23,387.362 326,385.132 326,382.362L321,382.362C321,387.902 325.46,392.362 331,392.362C336.54,392.362 341,387.902 341,382.362C341,376.822 336.54,372.362 331,372.362L326,372.362L326,367.362L340,367.362L340,362.362L331,362.362L326,362.362L321,362.362Z" style="fill:rgb(255,85,85);fill-rule:nonzero;"/>
                <path id="rect3163.-6.-0.-0.-2.-7.-1.-2.-19.-2.-4" d="M307.5,339.862L307.5,347.362L312.5,347.362C313.885,347.362 315,348.477 315,349.862C315,351.247 313.885,352.362 312.5,352.362C311.115,352.362 310,351.247 310,349.862L307.5,349.862C307.5,352.632 309.73,354.862 312.5,354.862C315.27,354.862 317.5,352.632 317.5,349.862C317.5,347.092 315.27,344.862 312.5,344.862L310,344.862L310,342.362L317,342.362L317,339.862L312.5,339.862L310,339.862L307.5,339.862Z" style="fill:white;fill-rule:nonzero;"/>
                <path id="rect3163.-6.-0.-0.-2.-7.-1.-2.-19.-2.-4.-6" d="M352.5,414.862L352.5,409.862L352.5,407.362L347.5,407.362C346.115,407.362 345,406.247 345,404.862C345,403.477 346.115,402.362 347.5,402.362C348.885,402.362 350,403.477 350,404.862L352.5,404.862C352.5,402.092 350.27,399.862 347.5,399.862C344.73,399.862 342.5,402.092 342.5,404.862C342.5,407.632 344.73,409.862 347.5,409.862L350,409.862L350,412.362L347.5,412.362L343,412.362L343,414.862L352.5,414.862Z" style="fill:white;fill-rule:nonzero;"/>
            </g>
        </g>
    </g>
</svg>
