<?xml version="1.0" encoding="UTF-8" standalone="no"?>
<!DOCTYPE svg PUBLIC "-//W3C//DTD SVG 1.1//EN" "http://www.w3.org/Graphics/SVG/1.1/DTD/svg11.dtd">
<svg width="100%" height="100%" viewBox="0 0 250 370" version="1.1" xmlns="http://www.w3.org/2000/svg" xmlns:xlink="http://www.w3.org/1999/xlink" xml:space="preserve" style="fill-rule:evenodd;clip-rule:evenodd;">
    <g transform="matrix(1,0,0,1,-2876,-356)">
        <g transform="matrix(1,0,0,1,1261,748.638)">
            <g id="g9433.-0" transform="matrix(4,0,0,4,-2040,-3517.09)">
                <path id="rect2987.-8.-5.-81.-7.-4.-9.-0" d="M975,784.862C975,783.482 973.88,782.362 972.5,782.362L917.5,782.362C916.12,782.362 915,783.482 915,784.862L915,869.862C915,871.242 916.12,872.362 917.5,872.362L972.5,872.362C973.88,872.362 975,871.242 975,869.862L975,784.862Z" style="fill:white;stroke:black;stroke-width:0.5px;"/>
                <path id="rect3757.-26.-33.-5.-2.-7.-9.-8" d="M970,788.612C970,787.922 969.44,787.362 968.75,787.362L921.25,787.362C920.56,787.362 920,787.922 920,788.612L920,866.112C920,866.802 920.56,867.362 921.25,867.362L968.75,867.362C969.44,867.362 970,866.802 970,866.112L970,788.612Z" style="fill:rgb(255,170,0);"/>
                <path id="path3773.-0.-4.-8.-4.-60.-3.-86.-29.-8.-8.-8" d="M960,802.362C937.909,802.362 920,820.271 920,842.362C920,847.885 924.477,852.362 930,852.362C952.091,852.362 970,834.454 970,812.362C970,806.839 965.523,802.362 960,802.362Z" style="fill:white;"/>
                <g id="rect6095.-5.-3.-3.-2" transform="matrix(1,0,-0.274722,0.961524,0,0)">
                    <path d="M1184.96,853.32C1184.96,852.961 1184.68,852.67 1184.34,852.67L1170.59,852.67C1170.24,852.67 1169.96,852.961 1169.96,853.32L1169.96,875.42C1169.96,875.779 1170.24,876.07 1170.59,876.07L1184.34,876.07C1184.68,876.07 1184.96,875.779 1184.96,875.42L1184.96,853.32Z" style="fill:white;stroke:black;stroke-width:0.51px;"/>
                </g>
                <g id="rect6097.-3.-7.-8.-3" transform="matrix(1,0,-0.274722,0.961524,0,0)">
                    <path d="M1182.46,855.92C1182.46,855.561 1182.18,855.27 1181.84,855.27L1173.09,855.27C1172.74,855.27 1172.46,855.561 1172.46,855.92L1172.46,872.82C1172.46,873.179 1172.74,873.47 1173.09,873.47L1181.84,873.47C1182.18,873.47 1182.46,873.179 1182.46,872.82L1182.46,855.92Z" style="fill:rgb(255,170,0);"/>
                </g>
                <g id="rect6095.-1.-1.-6.-0" transform="matrix(1,0,-0.274722,0.961524,0,0)">
                    <path d="M1192.82,845.52C1192.82,845.161 1192.54,844.87 1192.19,844.87L1178.44,844.87C1178.1,844.87 1177.82,845.161 1177.82,845.52L1177.82,867.62C1177.82,867.979 1178.1,868.27 1178.44,868.27L1192.19,868.27C1192.54,868.27 1192.82,867.979 1192.82,867.62L1192.82,845.52Z" style="fill:white;stroke:black;stroke-width:0.51px;"/>
                </g>
                <g id="rect6097.-8.-0.-9.-6" transform="matrix(1,0,-0.274722,0.961524,0,0)">
                    <path d="M1190.32,848.12C1190.32,847.761 1190.04,847.47 1189.69,847.47L1180.94,847.47C1180.6,847.47 1180.32,847.761 1180.32,848.12L1180.32,865.02C1180.32,865.379 1180.6,865.67 1180.94,865.67L1189.69,865.67C1190.04,865.67 1190.32,865.379 1190.32,865.02L1190.32,848.12Z" style="fill:rgb(255,170,0);"/>
                </g>
                <path id="rect5649.-4.-2.-7.-81.-5" d="M923.5,794.862L923.5,797.362L921,797.362L921,799.862L923.5,799.862L923.5,802.362L926,802.362L926,799.862L928.5,799.862L928.5,797.362L926,797.362L926,794.862L923.5,794.862Z" style="fill:white;"/>
                <path id="rect3163.-52.-9.-8.-1.-1.-2.-7.-3.-6.-0.-9.-5.-9.-2.-8.-0" d="M935,789.862C932.23,789.862 930,792.092 930,794.862L930,795.362L932.5,795.362L932.5,794.862C932.5,793.477 933.615,792.362 935,792.362C936.385,792.362 937.5,793.477 937.5,794.862C937.5,795.426 937.032,796.532 936.544,796.917C933.891,799.004 933.919,798.659 930,801.362L930,804.862L940,804.862L940,802.362L940,801.362L937.5,801.362L937.5,802.362L935,802.362L933,802.362C936.095,800.183 936.321,800.236 938.747,798.065C939.524,797.37 940,795.99 940,794.862C940,792.092 937.77,789.862 935,789.862Z" style="fill:white;fill-rule:nonzero;"/>
                <path id="rect5649.-4.-2.-7.-0.-3.-9" d="M966.5,859.862L966.5,857.362L969,857.362L969,854.862L966.5,854.862L966.5,852.362L964,852.362L964,854.862L961.5,854.862L961.5,857.362L964,857.362L964,859.862L966.5,859.862Z" style="fill:white;"/>
                <path id="rect3163.-52.-9.-8.-1.-1.-2.-7.-3.-6.-0.-9.-5.-9.-2.-2.-03.-7" d="M955,864.862C957.77,864.862 960,862.632 960,859.862L960,859.362L957.5,859.362L957.5,859.862C957.5,861.247 956.385,862.362 955,862.362C953.615,862.362 952.5,861.247 952.5,859.862C952.5,859.299 952.968,858.192 953.456,857.808C956.109,855.72 956.081,856.065 960,853.362L960,849.862L955,849.862L950,849.862L950,853.362L952.5,853.362L952.5,852.362L957,852.362C953.905,854.542 953.679,854.489 951.253,856.659C950.476,857.355 950,858.735 950,859.862C950,862.632 952.23,864.862 955,864.862Z" style="fill:white;fill-rule:nonzero;"/>
            </g>
        </g>
    </g>
</svg>
