<?xml version="1.0" encoding="UTF-8" standalone="no"?>
<!DOCTYPE svg PUBLIC "-//W3C//DTD SVG 1.1//EN" "http://www.w3.org/Graphics/SVG/1.1/DTD/svg11.dtd">
<svg width="100%" height="100%" viewBox="0 0 250 370" version="1.1" xmlns="http://www.w3.org/2000/svg" xmlns:xlink="http://www.w3.org/1999/xlink" xml:space="preserve" style="fill-rule:evenodd;clip-rule:evenodd;">
    <g transform="matrix(1,0,0,1,-476,4)">
        <g transform="matrix(1,0,0,1,1261,748.638)">
            <g id="g6571" transform="matrix(4,0,0,4,-1260,-2077.09)">
                <path id="rect2987.-8" d="M180,334.862C180,333.482 178.88,332.362 177.5,332.362L122.5,332.362C121.12,332.362 120,333.482 120,334.862L120,419.862C120,421.242 121.12,422.362 122.5,422.362L177.5,422.362C178.88,422.362 180,421.242 180,419.862L180,334.862Z" style="fill:white;stroke:black;stroke-width:0.5px;"/>
                <path id="rect3757.-26" d="M175,338.612C175,337.922 174.44,337.362 173.75,337.362L126.25,337.362C125.56,337.362 125,337.922 125,338.612L125,416.112C125,416.802 125.56,417.362 126.25,417.362L173.75,417.362C174.44,417.362 175,416.802 175,416.112L175,338.612Z" style="fill:rgb(255,85,85);"/>
                <path id="path3773.-0.-4.-8.-4.-60" d="M165,352.362C142.909,352.362 125,370.271 125,392.362C125,397.885 129.477,402.362 135,402.362C157.091,402.362 175,384.454 175,362.362C175,356.839 170.523,352.362 165,352.362Z" style="fill:white;"/>
                <path id="rect3163.-52.-9.-8.-1.-1.-2.-7.-3.-6.-5" d="M149,362.362C143.46,362.362 139,366.822 139,372.362L139,373.362L144,373.362L144,372.362C144,369.592 146.23,367.362 149,367.362C151.77,367.362 154,369.592 154,372.362C154,373.49 153.064,375.702 152.088,376.471C146.783,380.646 146.839,379.957 139,385.362L139,392.362L159,392.362L159,387.362L159,385.362L154,385.362L154,387.362L149,387.362L145,387.362C151.19,383.003 151.643,383.109 156.493,378.768C158.047,377.378 159,374.617 159,372.362C159,366.822 154.54,362.362 149,362.362Z" style="fill:rgb(255,85,85);fill-rule:nonzero;"/>
                <path id="rect3163.-52.-9.-8.-1.-1.-2.-7.-3.-6.-0.-9" d="M132.5,339.862C129.73,339.862 127.5,342.092 127.5,344.862L127.5,345.362L130,345.362L130,344.862C130,343.477 131.115,342.362 132.5,342.362C133.885,342.362 135,343.477 135,344.862C135,345.426 134.532,346.532 134.044,346.917C131.391,349.004 131.419,348.659 127.5,351.362L127.5,354.862L137.5,354.862L137.5,352.362L137.5,351.362L135,351.362L135,352.362L132.5,352.362L130.5,352.362C133.595,350.183 133.821,350.236 136.247,348.065C137.024,347.37 137.5,345.99 137.5,344.862C137.5,342.092 135.27,339.862 132.5,339.862Z" style="fill:white;fill-rule:nonzero;"/>
                <path id="rect3163.-52.-9.-8.-1.-1.-2.-7.-3.-6.-0.-4" d="M167.5,414.862C170.27,414.862 172.5,412.632 172.5,409.862L172.5,409.362L170,409.362L170,409.862C170,411.247 168.885,412.362 167.5,412.362C166.115,412.362 165,411.247 165,409.862C165,409.298 165.468,408.192 165.956,407.808C168.609,405.72 168.581,406.065 172.5,403.362L172.5,399.862L167.5,399.862L162.5,399.862L162.5,403.362L165,403.362L165,402.362L169.5,402.362C166.405,404.542 166.179,404.489 163.753,406.659C162.976,407.354 162.5,408.735 162.5,409.862C162.5,412.632 164.73,414.862 167.5,414.862Z" style="fill:white;fill-rule:nonzero;"/>
            </g>
        </g>
    </g>
</svg>
