<?xml version="1.0" encoding="UTF-8" standalone="no"?>
<!DOCTYPE svg PUBLIC "-//W3C//DTD SVG 1.1//EN" "http://www.w3.org/Graphics/SVG/1.1/DTD/svg11.dtd">
<svg width="100%" height="100%" viewBox="0 0 250 370" version="1.1" xmlns="http://www.w3.org/2000/svg" xmlns:xlink="http://www.w3.org/1999/xlink" xml:space="preserve" style="fill-rule:evenodd;clip-rule:evenodd;">
    <g transform="matrix(1,0,0,1,-1436,-1076)">
        <g transform="matrix(1,0,0,1,1261,748.638)">
            <g id="g6603.-2" transform="matrix(4,0,0,4,-1260,-997.087)">
                <path id="rect2987.-8.-5.-7.-2" d="M420,334.862C420,333.482 418.88,332.362 417.5,332.362L362.5,332.362C361.12,332.362 360,333.482 360,334.862L360,419.862C360,421.242 361.12,422.362 362.5,422.362L417.5,422.362C418.88,422.362 420,421.242 420,419.862L420,334.862Z" style="fill:white;stroke:black;stroke-width:0.5px;"/>
                <path id="rect3757.-26.-33.-2.-2" d="M415,338.612C415,337.922 414.44,337.362 413.75,337.362L366.25,337.362C365.56,337.362 365,337.922 365,338.612L365,416.112C365,416.802 365.56,417.362 366.25,417.362L413.75,417.362C414.44,417.362 415,416.802 415,416.112L415,338.612Z" style="fill:rgb(85,85,255);"/>
                <path id="path3773.-0.-4.-8.-4.-60.-3.-2.-7" d="M405,352.362C382.909,352.362 365,370.271 365,392.362C365,397.885 369.477,402.362 375,402.362C397.091,402.362 415,384.454 415,362.362C415,356.839 410.523,352.362 405,352.362Z" style="fill:white;"/>
                <path id="path3962.-5.-6.-2.-0" d="M390,362.362C384.477,362.362 380,366.839 380,372.362L380,382.362C380,387.885 384.477,392.362 390,392.362C395.523,392.362 400,387.885 400,382.362C400,376.839 395.523,372.362 390,372.362C388.183,372.362 386.468,372.859 385,373.706L385,372.362C385,369.601 387.239,367.362 390,367.362C391.954,367.362 393.615,368.509 394.438,370.143L398.938,367.893C397.298,364.609 393.92,362.362 390,362.362ZM390,377.362C392.761,377.362 395,379.601 395,382.362C395,385.124 392.761,387.362 390,387.362C387.239,387.362 385,385.124 385,382.362C385,379.601 387.239,377.362 390,377.362ZM385,393.362L385,395.362L395,395.362L395,393.362L385,393.362Z" style="fill:rgb(85,85,255);"/>
                <path id="path3962.-5.-6.-2.-1.-3" d="M372.5,339.862C369.739,339.862 367.5,342.101 367.5,344.862L367.5,349.862C367.5,352.624 369.739,354.862 372.5,354.862C375.261,354.862 377.5,352.624 377.5,349.862C377.5,347.101 375.261,344.862 372.5,344.862C371.592,344.862 370.734,345.111 370,345.534L370,344.862C370,343.481 371.119,342.362 372.5,342.362C373.477,342.362 374.308,342.936 374.719,343.753L376.969,342.628C376.149,340.986 374.46,339.862 372.5,339.862ZM372.5,347.362C373.881,347.362 375,348.481 375,349.862C375,351.243 373.881,352.362 372.5,352.362C371.119,352.362 370,351.243 370,349.862C370,348.481 371.119,347.362 372.5,347.362Z" style="fill:white;"/>
                <path id="path3962.-5.-6.-2.-1.-8.-1" d="M407.5,414.862C410.261,414.862 412.5,412.624 412.5,409.862L412.5,404.862C412.5,402.101 410.261,399.862 407.5,399.862C404.739,399.862 402.5,402.101 402.5,404.862C402.5,407.624 404.739,409.862 407.5,409.862C408.409,409.862 409.266,409.614 410,409.19L410,409.862C410,411.243 408.881,412.362 407.5,412.362C406.523,412.362 405.692,411.789 405.281,410.972L403.031,412.097C403.851,413.739 405.54,414.862 407.5,414.862ZM407.5,407.362C406.119,407.362 405,406.243 405,404.862C405,403.481 406.119,402.362 407.5,402.362C408.881,402.362 410,403.481 410,404.862C410,406.243 408.881,407.362 407.5,407.362Z" style="fill:white;"/>
            </g>
        </g>
    </g>
</svg>
