<?xml version="1.0" encoding="UTF-8" standalone="no"?>
<!DOCTYPE svg PUBLIC "-//W3C//DTD SVG 1.1//EN" "http://www.w3.org/Graphics/SVG/1.1/DTD/svg11.dtd">
<svg width="100%" height="100%" viewBox="0 0 250 370" version="1.1" xmlns="http://www.w3.org/2000/svg" xmlns:xlink="http://www.w3.org/1999/xlink" xml:space="preserve" style="fill-rule:evenodd;clip-rule:evenodd;">
    <g transform="matrix(1,0,0,1,4,-1076)">
        <g transform="matrix(1,0,0,1,1261,748.638)">
            <g id="g6555.-6" transform="matrix(4,0,0,4,-1260,-997.087)">
                <path id="rect2987.-1.-8" d="M60,334.862C60,333.482 58.88,332.362 57.5,332.362L2.5,332.362C1.12,332.362 0,333.482 0,334.862L0,419.862C0,421.242 1.12,422.362 2.5,422.362L57.5,422.362C58.88,422.362 60,421.242 60,419.862L60,334.862Z" style="fill:white;stroke:black;stroke-width:0.5px;"/>
                <path id="rect3757.-5.-07" d="M55,338.612C55,337.922 54.44,337.362 53.75,337.362L6.25,337.362C5.56,337.362 5,337.922 5,338.612L5,416.112C5,416.802 5.56,417.362 6.25,417.362L53.75,417.362C54.44,417.362 55,416.802 55,416.112L55,338.612Z" style="fill:rgb(85,85,255);"/>
                <path id="path3773.-0.-4.-8.-4.-2.-7" d="M45,352.362C22.909,352.362 5,370.271 5,392.362C5,397.885 9.477,402.362 15,402.362C37.091,402.362 55,384.454 55,362.362C55,356.839 50.523,352.362 45,352.362Z" style="fill:white;"/>
                <path id="path3962.-7.-43" d="M30,362.362C24.477,362.362 20,366.839 20,372.362L20,382.362C20,387.885 24.477,392.362 30,392.362C35.523,392.362 40,387.885 40,382.362L40,372.362C40,366.839 35.523,362.362 30,362.362ZM30,367.362C32.761,367.362 35,369.601 35,372.362L35,382.362C35,385.124 32.761,387.362 30,387.362C27.239,387.362 25,385.124 25,382.362L25,372.362C25,369.601 27.239,367.362 30,367.362Z" style="fill:rgb(85,85,255);"/>
                <path id="path3962.-7.-1.-1" d="M12.5,339.862C9.739,339.862 7.5,342.101 7.5,344.862L7.5,349.862C7.5,352.624 9.739,354.862 12.5,354.862C15.261,354.862 17.5,352.624 17.5,349.862L17.5,344.862C17.5,342.101 15.261,339.862 12.5,339.862ZM12.5,342.362C13.881,342.362 15,343.481 15,344.862L15,349.862C15,351.243 13.881,352.362 12.5,352.362C11.119,352.362 10,351.243 10,349.862L10,344.862C10,343.481 11.119,342.362 12.5,342.362Z" style="fill:white;"/>
                <path id="path3962.-7.-1.-2.-3" d="M47.5,399.862C44.739,399.862 42.5,402.101 42.5,404.862L42.5,409.862C42.5,412.624 44.739,414.862 47.5,414.862C50.261,414.862 52.5,412.624 52.5,409.862L52.5,404.862C52.5,402.101 50.261,399.862 47.5,399.862ZM47.5,402.362C48.881,402.362 50,403.481 50,404.862L50,409.862C50,411.243 48.881,412.362 47.5,412.362C46.119,412.362 45,411.243 45,409.862L45,404.862C45,403.481 46.119,402.362 47.5,402.362Z" style="fill:white;"/>
            </g>
        </g>
    </g>
</svg>
