<?xml version="1.0" encoding="UTF-8" standalone="no"?>
<!DOCTYPE svg PUBLIC "-//W3C//DTD SVG 1.1//EN" "http://www.w3.org/Graphics/SVG/1.1/DTD/svg11.dtd">
<svg width="100%" height="100%" viewBox="0 0 250 370" version="1.1" xmlns="http://www.w3.org/2000/svg" xmlns:xlink="http://www.w3.org/1999/xlink" xml:space="preserve" style="fill-rule:evenodd;clip-rule:evenodd;">
    <g transform="matrix(1,0,0,1,-2636,4)">
        <g transform="matrix(1,0,0,1,1261,748.638)">
            <g id="g6643" transform="matrix(4,0,0,4,-1260,-2077.09)">
                <path id="rect2987.-8.-5.-81.-25" d="M720,334.862C720,333.482 718.88,332.362 717.5,332.362L662.5,332.362C661.12,332.362 660,333.482 660,334.862L660,419.862C660,421.242 661.12,422.362 662.5,422.362L717.5,422.362C718.88,422.362 720,421.242 720,419.862L720,334.862Z" style="fill:white;stroke:black;stroke-width:0.5px;"/>
                <path id="rect3757.-26.-33.-5.-8" d="M715,338.612C715,337.922 714.44,337.362 713.75,337.362L666.25,337.362C665.56,337.362 665,337.922 665,338.612L665,416.112C665,416.802 665.56,417.362 666.25,417.362L713.75,417.362C714.44,417.362 715,416.802 715,416.112L715,338.612Z" style="fill:rgb(255,85,85);"/>
                <path id="path3773.-0.-4.-8.-4.-60.-3.-86.-6" d="M705,352.362C682.909,352.362 665,370.271 665,392.362C665,397.885 669.477,402.362 675,402.362C697.091,402.362 715,384.454 715,362.362C715,356.839 710.523,352.362 705,352.362Z" style="fill:white;"/>
                <path id="path5973.-41" d="M690,361.112L692.5,363.612L682.5,373.612C680,376.112 680,381.112 682.5,383.612L687.5,378.612L697.5,368.612L700,371.112L700,361.112L690,361.112Z" style="fill:rgb(255,85,85);fill-rule:nonzero;"/>
                <path id="path5973.-4.-6" d="M690,393.612L687.5,391.112L697.5,381.112C700,378.612 700,373.612 697.5,371.112L692.5,376.112L682.5,386.112L680,383.612L680,393.612L690,393.612Z" style="fill:rgb(255,85,85);fill-rule:nonzero;"/>
                <path id="path5973.-6.-5" d="M672.5,339.862L673.75,341.112L668.75,346.112C667.5,347.362 667.5,349.862 668.75,351.112L671.25,348.612L676.25,343.612L677.5,344.862L677.5,339.862L672.5,339.862Z" style="fill:white;fill-rule:nonzero;"/>
                <path id="path5973.-4.-3.-5" d="M672.5,356.112L671.25,354.862L676.25,349.862C677.5,348.612 677.5,346.112 676.25,344.862L673.75,347.362L668.75,352.362L667.5,351.112L667.5,356.112L672.5,356.112Z" style="fill:white;fill-rule:nonzero;"/>
                <path id="path5973.-6.-5.-2" d="M707.5,398.612L708.75,399.862L703.75,404.862C702.5,406.112 702.5,408.612 703.75,409.862L706.25,407.362L711.25,402.362L712.5,403.612L712.5,398.612L707.5,398.612Z" style="fill:white;fill-rule:nonzero;"/>
                <path id="path5973.-4.-3.-5.-8" d="M707.5,414.862L706.25,413.612L711.25,408.612C712.5,407.362 712.5,404.862 711.25,403.612L708.75,406.112L703.75,411.112L702.5,409.862L702.5,414.862L707.5,414.862Z" style="fill:white;fill-rule:nonzero;"/>
            </g>
        </g>
    </g>
</svg>
