<?xml version="1.0" encoding="UTF-8" standalone="no"?><!DOCTYPE svg PUBLIC "-//W3C//DTD SVG 1.1//EN" "http://www.w3.org/Graphics/SVG/1.1/DTD/svg11.dtd"><svg width="100%" height="100%" viewBox="0 0 250 370" version="1.1" xmlns="http://www.w3.org/2000/svg" xmlns:xlink="http://www.w3.org/1999/xlink" xml:space="preserve" style="fill-rule:evenodd;clip-rule:evenodd;"><g id="g6694"><path id="rect2987.2e..-8.2e..-5.2e..-81.2e..-2.2e..-1" d="M245,14.996c0,-5.52 -4.48,-10 -10,-10l-220,0c-5.52,0 -10,4.48 -10,10l0,340c0,5.52 4.48,10 10,10l220,0c5.52,0 10,-4.48 10,-10l0,-340Z" style="fill:#fff;stroke:#000;stroke-width:2px;"/><path id="rect3757.2e..-26.2e..-33.2e..-5.2e..-9.2e..-9" d="M225,29.996c0,-2.76 -2.24,-5 -5,-5l-190,0c-2.76,0 -5,2.24 -5,5l0,310c0,2.76 2.24,5 5,5l190,0c2.76,0 5,-2.24 5,-5l0,-310Z" style="fill:#fa0;"/><path id="path3773.2e..-0.2e..-4.2e..-8.2e..-4.2e..-60.2e..-3.2e..-86.2e..-5.2e..-6" d="M185,84.996c-88.364,0 -160,71.636 -160,160c0,22.092 17.908,40 40,40c88.364,0 160,-71.632 160,-160c0,-22.092 -17.908,-40 -40,-40Z" style="fill:#fff;"/><path id="rect3980.2e..-7.2e..-6.2e..-2.2e..-9.2e..-5.2e..-60.2e..-5.2e..-3.2e..-1.2e..-5" d="M84.6,34.996l-19.6,40l0,10l24,0l0,10l10,0l0,-10l6,0l0,-10l-6,0l0,-20l-10,0l0,20l-13.6,0l19.6,-40l-10.4,0Z" style="fill:#fff;fill-rule:nonzero;"/><path id="rect5649.2e..-4" d="M39,54.996l0,10l-10,0l0,10l10,0l0,10l10,0l0,-10l10,0l0,-10l-10,0l0,-10l-10,0Z" style="fill:#fff;"/><path id="rect3980.2e..-7.2e..-6.2e..-2.2e..-9.2e..-5.2e..-60.2e..-5.2e..-3.2e..-1.2e..-8.2e..-9" d="M165.4,334.996l19.6,-40l0,-10l-24,0l0,-10l-10,0l0,10l-6,0l0,10l6,0l0,20l10,0l0,-20l13.6,0l-19.6,40l10.4,0Z" style="fill:#fff;fill-rule:nonzero;"/><path id="rect5649.2e..-1.2e..-1" d="M211,314.996l0,-10l10,0l0,-10l-10,0l0,-10l-10,0l0,10l-10,0l0,10l10,0l0,10l10,0Z" style="fill:#fff;"/><g id="g6111.2e..-38.2e..-2"><path id="rect6095.2e..-2.2e..-9" d="M137.144,137.496c0.393,-1.377 -0.406,-2.5 -1.786,-2.5l-55,0c-1.38,0 -2.821,1.123 -3.214,2.5l-24.287,85.002c-0.393,1.377 0.406,2.5 1.786,2.5l55,0c1.38,0 2.821,-1.123 3.214,-2.5l24.287,-85.002Z" style="fill:#fff;stroke:#000;stroke-width:1.74px;"/><path id="rect6097.2e..-5.2e..-7" d="M124.287,147.495c0.393,-1.376 -0.406,-2.5 -1.786,-2.5l-35,0c-1.38,0 -2.821,1.124 -3.214,2.5l-18.573,65.003c-0.393,1.377 0.406,2.5 1.786,2.5l35,0c1.38,0 2.821,-1.123 3.214,-2.5l18.573,-65.003Z" style="fill:#f55;"/></g><g id="g6111.2e..-62.2e..-2.2e..-1"><path id="rect6095.2e..-14.2e..-0.2e..-3" d="M177.144,107.496c0.393,-1.377 -0.406,-2.5 -1.786,-2.5l-55,0c-1.38,0 -2.821,1.123 -3.214,2.5l-24.287,85.002c-0.393,1.377 0.406,2.5 1.786,2.5l55,0c1.38,0 2.821,-1.123 3.214,-2.5l24.287,-85.002Z" style="fill:#fff;stroke:#000;stroke-width:1.74px;"/><path id="rect6097.2e..-6.2e..-3.2e..-2" d="M164.287,117.495c0.393,-1.376 -0.406,-2.5 -1.786,-2.5l-35,0c-1.38,0 -2.821,1.124 -3.214,2.5l-18.573,65.003c-0.393,1.377 0.406,2.5 1.786,2.5l35,0c1.38,0 2.821,-1.123 3.214,-2.5l18.573,-65.003Z" style="fill:#55f;"/></g><g id="g6111.2e..-3.2e..-5"><path id="rect6095.2e..-0.2e..-3" d="M167.144,167.496c0.393,-1.377 -0.406,-2.5 -1.786,-2.5l-55,0c-1.38,0 -2.821,1.123 -3.214,2.5l-24.287,85.002c-0.393,1.377 0.406,2.5 1.786,2.5l55,0c1.38,0 2.821,-1.123 3.214,-2.5l24.287,-85.002Z" style="fill:#fff;stroke:#000;stroke-width:1.74px;"/><path id="rect6097.2e..-7.2e..-4" d="M154.287,177.495c0.393,-1.376 -0.406,-2.5 -1.786,-2.5l-35,0c-1.38,0 -2.821,1.124 -3.214,2.5l-18.573,65.003c-0.393,1.377 0.406,2.5 1.786,2.5l35,0c1.38,0 2.821,-1.123 3.214,-2.5l18.573,-65.003Z" style="fill:#fa0;"/></g><g id="g6111.2e..-62.2e..-7.2e..-3"><path id="rect6095.2e..-14.2e..-8.2e..-2" d="M207.144,137.496c0.393,-1.377 -0.406,-2.5 -1.786,-2.5l-55,0c-1.38,0 -2.821,1.123 -3.214,2.5l-24.287,85.002c-0.393,1.377 0.406,2.5 1.786,2.5l55,0c1.38,0 2.821,-1.123 3.214,-2.5l24.287,-85.002Z" style="fill:#fff;stroke:#000;stroke-width:1.74px;"/><path id="rect6097.2e..-6.2e..-7.2e..-1" d="M194.287,147.495c0.393,-1.376 -0.406,-2.5 -1.786,-2.5l-35,0c-1.38,0 -2.821,1.124 -3.214,2.5l-18.573,65.003c-0.393,1.377 0.406,2.5 1.786,2.5l35,0c1.38,0 2.821,-1.123 3.214,-2.5l18.573,-65.003Z" style="fill:#5a5;"/></g></g></svg>