<?xml version="1.0" encoding="UTF-8" standalone="no"?>
<!DOCTYPE svg PUBLIC "-//W3C//DTD SVG 1.1//EN" "http://www.w3.org/Graphics/SVG/1.1/DTD/svg11.dtd">
<svg width="100%" height="100%" viewBox="0 0 250 370" version="1.1" xmlns="http://www.w3.org/2000/svg" xmlns:xlink="http://www.w3.org/1999/xlink" xml:space="preserve" style="fill-rule:evenodd;clip-rule:evenodd;">
    <g transform="matrix(1,0,0,1,-1676,4)">
        <g transform="matrix(1,0,0,1,1261,748.638)">
            <g id="g6611" transform="matrix(4,0,0,4,-1260,-2077.09)">
                <path id="rect2987.-4" d="M480,334.862C480,333.482 478.88,332.362 477.5,332.362L422.5,332.362C421.12,332.362 420,333.482 420,334.862L420,419.862C420,421.242 421.12,422.362 422.5,422.362L477.5,422.362C478.88,422.362 480,421.242 480,419.862L480,334.862Z" style="fill:white;stroke:black;stroke-width:0.5px;"/>
                <path id="rect3757.-2" d="M475,338.612C475,337.922 474.44,337.362 473.75,337.362L426.25,337.362C425.56,337.362 425,337.922 425,338.612L425,416.112C425,416.802 425.56,417.362 426.25,417.362L473.75,417.362C474.44,417.362 475,416.802 475,416.112L475,338.612Z" style="fill:rgb(255,85,85);"/>
                <path id="path3773.-0.-4.-8.-4.-3" d="M465,352.362C442.909,352.362 425,370.271 425,392.362C425,397.885 429.477,402.362 435,402.362C457.091,402.362 475,384.454 475,362.362C475,356.839 470.523,352.362 465,352.362Z" style="fill:white;"/>
                <path id="rect4014" d="M441.5,362.362L441.5,372.362L446.5,372.362L446.5,367.362L456.5,367.362L446.5,392.362L451.5,392.362L461.5,367.362L461.5,362.362L446.5,362.362L441.5,362.362Z" style="fill:rgb(255,85,85);"/>
                <path id="rect4014.-3" d="M427.5,339.862L427.5,344.862L430,344.862L430,342.362L435,342.362L430,354.862L432.5,354.862L437.5,342.362L437.5,339.862L430,339.862L427.5,339.862Z" style="fill:white;"/>
                <path id="rect4014.-3.-3" d="M472.5,414.862L472.5,409.862L470,409.862L470,412.362L465,412.362L470,399.862L467.5,399.862L462.5,412.362L462.5,414.862L472.5,414.862Z" style="fill:white;"/>
            </g>
        </g>
    </g>
</svg>
