<?xml version="1.0" encoding="UTF-8" standalone="no"?>
<!DOCTYPE svg PUBLIC "-//W3C//DTD SVG 1.1//EN" "http://www.w3.org/Graphics/SVG/1.1/DTD/svg11.dtd">
<svg width="100%" height="100%" viewBox="0 0 250 370" version="1.1" xmlns="http://www.w3.org/2000/svg" xmlns:xlink="http://www.w3.org/1999/xlink" xml:space="preserve" style="fill-rule:evenodd;clip-rule:evenodd;">
    <g transform="matrix(1,0,0,1,-2876,-716)">
        <g transform="matrix(1,0,0,1,1261,748.638)">
            <g id="g9446.-1" transform="matrix(4,0,0,4,-2040,-3517.09)">
                <path id="rect2987.-8.-5.-81.-7.-5.-7.-3" d="M975,874.862C975,873.482 973.88,872.362 972.5,872.362L917.5,872.362C916.12,872.362 915,873.482 915,874.862L915,959.862C915,961.242 916.12,962.362 917.5,962.362L972.5,962.362C973.88,962.362 975,961.242 975,959.862L975,874.862Z" style="fill:white;stroke:black;stroke-width:0.5px;"/>
                <path id="rect3757.-26.-33.-5.-2.-8.-4.-6" d="M970,878.612C970,877.922 969.44,877.362 968.75,877.362L921.25,877.362C920.56,877.362 920,877.922 920,878.612L920,956.112C920,956.802 920.56,957.362 921.25,957.362L968.75,957.362C969.44,957.362 970,956.802 970,956.112L970,878.612Z" style="fill:rgb(85,170,85);"/>
                <path id="path3773.-0.-4.-8.-4.-60.-3.-86.-29.-2.-7.-7" d="M960,892.362C937.909,892.362 920,910.271 920,932.362C920,937.885 924.477,942.362 930,942.362C952.091,942.362 970,924.454 970,902.362C970,896.839 965.523,892.362 960,892.362Z" style="fill:white;"/>
                <g id="rect6095.-5.-7.-3.-8" transform="matrix(1,0,-0.274722,0.961524,0,0)">
                    <path d="M1210.68,946.921C1210.68,946.562 1210.4,946.271 1210.05,946.271L1196.3,946.271C1195.96,946.271 1195.68,946.562 1195.68,946.921L1195.68,969.021C1195.68,969.38 1195.96,969.671 1196.3,969.671L1210.05,969.671C1210.4,969.671 1210.68,969.38 1210.68,969.021L1210.68,946.921Z" style="fill:white;stroke:black;stroke-width:0.51px;"/>
                </g>
                <g id="rect6097.-3.-9.-4.-9" transform="matrix(1,0,-0.274722,0.961524,0,0)">
                    <path d="M1208.18,949.521C1208.18,949.162 1207.9,948.871 1207.55,948.871L1198.8,948.871C1198.46,948.871 1198.18,949.162 1198.18,949.521L1198.18,966.421C1198.18,966.78 1198.46,967.071 1198.8,967.071L1207.55,967.071C1207.9,967.071 1208.18,966.78 1208.18,966.421L1208.18,949.521Z" style="fill:rgb(85,170,85);"/>
                </g>
                <g id="rect6095.-1.-6.-0.-5" transform="matrix(1,0,-0.274722,0.961524,0,0)">
                    <path d="M1218.53,939.121C1218.53,938.762 1218.25,938.471 1217.91,938.471L1204.16,938.471C1203.81,938.471 1203.53,938.762 1203.53,939.121L1203.53,961.221C1203.53,961.58 1203.81,961.871 1204.16,961.871L1217.91,961.871C1218.25,961.871 1218.53,961.58 1218.53,961.221L1218.53,939.121Z" style="fill:white;stroke:black;stroke-width:0.51px;"/>
                </g>
                <g id="rect6097.-8.-1.-8.-5" transform="matrix(1,0,-0.274722,0.961524,0,0)">
                    <path d="M1216.03,941.721C1216.03,941.362 1215.75,941.071 1215.41,941.071L1206.66,941.071C1206.31,941.071 1206.03,941.362 1206.03,941.721L1206.03,958.621C1206.03,958.98 1206.31,959.271 1206.66,959.271L1215.41,959.271C1215.75,959.271 1216.03,958.98 1216.03,958.621L1216.03,941.721Z" style="fill:rgb(85,170,85);"/>
                </g>
                <path id="rect5649.-4.-2.-7.-8.-5" d="M923.5,884.862L923.5,887.362L921,887.362L921,889.862L923.5,889.862L923.5,892.362L926,892.362L926,889.862L928.5,889.862L928.5,887.362L926,887.362L926,884.862L923.5,884.862Z" style="fill:white;"/>
                <path id="rect3163.-52.-9.-8.-1.-1.-2.-7.-3.-6.-0.-9.-5.-9.-2.-6.-6" d="M935,879.862C932.23,879.862 930,882.092 930,884.862L930,885.362L932.5,885.362L932.5,884.862C932.5,883.477 933.615,882.362 935,882.362C936.385,882.362 937.5,883.477 937.5,884.862C937.5,885.426 937.032,886.532 936.544,886.917C933.891,889.004 933.919,888.659 930,891.362L930,894.862L940,894.862L940,892.362L940,891.362L937.5,891.362L937.5,892.362L935,892.362L933,892.362C936.095,890.183 936.321,890.236 938.747,888.065C939.524,887.37 940,885.99 940,884.862C940,882.092 937.77,879.862 935,879.862Z" style="fill:white;fill-rule:nonzero;"/>
                <path id="rect5649.-4.-2.-7.-0.-7.-6" d="M966.5,949.862L966.5,947.362L969,947.362L969,944.862L966.5,944.862L966.5,942.362L964,942.362L964,944.862L961.5,944.862L961.5,947.362L964,947.362L964,949.862L966.5,949.862Z" style="fill:white;"/>
                <path id="rect3163.-52.-9.-8.-1.-1.-2.-7.-3.-6.-0.-9.-5.-9.-2.-2.-0.-3" d="M955,954.862C957.77,954.862 960,952.632 960,949.862L960,949.362L957.5,949.362L957.5,949.862C957.5,951.247 956.385,952.362 955,952.362C953.615,952.362 952.5,951.247 952.5,949.862C952.5,949.299 952.968,948.192 953.456,947.808C956.109,945.72 956.081,946.065 960,943.362L960,939.862L955,939.862L950,939.862L950,943.362L952.5,943.362L952.5,942.362L957,942.362C953.905,944.542 953.679,944.489 951.253,946.659C950.476,947.355 950,948.735 950,949.862C950,952.632 952.23,954.862 955,954.862Z" style="fill:white;fill-rule:nonzero;"/>
            </g>
        </g>
    </g>
</svg>
