<?xml version="1.0" encoding="UTF-8" standalone="no"?>
<!DOCTYPE svg PUBLIC "-//W3C//DTD SVG 1.1//EN" "http://www.w3.org/Graphics/SVG/1.1/DTD/svg11.dtd">
<svg width="100%" height="100%" viewBox="0 0 250 370" version="1.1" xmlns="http://www.w3.org/2000/svg" xmlns:xlink="http://www.w3.org/1999/xlink" xml:space="preserve" style="fill-rule:evenodd;clip-rule:evenodd;">
    <g transform="matrix(1,0,0,1,-956,-356)">
        <g transform="matrix(1,0,0,1,1261,748.638)">
            <g id="g6587.-1" transform="matrix(4,0,0,4,-1260,-1717.09)">
                <path id="rect2987.-8.-5.-0.-4" d="M300,334.862C300,333.482 298.88,332.362 297.5,332.362L242.5,332.362C241.12,332.362 240,333.482 240,334.862L240,419.862C240,421.242 241.12,422.362 242.5,422.362L297.5,422.362C298.88,422.362 300,421.242 300,419.862L300,334.862Z" style="fill:white;stroke:black;stroke-width:0.5px;"/>
                <path id="rect3757.-26.-33.-8.-8" d="M295,338.612C295,337.922 294.44,337.362 293.75,337.362L246.25,337.362C245.56,337.362 245,337.922 245,338.612L245,416.112C245,416.802 245.56,417.362 246.25,417.362L293.75,417.362C294.44,417.362 295,416.802 295,416.112L295,338.612Z" style="fill:rgb(255,170,0);"/>
                <path id="path3773.-0.-4.-8.-4.-60.-3.-8.-4" d="M285,352.362C262.909,352.362 245,370.271 245,392.362C245,397.885 249.477,402.362 255,402.362C277.091,402.362 295,384.454 295,362.362C295,356.839 290.523,352.362 285,352.362Z" style="fill:white;"/>
                <path id="rect3980.-7.-6.-2.-9.-5.-60.-2.-9" d="M268.8,362.362L259,382.362L259,387.362L271,387.362L271,392.362L276,392.362L276,387.362L279,387.362L279,382.362L276,382.362L276,372.362L271,372.362L271,382.362L264.2,382.362L274,362.362L268.8,362.362Z" style="fill:rgb(255,170,0);fill-rule:nonzero;"/>
                <path id="rect3980.-7.-6.-2.-9.-5.-60.-5.-3.-2" d="M252.3,339.862L247.4,349.862L247.4,352.362L253.4,352.362L253.4,354.862L255.9,354.862L255.9,352.362L257.4,352.362L257.4,349.862L255.9,349.862L255.9,344.862L253.4,344.862L253.4,349.862L250,349.862L254.9,339.862L252.3,339.862Z" style="fill:white;fill-rule:nonzero;"/>
                <path id="rect3980.-7.-6.-2.-9.-5.-60.-5.-3.-9.-0" d="M287.5,414.862L292.4,404.862L292.4,402.362L286.4,402.362L286.4,399.862L283.9,399.862L283.9,402.362L282.4,402.362L282.4,404.862L283.9,404.862L283.9,409.862L286.4,409.862L286.4,404.862L289.8,404.862L284.9,414.862L287.5,414.862Z" style="fill:white;fill-rule:nonzero;"/>
            </g>
        </g>
    </g>
</svg>
